<svg width="11" height="10" viewBox="0 0 11 10" fill="none" xmlns="http://www.w3.org/2000/svg">
<path fill-rule="evenodd" clip-rule="evenodd" d="M5.43406 9.17237C5.53406 9.27491 5.66073 9.32276 5.7874 9.32276C5.91406 9.32276 6.04073 9.27491 6.14073 9.17237L10.1874 5.02284C10.3807 4.82459 10.3807 4.49646 10.1874 4.29821L6.14073 0.148686C5.9474 -0.0495614 5.6274 -0.0495614 5.43406 0.148686C5.24073 0.346934 5.24073 0.675068 5.43406 0.873315L8.62705 4.14746H0.5C0.226667 4.14746 0 4.37989 0 4.66017C0 4.94045 0.226667 5.17288 0.5 5.17288H8.62774L5.43406 8.44774C5.24073 8.64599 5.24073 8.97412 5.43406 9.17237Z" fill="#303030"/>
</svg>
