<svg width="42" height="42" viewBox="0 0 42 42" fill="none" xmlns="http://www.w3.org/2000/svg">
<rect width="42" height="42" rx="8" fill="#F4F9FF"/>
<path d="M26.0026 16.2663C25.9956 15.4905 25.6844 14.7485 25.1358 14.1999C24.5872 13.6512 23.8451 13.34 23.0693 13.333C22.0026 13.333 21.2026 13.733 20.6693 14.533C20.1359 13.733 19.3359 13.333 18.2693 13.333C17.4935 13.34 16.7514 13.6512 16.2028 14.1999C15.6542 14.7485 15.3429 15.4905 15.3359 16.2663C15.3359 17.0663 15.7359 17.8663 16.2693 18.3997C17.7215 19.8367 19.1882 21.259 20.6693 22.6663C22.1436 21.2968 23.6103 19.919 25.0693 18.533C25.6673 17.9302 26.0028 17.1155 26.0026 16.2663Z" stroke="#3F97FF" stroke-width="2" stroke-linecap="round" stroke-linejoin="round"/>
<path d="M10 31.3333V11.3333C10 10.4493 10.3512 9.60143 10.9763 8.97631C11.6014 8.35119 12.4493 8 13.3333 8H30C30.3536 8 30.6928 8.14048 30.9428 8.39052C31.1929 8.64057 31.3333 8.97971 31.3333 9.33333V33.3333C31.3333 33.687 31.1929 34.0261 30.9428 34.2761C30.6928 34.5262 30.3536 34.6667 30 34.6667H13.3333C12.4493 34.6667 11.6014 34.3155 10.9763 33.6904C10.3512 33.0652 10 32.2174 10 31.3333ZM10 31.3333C10 30.4493 10.3512 29.6014 10.9763 28.9763C11.6014 28.3512 12.4493 28 13.3333 28H31.3333" stroke="#3F97FF" stroke-width="2" stroke-linecap="round" stroke-linejoin="round"/>
</svg>
