<svg width="42" height="42" viewBox="0 0 42 42" fill="none" xmlns="http://www.w3.org/2000/svg">
<rect width="42" height="42" rx="8" fill="#F4F9FF"/>
<path d="M21.3344 12.0118C21.336 11.4785 21.2309 10.9503 21.0253 10.4582C20.8198 9.9661 20.5179 9.52009 20.1374 9.14638C19.757 8.77267 19.3056 8.47882 18.81 8.28209C18.3143 8.08537 17.7842 7.98976 17.2511 8.00087C16.7179 8.01198 16.1923 8.1296 15.7053 8.34681C15.2182 8.56401 14.7795 8.87642 14.4149 9.26566C14.0504 9.65489 13.7674 10.1131 13.5825 10.6133C13.3976 11.1135 13.3146 11.6457 13.3384 12.1785C12.5547 12.38 11.8271 12.7572 11.2107 13.2815C10.5944 13.8059 10.1054 14.4636 9.78087 15.2049C9.45634 15.9462 9.30476 16.7516 9.33759 17.5602C9.37043 18.3688 9.58683 19.1592 9.97041 19.8718C9.29598 20.4197 8.76564 21.1241 8.42553 21.9237C8.08541 22.7233 7.94582 23.5939 8.01889 24.4598C8.09197 25.3256 8.3755 26.1605 8.84482 26.8918C9.31413 27.6231 9.95503 28.2287 10.7117 28.6558C10.6183 29.3788 10.6741 30.1132 10.8756 30.8138C11.0771 31.5144 11.4201 32.1662 11.8835 32.7291C12.3468 33.2919 12.9206 33.7538 13.5694 34.0861C14.2182 34.4185 14.9282 34.6144 15.6557 34.6616C16.3832 34.7088 17.1126 34.6063 17.7989 34.3606C18.4853 34.1149 19.1139 33.731 19.6461 33.2328C20.1783 32.7346 20.6026 32.1325 20.893 31.4639C21.1834 30.7952 21.3336 30.0741 21.3344 29.3451V12.0118Z" stroke="#3F97FF" stroke-width="2" stroke-linecap="round" stroke-linejoin="round"/>
<path d="M21.336 12.0118C21.3344 11.4785 21.4395 10.9503 21.645 10.4582C21.8506 9.9661 22.1525 9.52009 22.5329 9.14638C22.9134 8.77267 23.3647 8.47882 23.8604 8.28209C24.3561 8.08537 24.8861 7.98976 25.4193 8.00087C25.9525 8.01198 26.478 8.1296 26.9651 8.34681C27.4522 8.56401 27.8909 8.87642 28.2554 9.26566C28.62 9.65489 28.903 10.1131 29.0879 10.6133C29.2728 11.1135 29.3557 11.6457 29.332 12.1785C30.1157 12.38 30.8433 12.7572 31.4596 13.2815C32.076 13.8059 32.565 14.4636 32.8895 15.2049C33.214 15.9462 33.3656 16.7516 33.3328 17.5602C33.2999 18.3688 33.0835 19.1592 32.7 19.8718C33.3744 20.4197 33.9047 21.1241 34.2448 21.9237C34.585 22.7233 34.7245 23.5939 34.6515 24.4598C34.5784 25.3256 34.2949 26.1605 33.8255 26.8918C33.3562 27.6231 32.7153 28.2287 31.9586 28.6558C32.0521 29.3788 31.9963 30.1132 31.7948 30.8138C31.5932 31.5144 31.2502 32.1662 30.7869 32.7291C30.3236 33.2919 29.7498 33.7538 29.101 34.0861C28.4522 34.4185 27.7421 34.6144 27.0147 34.6616C26.2872 34.7088 25.5578 34.6063 24.8714 34.3606C24.1851 34.1149 23.5564 33.731 23.0243 33.2328C22.4921 32.7346 22.0677 32.1325 21.7773 31.4639C21.487 30.7952 21.3367 30.0741 21.336 29.3451V12.0118Z" stroke="#3F97FF" stroke-width="2" stroke-linecap="round" stroke-linejoin="round"/>
<path d="M25.3359 22.6781C24.2165 22.2843 23.239 21.5674 22.527 20.6181C21.815 19.6687 21.4005 18.5296 21.3359 17.3447C21.2713 18.5296 20.8568 19.6687 20.1448 20.6181C19.4328 21.5674 18.4553 22.2843 17.3359 22.6781" stroke="#3F97FF" stroke-width="2" stroke-linecap="round" stroke-linejoin="round"/>
<path d="M28.8008 14.0111C29.1235 13.4518 29.306 12.8228 29.3328 12.1777" stroke="#3F97FF" stroke-width="2" stroke-linecap="round" stroke-linejoin="round"/>
<path d="M13.3398 12.1777C13.3662 12.8227 13.5483 13.4517 13.8705 14.0111" stroke="#3F97FF" stroke-width="2" stroke-linecap="round" stroke-linejoin="round"/>
<path d="M9.97266 19.8727C10.2166 19.6741 10.4776 19.4974 10.7527 19.3447" stroke="#3F97FF" stroke-width="2" stroke-linecap="round" stroke-linejoin="round"/>
<path d="M31.9219 19.3447C32.1969 19.4974 32.458 19.6741 32.7019 19.8727" stroke="#3F97FF" stroke-width="2" stroke-linecap="round" stroke-linejoin="round"/>
<path d="M13.3375 29.3443C12.4186 29.3447 11.5152 29.1077 10.7148 28.6562" stroke="#3F97FF" stroke-width="2" stroke-linecap="round" stroke-linejoin="round"/>
<path d="M31.9586 28.6562C31.1582 29.1077 30.2548 29.3447 29.3359 29.3443" stroke="#3F97FF" stroke-width="2" stroke-linecap="round" stroke-linejoin="round"/>
</svg>
