<svg width="23" height="23" viewBox="0 0 23 23" fill="none" xmlns="http://www.w3.org/2000/svg">
<path fill-rule="evenodd" clip-rule="evenodd" d="M22.6602 11.5371C22.6602 5.46198 17.7353 0.537109 11.6602 0.537109C5.58502 0.537109 0.660156 5.46198 0.660156 11.5371C0.660156 17.6122 5.58502 22.5371 11.6602 22.5371C12.9861 22.5371 14.8076 22.0534 17.1246 21.086L20.8714 22.5475L20.9825 22.5836C21.4668 22.7106 21.9801 22.4571 22.1665 21.9793C22.241 21.7883 22.255 21.5789 22.2065 21.3796L21.1618 17.0831L21.3329 16.6738C22.2177 14.5184 22.6602 12.8062 22.6602 11.5371ZM19.9315 16.1375L19.5867 16.954L20.5222 20.8012L17.1056 19.4684L16.1725 19.8554C14.2047 20.6495 12.6847 21.0371 11.6602 21.0371C6.41345 21.0371 2.16016 16.7838 2.16016 11.5371C2.16016 6.2904 6.41345 2.03711 11.6602 2.03711C16.9069 2.03711 21.1602 6.2904 21.1602 11.5371C21.1602 12.5826 20.7572 14.1324 19.9315 16.1375Z" fill="#262626"/>
</svg>
