<svg width="42" height="42" viewBox="0 0 42 42" fill="none" xmlns="http://www.w3.org/2000/svg">
<rect width="42" height="42" rx="8" fill="#F4F9FF"/>
<path d="M13.332 20H18.6654" stroke="#3F97FF" stroke-width="2" stroke-linecap="round" stroke-linejoin="round"/>
<path d="M16 17.333V22.6663" stroke="#3F97FF" stroke-width="2" stroke-linecap="round" stroke-linejoin="round"/>
<path d="M25.332 21.333H25.3454" stroke="#3F97FF" stroke-width="2" stroke-linecap="round" stroke-linejoin="round"/>
<path d="M29.332 18.666H29.3454" stroke="#3F97FF" stroke-width="2" stroke-linecap="round" stroke-linejoin="round"/>
<path d="M28.4267 12H14.24C12.9204 12.0003 11.6477 12.4898 10.668 13.374C9.68837 14.2581 9.07126 15.474 8.936 16.7867C8.928 16.856 8.92267 16.9213 8.91333 16.9893C8.80533 17.888 8 24.608 8 26.6667C8 27.7275 8.42143 28.7449 9.17157 29.4951C9.92172 30.2452 10.9391 30.6667 12 30.6667C13.3333 30.6667 14 30 14.6667 29.3333L16.552 27.448C17.052 26.9479 17.7301 26.6668 18.4373 26.6667H24.2293C24.9365 26.6668 25.6147 26.9479 26.1147 27.448L28 29.3333C28.6667 30 29.3333 30.6667 30.6667 30.6667C31.7275 30.6667 32.7449 30.2452 33.4951 29.4951C34.2452 28.7449 34.6667 27.7275 34.6667 26.6667C34.6667 24.6067 33.8613 17.888 33.7533 16.9893C33.744 16.9227 33.7387 16.856 33.7307 16.788C33.5957 15.4751 32.9787 14.2588 31.999 13.3744C31.0193 12.4901 29.7465 12.0003 28.4267 12Z" stroke="#3F97FF" stroke-width="2" stroke-linecap="round" stroke-linejoin="round"/>
</svg>
