<svg width="42" height="42" viewBox="0 0 42 42" fill="none" xmlns="http://www.w3.org/2000/svg">
<rect width="42" height="42" rx="8" fill="#F4F9FF"/>
<path d="M21 22.6667V8L31.6667 13.3333L21 18.6667" stroke="#3F97FF" stroke-width="2" stroke-linecap="round" stroke-linejoin="round"/>
<path d="M32.4142 18.9625C33.1238 21.1494 33.1902 23.494 32.6055 25.7175C32.0208 27.941 30.8098 29.9498 29.1163 31.5048C27.4229 33.0598 25.3184 34.0956 23.0532 34.4889C20.788 34.8823 18.4575 34.6167 16.339 33.7237C14.2204 32.8307 12.403 31.3479 11.1029 29.4517C9.8028 27.5555 9.07478 25.3258 9.00546 23.0277C8.93613 20.7297 9.52842 18.4601 10.7118 16.489C11.8953 14.5179 13.62 12.9283 15.6809 11.9092" stroke="#3F97FF" stroke-width="2" stroke-linecap="round" stroke-linejoin="round"/>
<path d="M15.6685 18.6621C15.0004 19.5515 14.5654 20.5939 14.4033 21.6944C14.2411 22.7948 14.3569 23.9184 14.74 24.9627C15.1232 26.007 15.7616 26.9388 16.597 27.6733C17.4324 28.4077 18.4383 28.9215 19.5231 29.1677C20.6079 29.4139 21.737 29.3847 22.8077 29.0829C23.8783 28.7811 24.8564 28.2161 25.6528 27.4396C26.4493 26.663 27.0387 25.6995 27.3675 24.6368C27.6963 23.5741 27.7539 22.4461 27.5352 21.3554" stroke="#3F97FF" stroke-width="2" stroke-linecap="round" stroke-linejoin="round"/>
</svg>
