<svg width="24" height="22" viewBox="0 0 24 22" fill="none" xmlns="http://www.w3.org/2000/svg">
<path fill-rule="evenodd" clip-rule="evenodd" d="M11.8725 3.19222L11.2175 2.42662C8.58142 -0.209423 4.37761 -0.0297906 1.74157 2.60625C-0.894471 5.24229 -0.387159 10.3386 2.24888 12.9747C3.31874 14.0445 4.92092 15.5258 7.05542 17.4186L8.85115 18.9984L10.8681 20.7491C11.4234 21.2284 12.2439 21.2357 12.8077 20.7664L14.4416 19.3965C17.3029 16.9784 19.4262 15.0737 20.8115 13.6826L21.171 13.3159L21.4939 12.9747C23.9489 10.3272 24.5798 5.18098 22.005 2.60625L21.8185 2.42662C19.1711 -0.0283649 15.179 -0.14812 12.6042 2.42662L11.8725 3.19222ZM2.80223 3.66691C4.88666 1.58248 8.11137 1.48476 10.118 3.44893L11.8111 5.42759L13.6886 3.46299C15.6145 1.53766 18.6838 1.56549 20.7986 3.5265L20.9645 3.68668C22.7839 5.50648 22.4744 9.71122 20.394 11.9547L20.0815 12.2848L19.7348 12.6383C18.5864 13.7908 16.8845 15.3349 14.6405 17.2579L13.4734 18.2509L11.8481 19.6135L9.83442 17.8656L8.39319 16.5996C6.36239 14.8047 4.79575 13.3691 3.69885 12.2984L3.30954 11.914C1.138 9.74246 0.866398 5.60274 2.80223 3.66691Z" fill="#262626"/>
</svg>
