<svg width="42" height="42" viewBox="0 0 42 42" fill="none" xmlns="http://www.w3.org/2000/svg">
<rect width="42" height="42" rx="8" fill="#F4F9FF"/>
<path d="M12.6667 31.9997C11.9594 31.9997 11.2811 31.7187 10.781 31.2186C10.281 30.7185 10 30.0403 10 29.333V15.9997C10 15.2924 10.281 14.6142 10.781 14.1141C11.2811 13.614 11.9594 13.333 12.6667 13.333H28.6667C29.3739 13.333 30.0522 13.614 30.5523 14.1141C31.0524 14.6142 31.3333 15.2924 31.3333 15.9997V29.333C31.3333 30.0403 31.0524 30.7185 30.5523 31.2186C30.0522 31.7187 29.3739 31.9997 28.6667 31.9997" stroke="#3F97FF" stroke-width="2" stroke-linecap="round" stroke-linejoin="round"/>
<path d="M15.3359 29.3333V10.6667C15.3359 9.95942 15.6169 9.28115 16.117 8.78105C16.6171 8.28095 17.2954 8 18.0026 8H23.3359C24.0432 8 24.7215 8.28095 25.2216 8.78105C25.7217 9.28115 26.0026 9.95942 26.0026 10.6667V29.3333" stroke="#3F97FF" stroke-width="2" stroke-linecap="round" stroke-linejoin="round"/>
<path d="M18 32H23.3333" stroke="#3F97FF" stroke-width="2" stroke-linecap="round" stroke-linejoin="round"/>
<path d="M26.0026 34.6663C27.4754 34.6663 28.6693 33.4724 28.6693 31.9997C28.6693 30.5269 27.4754 29.333 26.0026 29.333C24.5298 29.333 23.3359 30.5269 23.3359 31.9997C23.3359 33.4724 24.5298 34.6663 26.0026 34.6663Z" stroke="#3F97FF" stroke-width="2" stroke-linecap="round" stroke-linejoin="round"/>
<path d="M15.3346 34.6663C16.8074 34.6663 18.0013 33.4724 18.0013 31.9997C18.0013 30.5269 16.8074 29.333 15.3346 29.333C13.8619 29.333 12.668 30.5269 12.668 31.9997C12.668 33.4724 13.8619 34.6663 15.3346 34.6663Z" stroke="#3F97FF" stroke-width="2" stroke-linecap="round" stroke-linejoin="round"/>
</svg>
