<svg width="42" height="42" viewBox="0 0 42 42" fill="none" xmlns="http://www.w3.org/2000/svg">
<rect width="42" height="42" rx="8" fill="#F4F9FF"/>
<path d="M15.8667 30.6771C18.4114 31.9826 21.3388 32.3361 24.1212 31.6742C26.9036 31.0122 29.3581 29.3783 31.0423 27.0667C32.7266 24.7552 33.5299 21.9181 33.3074 19.0667C33.085 16.2153 31.8514 13.5371 29.8291 11.5147C27.8067 9.49237 25.1285 8.25881 22.2771 8.03637C19.4257 7.81392 16.5886 8.61721 14.2771 10.3015C11.9656 11.9857 10.3316 14.4402 9.66963 17.2226C9.00767 20.005 9.36126 22.9324 10.6667 25.4771L8 33.3438L15.8667 30.6771Z" stroke="#3F97FF" stroke-width="2" stroke-linecap="round" stroke-linejoin="round"/>
<path d="M21.332 14.6777V20.0111" stroke="#3F97FF" stroke-width="2" stroke-linecap="round" stroke-linejoin="round"/>
<path d="M21.332 25.3438H21.3454" stroke="#3F97FF" stroke-width="2" stroke-linecap="round" stroke-linejoin="round"/>
</svg>
