<svg width="10" height="10" viewBox="0 0 10 10" fill="none" xmlns="http://www.w3.org/2000/svg">
<path fill-rule="evenodd" clip-rule="evenodd" d="M4.94911 0.101562L6.18132 0.905019L7.65231 0.895295L8.25454 2.23739L9.49727 3.02449L9.2783 4.47912L9.89821 5.81314L8.92757 6.91847L8.72785 8.37587L7.31371 8.78096L6.35777 9.89903L4.94911 9.47527L3.54044 9.89903L2.5845 8.78096L1.17036 8.37587L0.970641 6.91847L0 5.81314L0.619915 4.47912L0.400947 3.02449L1.64368 2.23739L2.2459 0.895295L3.71689 0.905019L4.94911 0.101562ZM6.25793 3.62027L4.28924 5.71049L3.64029 5.02148C3.48882 4.86067 3.23567 4.85309 3.07486 5.00456C2.91404 5.15602 2.90646 5.40917 3.05793 5.56999L3.99805 6.56815C4.15597 6.73581 4.4225 6.73581 4.58042 6.56815L6.84029 4.16878C6.99175 4.00796 6.98417 3.75481 6.82336 3.60334C6.66254 3.45188 6.40939 3.45946 6.25793 3.62027Z" fill="#3897F0"/>
</svg>
