<svg width="21" height="24" viewBox="0 0 21 24" fill="none" xmlns="http://www.w3.org/2000/svg">
<path fill-rule="evenodd" clip-rule="evenodd" d="M0.5 0.5V22.1524C0.5 22.4152 0.603434 22.6674 0.787934 22.8545C1.1757 23.2478 1.80885 23.2522 2.20211 22.8645L10.7507 14.4353L19.2994 22.8645C19.4865 23.049 19.7387 23.1524 20.0015 23.1524C20.5538 23.1524 21.0015 22.7047 21.0015 22.1524V0.5C21.0015 0.223858 20.7776 0 20.5015 0H1C0.723858 0 0.5 0.223858 0.5 0.5ZM2 20.9572V1.5H19.5015V20.9572L11.4529 13.0211C11.0635 12.6372 10.438 12.6372 10.0486 13.0211L2 20.9572Z" fill="#262626"/>
</svg>
