<svg width="42" height="42" viewBox="0 0 42 42" fill="none" xmlns="http://www.w3.org/2000/svg">
<rect width="42" height="42" rx="8" fill="#F4F9FF"/>
<path d="M8 26.6667V10.6667C8 9.95942 8.28095 9.28115 8.78105 8.78105C9.28115 8.28095 9.95942 8 10.6667 8H25.3333" stroke="#3F97FF" stroke-width="2" stroke-linecap="round" stroke-linejoin="round"/>
<path d="M34.6654 29.333H19.9987C19.2915 29.333 18.6132 29.614 18.1131 30.1141C17.613 30.6142 17.332 31.2924 17.332 31.9997M17.332 31.9997C17.332 32.7069 17.613 33.3852 18.1131 33.8853C18.6132 34.3854 19.2915 34.6663 19.9987 34.6663H33.9987C34.1755 34.6663 34.3451 34.5961 34.4701 34.4711C34.5951 34.3461 34.6654 34.1765 34.6654 33.9997V13.9997C34.6654 13.8229 34.5951 13.6533 34.4701 13.5283C34.3451 13.4032 34.1755 13.333 33.9987 13.333H19.9987C19.2915 13.333 18.6132 13.614 18.1131 14.1141C17.613 14.6142 17.332 15.2924 17.332 15.9997V31.9997Z" stroke="#3F97FF" stroke-width="2" stroke-linecap="round" stroke-linejoin="round"/>
<path d="M12 24H10.6667C9.95942 24 9.28115 24.281 8.78105 24.781C8.28095 25.2811 8 25.9594 8 26.6667C8 27.3739 8.28095 28.0522 8.78105 28.5523C9.28115 29.0524 9.95942 29.3333 10.6667 29.3333H12" stroke="#3F97FF" stroke-width="2" stroke-linecap="round" stroke-linejoin="round"/>
</svg>
