<svg width="17" height="16" viewBox="0 0 17 16" fill="none" xmlns="http://www.w3.org/2000/svg">
<path d="M10.5603 13.779C10.6869 13.779 10.8136 13.7324 10.9136 13.6324C11.1069 13.439 11.1069 13.119 10.9136 12.9257L6.56693 8.57904C6.24693 8.25904 6.24693 7.73904 6.56693 7.41904L10.9136 3.07237C11.1069 2.87904 11.1069 2.55904 10.9136 2.3657C10.7203 2.17237 10.4003 2.17237 10.2069 2.3657L5.86026 6.71237C5.52026 7.05237 5.32693 7.51237 5.32693 7.99904C5.32693 8.4857 5.51359 8.9457 5.86026 9.2857L10.2069 13.6324C10.3069 13.7257 10.4336 13.779 10.5603 13.779Z" fill="#303030"/>
</svg>
