<svg width="12" height="12" viewBox="0 0 12 12" fill="none" xmlns="http://www.w3.org/2000/svg">
<path fill-rule="evenodd" clip-rule="evenodd" d="M10.379 11.4415C10.669 11.7315 11.1498 11.7315 11.4397 11.4415C11.7296 11.1516 11.7296 10.6708 11.4397 10.3809L7.01976 5.96094L11.4397 1.54099C11.7296 1.25108 11.7296 0.770245 11.4397 0.480331C11.1498 0.190418 10.669 0.190418 10.379 0.480331L5.9591 4.90028L1.54021 0.481389C1.2503 0.191475 0.769462 0.191475 0.479549 0.481389C0.189635 0.771302 0.189635 1.25214 0.479549 1.54205L4.89844 5.96094L0.479549 10.3798C0.189635 10.6697 0.189635 11.1506 0.479549 11.4405C0.769462 11.7304 1.2503 11.7304 1.54021 11.4405L5.9591 7.0216L10.379 11.4415Z" fill="#303030"/>
</svg>
