<svg width="21" height="20" viewBox="0 0 21 20" fill="none" xmlns="http://www.w3.org/2000/svg">
<path d="M9.66406 14.1663L11.3307 15.833C11.4949 15.9972 11.6898 16.1274 11.9042 16.2162C12.1187 16.3051 12.3486 16.3508 12.5807 16.3508C12.8129 16.3508 13.0427 16.3051 13.2572 16.2162C13.4717 16.1274 13.6666 15.9972 13.8307 15.833C13.9949 15.6689 14.1251 15.474 14.2139 15.2595C14.3028 15.045 14.3485 14.8152 14.3485 14.583C14.3485 14.3509 14.3028 14.121 14.2139 13.9065C14.1251 13.692 13.9949 13.4972 13.8307 13.333" stroke="#303030" stroke-width="1.66667" stroke-linecap="round" stroke-linejoin="round"/>
<path d="M12.1688 11.6671L14.2521 13.7504C14.5837 14.0819 15.0333 14.2682 15.5021 14.2682C15.971 14.2682 16.4206 14.0819 16.7521 13.7504C17.0837 13.4189 17.2699 12.9693 17.2699 12.5004C17.2699 12.0316 17.0837 11.5819 16.7521 11.2504L13.5188 8.01709C13.0501 7.54892 12.4146 7.28595 11.7521 7.28595C11.0896 7.28595 10.4542 7.54892 9.98548 8.01709L9.25214 8.75042C8.92062 9.08194 8.47098 9.26819 8.00214 9.26819C7.5333 9.26819 7.08366 9.08194 6.75214 8.75042C6.42062 8.4189 6.23438 7.96926 6.23438 7.50042C6.23438 7.03158 6.42062 6.58194 6.75214 6.25042L9.09381 3.90875C9.85401 3.15054 10.8454 2.66755 11.911 2.53623C12.9766 2.40491 14.0556 2.63278 14.9771 3.18375L15.3688 3.41709C15.7236 3.63124 16.1455 3.70552 16.5521 3.62542L18.0021 3.33375" stroke="#303030" stroke-width="1.66667" stroke-linecap="round" stroke-linejoin="round"/>
<path d="M17.9974 2.5L18.8307 11.6667H17.1641" stroke="#303030" stroke-width="1.66667" stroke-linecap="round" stroke-linejoin="round"/>
<path d="M2.9974 2.5L2.16406 11.6667L7.58073 17.0833C7.91225 17.4149 8.36189 17.6011 8.83073 17.6011C9.29957 17.6011 9.74921 17.4149 10.0807 17.0833C10.4122 16.7518 10.5985 16.3022 10.5985 15.8333C10.5985 15.3645 10.4122 14.9149 10.0807 14.5833" stroke="#303030" stroke-width="1.66667" stroke-linecap="round" stroke-linejoin="round"/>
<path d="M3 3.33301H9.66667" stroke="#303030" stroke-width="1.66667" stroke-linecap="round" stroke-linejoin="round"/>
</svg>
