<svg width="16" height="16" viewBox="0 0 16 16" fill="none" xmlns="http://www.w3.org/2000/svg">
<path d="M4.12009 15.166C4.05342 15.166 3.98009 15.1593 3.92009 15.1526L2.47342 14.9526C1.78009 14.8593 1.15342 14.2393 1.04676 13.5326L0.846758 12.0726C0.780091 11.606 0.980091 10.9993 1.31342 10.6593L4.24009 7.73263C3.76676 5.8393 4.31343 3.8393 5.70676 2.4593C7.86676 0.305964 11.3801 0.299298 13.5468 2.4593C14.5934 3.50596 15.1668 4.8993 15.1668 6.3793C15.1668 7.8593 14.5934 9.25263 13.5468 10.2993C12.1468 11.686 10.1534 12.2326 8.27342 11.7526L5.34009 14.6793C5.06009 14.9726 4.56009 15.166 4.12009 15.166ZM9.62009 1.8393C8.45342 1.8393 7.29342 2.2793 6.40676 3.16596C5.20676 4.3593 4.77342 6.10597 5.27342 7.73263C5.32676 7.91263 5.28009 8.0993 5.14676 8.23263L2.01342 11.366C1.90009 11.4793 1.80676 11.7726 1.82676 11.926L2.02676 13.386C2.06676 13.6393 2.34009 13.926 2.59342 13.9593L4.04676 14.1593C4.20676 14.186 4.50009 14.0926 4.61342 13.9793L7.76009 10.8393C7.89342 10.706 8.08676 10.666 8.26009 10.7193C9.86676 11.226 11.6201 10.7926 12.8201 9.59263C13.6734 8.7393 14.1468 7.59263 14.1468 6.3793C14.1468 5.1593 13.6734 4.0193 12.8201 3.16596C11.9534 2.28596 10.7868 1.8393 9.62009 1.8393Z" fill="#A4ABB6"/>
<path d="M6.12737 13.6938C6.0007 13.6938 5.87404 13.6471 5.77404 13.5471L4.2407 12.0138C4.04737 11.8204 4.04737 11.5004 4.2407 11.3071C4.43404 11.1138 4.75404 11.1138 4.94737 11.3071L6.4807 12.8404C6.67404 13.0338 6.67404 13.3538 6.4807 13.5471C6.3807 13.6471 6.25404 13.6938 6.12737 13.6938Z" fill="#A4ABB6"/>
<path d="M9.66602 7.83398C8.83935 7.83398 8.16602 7.16065 8.16602 6.33398C8.16602 5.50732 8.83935 4.83398 9.66602 4.83398C10.4927 4.83398 11.166 5.50732 11.166 6.33398C11.166 7.16065 10.4927 7.83398 9.66602 7.83398ZM9.66602 5.83398C9.39268 5.83398 9.16602 6.06065 9.16602 6.33398C9.16602 6.60732 9.39268 6.83398 9.66602 6.83398C9.93935 6.83398 10.166 6.60732 10.166 6.33398C10.166 6.06065 9.93935 5.83398 9.66602 5.83398Z" fill="#A4ABB6"/>
</svg>
