<svg width="16" height="16" viewBox="0 0 16 16" fill="none" xmlns="http://www.w3.org/2000/svg">
<path d="M10 7.83268C9.72667 7.83268 9.5 7.60602 9.5 7.33268V6.66602C9.5 5.69268 9.26 5.16602 8 5.16602C6.74 5.16602 6.5 5.69268 6.5 6.66602V7.33268C6.5 7.60602 6.27333 7.83268 6 7.83268C5.72667 7.83268 5.5 7.60602 5.5 7.33268V6.66602C5.5 6.04602 5.5 4.16602 8 4.16602C10.5 4.16602 10.5 6.04602 10.5 6.66602V7.33268C10.5 7.60602 10.2733 7.83268 10 7.83268Z" fill="#6E6E6E"/>
<path d="M7.99959 10.2336C7.50626 10.2336 7.09961 9.82693 7.09961 9.3336C7.09961 8.84026 7.50626 8.43359 7.99959 8.43359C8.49293 8.43359 8.89958 8.84026 8.89958 9.3336C8.89958 9.82693 8.49293 10.2336 7.99959 10.2336ZM7.99959 9.2336C7.94626 9.2336 7.89958 9.28026 7.89958 9.3336C7.89958 9.44693 8.09961 9.44693 8.09961 9.3336C8.09961 9.28026 8.05293 9.2336 7.99959 9.2336Z" fill="#6E6E6E"/>
<path d="M9.66699 11.834H6.33366C4.73366 11.834 4.16699 11.2673 4.16699 9.66732V9.00065C4.16699 7.40065 4.73366 6.83398 6.33366 6.83398H9.66699C11.267 6.83398 11.8337 7.40065 11.8337 9.00065V9.66732C11.8337 11.2673 11.267 11.834 9.66699 11.834ZM6.33366 7.83398C5.27366 7.83398 5.16699 7.94065 5.16699 9.00065V9.66732C5.16699 10.7273 5.27366 10.834 6.33366 10.834H9.66699C10.727 10.834 10.8337 10.7273 10.8337 9.66732V9.00065C10.8337 7.94065 10.727 7.83398 9.66699 7.83398H6.33366Z" fill="#6E6E6E"/>
<path d="M7.99967 15.1673C4.04634 15.1673 0.833008 11.954 0.833008 8.00065C0.833008 4.04732 4.04634 0.833984 7.99967 0.833984C11.953 0.833984 15.1663 4.04732 15.1663 8.00065C15.1663 11.954 11.953 15.1673 7.99967 15.1673ZM7.99967 1.83398C4.59967 1.83398 1.83301 4.60065 1.83301 8.00065C1.83301 11.4007 4.59967 14.1673 7.99967 14.1673C11.3997 14.1673 14.1663 11.4007 14.1663 8.00065C14.1663 4.60065 11.3997 1.83398 7.99967 1.83398Z" fill="#6E6E6E"/>
</svg>
