<svg width="18" height="18" viewBox="0 0 18 18" fill="none" xmlns="http://www.w3.org/2000/svg">
<path d="M13.9572 5.00975C13.6497 5.00975 13.3947 4.75475 13.3947 4.44725V3.31475C13.3947 2.86475 13.0272 2.48975 12.5697 2.48975H2.87219C2.42219 2.48975 2.04719 2.85725 2.04719 3.31475V4.44725C2.04719 4.75475 1.79219 5.00975 1.48469 5.00975C1.17719 5.00975 0.929688 4.75475 0.929688 4.44725V3.31475C0.929688 2.24225 1.80719 1.36475 2.87969 1.36475H12.5697C13.6422 1.36475 14.5197 2.23475 14.5197 3.31475V4.44725C14.5197 4.75475 14.2647 5.00975 13.9572 5.00975Z" fill="#303030"/>
<path d="M7.72656 14.1372C7.41906 14.1372 7.16406 13.8822 7.16406 13.5747V2.48975C7.16406 2.18225 7.41906 1.92725 7.72656 1.92725C8.03406 1.92725 8.28906 2.18225 8.28906 2.48975V13.5747C8.28906 13.8897 8.03406 14.1372 7.72656 14.1372Z" fill="#303030"/>
<path d="M9.36078 14.1377H5.17578C4.86828 14.1377 4.61328 13.8827 4.61328 13.5752C4.61328 13.2677 4.86828 13.0127 5.17578 13.0127H9.36078C9.66828 13.0127 9.92328 13.2677 9.92328 13.5752C9.92328 13.8827 9.66828 14.1377 9.36078 14.1377Z" fill="#303030"/>
<path d="M16.5073 9.90006C16.1998 9.90006 15.9448 9.64506 15.9448 9.33756V8.73756C15.9448 8.50506 15.7498 8.31006 15.5173 8.31006H10.2598C9.95227 8.31006 9.69727 8.05506 9.69727 7.74756C9.69727 7.44006 9.95227 7.18506 10.2598 7.18506H15.5173C16.3723 7.18506 17.0698 7.88256 17.0698 8.73756V9.33756C17.0698 9.65256 16.8223 9.90006 16.5073 9.90006Z" fill="#303030"/>
<path d="M12.0605 16.6348C11.753 16.6348 11.498 16.3798 11.498 16.0723V8.15234C11.498 7.84484 11.753 7.58984 12.0605 7.58984C12.368 7.58984 12.623 7.84484 12.623 8.15234V16.0723C12.623 16.3798 12.368 16.6348 12.0605 16.6348Z" fill="#303030"/>
<path d="M13.6651 16.6353H10.4551C10.1476 16.6353 9.89258 16.3803 9.89258 16.0728C9.89258 15.7653 10.1476 15.5103 10.4551 15.5103H13.6651C13.9726 15.5103 14.2276 15.7653 14.2276 16.0728C14.2276 16.3803 13.9726 16.6353 13.6651 16.6353Z" fill="#303030"/>
</svg>
