<svg width="7" height="7" viewBox="0 0 7 7" fill="none" xmlns="http://www.w3.org/2000/svg">
<path d="M3.20078 6.04219C1.68618 6.04219 0.455078 4.81109 0.455078 3.29648C0.455078 1.78188 1.68618 0.550781 3.20078 0.550781C4.71539 0.550781 5.94649 1.78188 5.94649 3.29648C5.94649 4.81109 4.71539 6.04219 3.20078 6.04219ZM3.20078 0.933903C1.89817 0.933903 0.8382 1.99387 0.8382 3.29648C0.8382 4.5991 1.89817 5.65907 3.20078 5.65907C4.5034 5.65907 5.56336 4.5991 5.56336 3.29648C5.56336 1.99387 4.5034 0.933903 3.20078 0.933903Z" fill="black"/>
<path d="M2.83953 4.21154C2.78844 4.21154 2.73991 4.19111 2.70416 4.15535L1.98133 3.43253C1.90726 3.35846 1.90726 3.23586 1.98133 3.16179C2.0554 3.08772 2.178 3.08772 2.25207 3.16179L2.83953 3.74924L4.15236 2.43641C4.22643 2.36234 4.34902 2.36234 4.42309 2.43641C4.49716 2.51048 4.49716 2.63308 4.42309 2.70715L2.9749 4.15535C2.93914 4.19111 2.89061 4.21154 2.83953 4.21154Z" fill="black"/>
</svg>
