<svg width="540" height="70" viewBox="0 0 540 70" fill="none" xmlns="http://www.w3.org/2000/svg">
<mask id="path-1-inside-1_1107_41718" fill="white">
<path fill-rule="evenodd" clip-rule="evenodd" d="M0 0H540V6C537.239 6 535 8.23858 535 11C535 13.7614 537.239 16 540 16V22C537.239 22 535 24.2386 535 27C535 29.7614 537.239 32 540 32V38C537.239 38 535 40.2386 535 43C535 45.7614 537.239 48 540 48V54C537.239 54 535 56.2386 535 59C535 61.7614 537.239 64 540 64V70H0V0Z"/>
</mask>
<path fill-rule="evenodd" clip-rule="evenodd" d="M0 0H540V6C537.239 6 535 8.23858 535 11C535 13.7614 537.239 16 540 16V22C537.239 22 535 24.2386 535 27C535 29.7614 537.239 32 540 32V38C537.239 38 535 40.2386 535 43C535 45.7614 537.239 48 540 48V54C537.239 54 535 56.2386 535 59C535 61.7614 537.239 64 540 64V70H0V0Z" fill="#F7FAFE"/>
<path d="M540 0H540.5V-0.5H540V0ZM0 0V-0.5H-0.5V0H0ZM540 6V6.5H540.5V6H540ZM540 16H540.5V15.5H540V16ZM540 22V22.5H540.5V22H540ZM540 32H540.5V31.5H540V32ZM540 38V38.5H540.5V38H540ZM540 48H540.5V47.5H540V48ZM540 54V54.5H540.5V54H540ZM540 64H540.5V63.5H540V64ZM540 70V70.5H540.5V70H540ZM0 70H-0.5V70.5H0V70ZM540 -0.5H0V0.5H540V-0.5ZM540.5 6V0H539.5V6H540.5ZM535.5 11C535.5 8.51472 537.515 6.5 540 6.5V5.5C536.962 5.5 534.5 7.96243 534.5 11H535.5ZM540 15.5C537.515 15.5 535.5 13.4853 535.5 11H534.5C534.5 14.0376 536.962 16.5 540 16.5V15.5ZM540.5 22V16H539.5V22H540.5ZM535.5 27C535.5 24.5147 537.515 22.5 540 22.5V21.5C536.962 21.5 534.5 23.9624 534.5 27H535.5ZM540 31.5C537.515 31.5 535.5 29.4853 535.5 27H534.5C534.5 30.0376 536.962 32.5 540 32.5V31.5ZM540.5 38V32H539.5V38H540.5ZM535.5 43C535.5 40.5147 537.515 38.5 540 38.5V37.5C536.962 37.5 534.5 39.9624 534.5 43H535.5ZM540 47.5C537.515 47.5 535.5 45.4853 535.5 43H534.5C534.5 46.0376 536.962 48.5 540 48.5V47.5ZM540.5 54V48H539.5V54H540.5ZM535.5 59C535.5 56.5147 537.515 54.5 540 54.5V53.5C536.962 53.5 534.5 55.9624 534.5 59H535.5ZM540 63.5C537.515 63.5 535.5 61.4853 535.5 59H534.5C534.5 62.0376 536.962 64.5 540 64.5V63.5ZM540.5 70V64H539.5V70H540.5ZM0 70.5H540V69.5H0V70.5ZM-0.5 0V70H0.5V0H-0.5Z" fill="#CDD2D9" mask="url(#path-1-inside-1_1107_41718)"/>
</svg>
