<svg width="17" height="17" viewBox="0 0 17 17" fill="none" xmlns="http://www.w3.org/2000/svg">
<path d="M7.72749 10.7246C7.58709 10.7246 7.45371 10.6685 7.35543 10.5702L5.65659 8.87134C5.45301 8.66776 5.45301 8.3308 5.65659 8.12722C5.86017 7.92364 6.19713 7.92364 6.40071 8.12722L7.72749 9.454L10.7461 6.4354C10.9497 6.23182 11.2866 6.23182 11.4902 6.4354C11.6938 6.63898 11.6938 6.97594 11.4902 7.17952L8.09955 10.5702C8.00127 10.6685 7.86789 10.7246 7.72749 10.7246Z" fill="white"/>
<path d="M8.58205 16.0466C8.13979 16.0466 7.69753 15.8992 7.35355 15.6044L6.24439 14.6496C6.13207 14.5514 5.85127 14.4531 5.70385 14.4531H4.49641C3.45745 14.4531 2.61505 13.6107 2.61505 12.5717V11.3713C2.61505 11.2239 2.51677 10.9501 2.41849 10.8378L1.47079 9.72159C0.895153 9.04065 0.895153 7.96659 1.47079 7.28565L2.41849 6.16947C2.51677 6.05715 2.61505 5.78337 2.61505 5.63595V4.42851C2.61505 3.38955 3.45745 2.54715 4.49641 2.54715H5.71087C5.85829 2.54715 6.13909 2.44185 6.25141 2.35059L7.36057 1.39587C8.04853 0.806193 9.12259 0.806193 9.81055 1.39587L10.9197 2.35059C11.032 2.44887 11.3128 2.54715 11.4603 2.54715H12.6537C13.6926 2.54715 14.535 3.38955 14.535 4.42851V5.62191C14.535 5.76933 14.6403 6.05013 14.7386 6.16245L15.6933 7.27161C16.283 7.95957 16.283 9.03363 15.6933 9.72159L14.7386 10.8308C14.6403 10.9431 14.535 11.2239 14.535 11.3713V12.5647C14.535 13.6037 13.6926 14.4461 12.6537 14.4461H11.4603C11.3128 14.4461 11.032 14.5514 10.9197 14.6426L9.81055 15.5973C9.46657 15.8992 9.02431 16.0466 8.58205 16.0466ZM4.49641 3.60015C4.04011 3.60015 3.66805 3.97221 3.66805 4.42851V5.62893C3.66805 6.02907 3.47851 6.54153 3.21877 6.84339L2.27107 7.95957C2.02537 8.24739 2.02537 8.74581 2.27107 9.03363L3.21877 10.1498C3.47851 10.4587 3.66805 10.9641 3.66805 11.3643V12.5647C3.66805 13.021 4.04011 13.3931 4.49641 13.3931H5.71087C6.11803 13.3931 6.63049 13.5826 6.93937 13.8494L8.04853 14.8041C8.33635 15.0498 8.84179 15.0498 9.12961 14.8041L10.2388 13.8494C10.5477 13.5896 11.0601 13.3931 11.4673 13.3931H12.6607C13.117 13.3931 13.489 13.021 13.489 12.5647V11.3713C13.489 10.9641 13.6786 10.4517 13.9453 10.1428L14.9001 9.03363C15.1458 8.74581 15.1458 8.24037 14.9001 7.95255L13.9453 6.84339C13.6786 6.53451 13.489 6.02205 13.489 5.61489V4.42851C13.489 3.97221 13.117 3.60015 12.6607 3.60015H11.4673C11.0601 3.60015 10.5477 3.41061 10.2388 3.14385L9.12961 2.18913C8.84179 1.94343 8.33635 1.94343 8.04853 2.18913L6.93937 3.15087C6.63049 3.41061 6.11101 3.60015 5.71087 3.60015H4.49641Z" fill="white"/>
</svg>
