<svg width="25" height="24" viewBox="0 0 25 24" fill="none" xmlns="http://www.w3.org/2000/svg">
<path d="M22.1054 10.7386L20.7233 9.15859C20.459 8.85859 20.2456 8.29859 20.2456 7.89859V6.19859C20.2456 5.13859 19.3615 4.26859 18.2843 4.26859H16.5566C16.1603 4.26859 15.581 4.05859 15.2761 3.79859L13.6704 2.43859C12.9692 1.84859 11.8208 1.84859 11.1095 2.43859L9.51393 3.80859C9.20905 4.05859 8.62978 4.26859 8.23344 4.26859H6.47531C5.39807 4.26859 4.51393 5.13859 4.51393 6.19859V7.90859C4.51393 8.29859 4.30051 8.85859 4.04645 9.15859L2.6745 10.7486C2.08506 11.4386 2.08506 12.5586 2.6745 13.2486L4.04645 14.8386C4.30051 15.1386 4.51393 15.6986 4.51393 16.0886V17.7986C4.51393 18.8586 5.39807 19.7286 6.47531 19.7286H8.23344C8.62978 19.7286 9.20905 19.9386 9.51393 20.1986L11.1196 21.5586C11.8208 22.1486 12.9692 22.1486 13.6806 21.5586L15.2863 20.1986C15.5912 19.9386 16.1603 19.7286 16.5668 19.7286H18.2944C19.3716 19.7286 20.2558 18.8586 20.2558 17.7986V16.0986C20.2558 15.7086 20.4692 15.1386 20.7334 14.8386L22.1156 13.2586C22.705 12.5686 22.705 11.4286 22.1054 10.7386ZM16.6176 10.1086L11.709 14.9386C11.5668 15.0786 11.3737 15.1586 11.1704 15.1586C10.9672 15.1586 10.7741 15.0786 10.6318 14.9386L8.17246 12.5186C7.87775 12.2286 7.87775 11.7486 8.17246 11.4586C8.46718 11.1686 8.95498 11.1686 9.2497 11.4586L11.1704 13.3486L15.5403 9.04859C15.8351 8.75859 16.3229 8.75859 16.6176 9.04859C16.9123 9.33859 16.9123 9.81859 16.6176 10.1086Z" fill="#FFDF7C"/>
</svg>
