<svg width="375" height="475" viewBox="0 0 375 475" fill="none" xmlns="http://www.w3.org/2000/svg">
<path fill-rule="evenodd" clip-rule="evenodd" d="M441 178C441 282.382 326.833 367 186 367C45.1674 367 -69 282.382 -69 178C-69 73.6182 45.1674 -11 186 -11C326.833 -11 441 73.6182 441 178ZM79 381C79 402.539 55.4949 420 26.5 420C-2.49495 420 -26 402.539 -26 381C-26 359.461 -2.49495 342 26.5 342C55.4949 342 79 359.461 79 381ZM-11 475C2.25484 475 13 466.941 13 457C13 447.059 2.25484 439 -11 439C-24.2548 439 -35 447.059 -35 457C-35 466.941 -24.2548 475 -11 475Z" fill="#FAE7E3"/>
</svg>
