<svg width="25" height="24" viewBox="0 0 25 24" fill="none" xmlns="http://www.w3.org/2000/svg">
<path d="M17.4983 21H10.7783C9.15828 21 7.60828 20.31 6.52828 19.12L2.99828 15.24C1.31828 13.4 1.31828 10.62 2.99828 8.77L6.52828 4.89C7.60828 3.69 9.15828 3 10.7783 3H17.4983C20.6683 3 23.2483 5.58 23.2483 8.75V15.25C23.2483 18.42 20.6683 21 17.4983 21ZM10.7783 4.5C9.58828 4.5 8.43828 5.01 7.63828 5.89L4.09828 9.78C2.94828 11.05 2.94828 12.96 4.09828 14.23L7.62828 18.11C8.42828 18.99 9.57828 19.5 10.7683 19.5H17.4983C19.8383 19.5 21.7483 17.59 21.7483 15.25V8.75C21.7483 6.41 19.8383 4.5 17.4983 4.5H10.7783Z" fill="#303030"/>
<path d="M16.5 15.22C16.31 15.22 16.12 15.15 15.97 15L11.03 10.05C10.74 9.75996 10.74 9.27996 11.03 8.98996C11.32 8.69996 11.8 8.69996 12.09 8.98996L17.03 13.94C17.32 14.23 17.32 14.71 17.03 15C16.88 15.15 16.69 15.22 16.5 15.22Z" fill="#303030"/>
<path d="M11.56 15.2202C11.37 15.2202 11.18 15.1502 11.03 15.0002C10.74 14.7102 10.74 14.2302 11.03 13.9402L15.97 9.00021C16.26 8.71021 16.74 8.71021 17.03 9.00021C17.32 9.29021 17.32 9.77022 17.03 10.0602L12.09 15.0002C11.94 15.1502 11.75 15.2202 11.56 15.2202Z" fill="#303030"/>
</svg>
