<svg width="69" height="26" viewBox="0 0 69 26" fill="none" xmlns="http://www.w3.org/2000/svg">
<path fill-rule="evenodd" clip-rule="evenodd" d="M68.6464 13.9786H65.0755C63.9979 13.9786 63.2151 14.2359 62.6607 14.636V13.9786H57.379C56.5343 13.9786 55.5429 14.1874 55.074 14.636V13.9786H45.6421V14.636C44.8915 14.0961 43.6249 13.9786 43.0403 13.9786H36.819V14.636C36.2251 14.0626 34.9045 13.9786 34.0996 13.9786H27.1369L25.5435 15.6978L24.0513 13.9786H13.6504V25.2109H23.8555L25.4973 23.4646L27.0438 25.2109L33.3343 25.2165V22.5742H33.9528C34.7874 22.5871 35.7718 22.5536 36.6403 22.1793V25.2107H41.8288V22.2832H42.0791C42.3985 22.2832 42.4299 22.2963 42.4299 22.6145V25.2105H58.1917C59.1924 25.2105 60.2384 24.9551 60.8176 24.4917V25.2105H65.8172C66.8575 25.2105 67.8736 25.0651 68.6466 24.6927C68.6466 -36.7628 68.6464 39.7097 68.6464 13.9786Z" fill="#006FCF"/>
<path fill-rule="evenodd" clip-rule="evenodd" d="M3.29693 11.3574L4.04027 9.56978H5.70444L6.44583 11.3574H12.9323V9.9907L13.5113 11.3632H16.8786L17.4576 9.97031V11.3574H33.5778L33.5702 8.42305H33.8821C34.1005 8.43058 34.1643 8.45072 34.1643 8.81023V11.3574H42.5017V10.6743C43.1742 11.0335 44.2202 11.3574 45.5965 11.3574H49.1041L49.8547 9.56978H51.5189L52.253 11.3574H59.0121V9.65935L60.0357 11.3574H65.4521V0.132812H60.0917V1.45844L59.3411 0.132812H53.8407V1.45844L53.1514 0.132812H45.7217C44.478 0.132812 43.3848 0.30589 42.5017 0.788225V0.132812H37.3745V0.788225C36.8126 0.291082 36.0469 0.132812 35.1954 0.132812H16.464L15.2071 3.03192L13.9164 0.132812H8.0165V1.45844L7.36836 0.132812H2.33665L0 5.46957V11.3574H3.29693Z" fill="#006FCF"/>
<path fill-rule="evenodd" clip-rule="evenodd" d="M34.04 20.9182C35.7266 20.9182 37.4 20.4565 37.4 18.2204C37.4 15.991 35.6796 15.5684 34.1484 15.5684H27.9831L25.5288 18.207L23.1549 15.5684H15.3945V23.6183H23.0373L25.5064 20.9534L27.8823 23.6183H31.6325V20.9182H34.04ZM31.6325 19.2834H34.126C34.8674 19.2834 35.3285 18.9166 35.3285 18.2204C35.3285 17.5164 34.845 17.2334 34.1484 17.2334H31.6325V19.2834ZM22.0605 21.9407H17.3165V20.3391H21.5526V18.6967H17.3165V17.2332H22.154L24.2644 19.579L22.0605 21.9407ZM29.7108 22.8862L26.7484 19.6072L29.7108 16.4323V22.8862Z" fill="white"/>
<path fill-rule="evenodd" clip-rule="evenodd" d="M45.6517 20.5531C45.4871 20.3186 45.136 20.0354 44.7066 19.8773C45.2144 19.6763 46.0739 19.0207 46.0742 17.7358C46.0742 16.8175 45.6912 16.315 45.0822 15.9483C44.449 15.6113 43.7375 15.5684 42.7607 15.5684H38.306V23.6183H40.2448V20.6781H42.3068C43.0107 20.6781 43.4405 20.7471 43.7224 21.0355C44.0453 21.3724 44.0396 21.9871 44.0353 22.4597C44.0348 22.5121 44.0343 22.5628 44.0343 22.6111V23.6183H45.9714V22.0225C45.9636 21.3129 45.9242 20.9461 45.6517 20.5531ZM43.5413 18.8756C43.2832 19.0283 42.964 19.0414 42.5885 19.0414H40.2446V17.2334H42.6204C42.964 17.2334 43.3078 17.2407 43.5413 17.3788C43.7913 17.5092 43.9408 17.7585 43.9408 18.1029C43.9408 18.4474 43.7913 18.7248 43.5413 18.8756Z" fill="white"/>
<path d="M60.9519 19.3727C61.3276 19.7603 61.5289 20.2497 61.5289 21.0782C61.5289 22.8099 60.4437 23.6183 58.4979 23.6183H54.7398V21.8921H58.4828C58.8487 21.8921 59.1083 21.8438 59.2709 21.6928C59.4036 21.5683 59.4988 21.3875 59.4988 21.1678C59.4988 20.9333 59.3958 20.7471 59.2634 20.6354C59.1158 20.5126 58.9123 20.4568 58.5763 20.4568C58.4581 20.4527 58.338 20.4495 58.2167 20.4462C56.4856 20.3993 54.5121 20.3458 54.5121 17.9652C54.5121 16.7976 55.2479 15.5686 57.2707 15.5686H61.1389V17.2819H57.5994C57.2486 17.2819 57.0204 17.295 56.8264 17.4273C56.6151 17.5577 56.5367 17.7511 56.5367 18.0065C56.5367 18.3102 56.7161 18.5167 56.9588 18.6061C57.1624 18.6767 57.381 18.6973 57.7097 18.6973L58.7484 18.7253C59.7958 18.7508 60.5148 18.9314 60.9519 19.3727Z" fill="white"/>
<path d="M68.6484 17.2814H65.1319C64.7808 17.2814 64.5476 17.2945 64.3511 17.4268C64.1475 17.5572 64.0691 17.7506 64.0691 18.006C64.0691 18.3097 64.241 18.5162 64.4911 18.6056C64.6946 18.6762 64.9133 18.6968 65.2346 18.6968L66.2804 18.7248C67.3356 18.7507 68.04 18.9316 68.4695 19.3726C68.5355 19.4245 68.5792 19.4817 68.6236 19.5397L68.6356 19.5554L68.6433 19.5654L68.6484 19.5719V22.5886C68.1797 23.2719 67.2665 23.6183 66.0301 23.6183H62.3039V21.8921H66.015C66.3831 21.8921 66.6407 21.8438 66.7958 21.6928C66.9302 21.5683 67.024 21.3875 67.024 21.1678C67.024 20.9333 66.9302 20.7471 66.7883 20.6354C66.6483 20.5126 66.4445 20.4568 66.1085 20.4568C65.99 20.4528 65.8695 20.4495 65.748 20.4462C64.0107 20.3993 62.0366 20.346 62.0366 17.9652C62.0366 16.7976 62.7801 15.5686 64.8049 15.5686H68.6482L68.6484 17.2814Z" fill="white"/>
<path d="M47.144 15.5684H53.5838V17.2331H49.0655V18.6966H53.4735V20.339H49.0655V21.9407L53.5838 21.948V23.6183H47.144V15.5684Z" fill="white"/>
<path fill-rule="evenodd" clip-rule="evenodd" d="M6.18879 6.29204L4.86816 3.08368L3.55509 6.29204H6.18879ZM35.2819 5.01455C35.0168 5.17501 34.7032 5.18035 34.3275 5.18035H31.9835V3.39277H34.3594C34.6956 3.39277 35.0465 3.40782 35.2744 3.53794C35.5247 3.65518 35.6795 3.90472 35.6795 4.24942C35.6795 4.60116 35.5322 4.8842 35.2819 5.01455ZM52.0035 6.29204L50.6683 3.08368L49.3403 6.29204H52.0035ZM20.8335 9.76477H18.8555L18.8482 3.46165L16.0503 9.76477H14.3562L11.5511 3.45607V9.76477H7.62676L6.88537 7.96967H2.86799L2.11905 9.76477H0.0234375L3.47863 1.7168H6.34533L9.62692 9.33657V1.7168H12.7761L15.3012 7.17638L17.6208 1.7168H20.8332V9.76477H20.8335ZM28.7171 9.76477H22.2715V1.7168H28.7171V3.39271H24.201V4.84336H28.6087V6.49305H24.201V8.10027H28.7171V9.76477ZM37.8051 3.88427C37.8051 5.16742 36.9461 5.83036 36.4455 6.02941C36.8677 6.18962 37.2283 6.47266 37.3999 6.70716C37.6724 7.10744 37.7194 7.46501 37.7194 8.18377V9.76477H35.7732L35.7659 8.74986C35.7659 8.26558 35.8124 7.56914 35.4614 7.18197C35.1794 6.89892 34.7497 6.83751 34.055 6.83751H31.9838V9.76477H30.0545V1.7168H34.4923C35.4784 1.7168 36.2049 1.74277 36.8287 2.10228C37.4391 2.46178 37.8051 2.9866 37.8051 3.88427ZM40.8929 9.76477H38.9241V1.7168H40.8929V9.76477ZM63.733 9.76477H60.9988L57.3415 3.7243V9.76477H53.412L52.6611 7.96967H48.653L47.9245 9.76477H45.6667C44.7289 9.76477 43.5414 9.55796 42.8689 8.87463C42.1908 8.1913 41.838 7.26571 41.838 5.8022C41.838 4.60862 42.0489 3.51748 42.8782 2.65525C43.502 2.01295 44.4788 1.7168 45.8084 1.7168H47.6764V3.44126H45.8476C45.1435 3.44126 44.7459 3.54564 44.3629 3.91801C44.034 4.25688 43.8083 4.89749 43.8083 5.74103C43.8083 6.60326 43.9802 7.22493 44.3388 7.63104C44.6358 7.94953 45.1756 8.04614 45.6835 8.04614H46.5501L49.2695 1.71704H52.1605L55.4273 9.32929V1.71704H58.3651L61.7567 7.32203V1.71704H63.733V9.76477Z" fill="white"/>
</svg>
