<svg width="19" height="18" viewBox="0 0 19 18" fill="none" xmlns="http://www.w3.org/2000/svg">
<path d="M11.4305 2.96211V5.81211H10.3055V2.96211C10.3055 2.75961 10.1255 2.66211 10.0055 2.66211C9.96797 2.66211 9.93047 2.66961 9.89297 2.68461L3.94547 4.92711C3.54797 5.07711 3.29297 5.45211 3.29297 5.87961V6.38211C2.61047 6.89211 2.16797 7.70961 2.16797 8.63211V5.87961C2.16797 4.98711 2.71547 4.19211 3.54797 3.87711L9.50297 1.62711C9.66797 1.56711 9.84047 1.53711 10.0055 1.53711C10.7555 1.53711 11.4305 2.14461 11.4305 2.96211Z" fill="#219653"/>
<path d="M16.4175 10.875V11.625C16.4175 11.8275 16.26 11.9925 16.05 12H14.955C14.5575 12 14.1975 11.7075 14.1675 11.3175C14.145 11.085 14.235 10.8675 14.385 10.7175C14.52 10.575 14.7075 10.5 14.91 10.5H16.0425C16.26 10.5075 16.4175 10.6725 16.4175 10.875Z" fill="#219653"/>
<path d="M4.04297 11.25C3.33797 11.25 2.68547 11.4975 2.16797 11.91C1.47797 12.4575 1.04297 13.305 1.04297 14.25C1.04297 14.8125 1.20047 15.345 1.47797 15.795C1.99547 16.665 2.94797 17.25 4.04297 17.25C4.80047 17.25 5.49047 16.9725 6.01547 16.5C6.24797 16.305 6.45047 16.065 6.60797 15.795C6.88547 15.345 7.04297 14.8125 7.04297 14.25C7.04297 12.5925 5.70047 11.25 4.04297 11.25ZM2.85797 13.845C2.64047 13.6275 2.64047 13.2675 2.85797 13.05C3.08297 12.8325 3.43547 12.8325 3.66047 13.05L4.05047 13.4475L4.42547 13.065C4.65047 12.8475 5.00297 12.8475 5.22797 13.065C5.44547 13.29 5.44547 13.6425 5.22797 13.8675L4.84547 14.2425L5.24297 14.6325C5.46047 14.8575 5.46047 15.21 5.24297 15.435C5.13047 15.54 4.98797 15.5925 4.84547 15.5925C4.70297 15.5925 4.56047 15.54 4.44797 15.435L4.05047 15.0375L3.63797 15.45C3.52547 15.5625 3.38297 15.615 3.24047 15.615C3.09797 15.615 2.95547 15.5625 2.84297 15.45C2.62547 15.2325 2.62547 14.8725 2.84297 14.655L3.25547 14.2425L2.85797 13.845Z" fill="#219653"/>
<path d="M14.903 9.7125H15.668C16.0805 9.7125 16.418 9.375 16.418 8.9625V8.6325C16.418 7.08 15.1505 5.8125 13.598 5.8125H4.98797C4.35047 5.8125 3.76547 6.0225 3.29297 6.3825C2.61047 6.8925 2.16797 7.71 2.16797 8.6325V9.9675C2.16797 10.2525 2.46797 10.4325 2.73797 10.3425C3.15797 10.2 3.60047 10.125 4.04297 10.125C6.31547 10.125 8.16797 11.9775 8.16797 14.25C8.16797 14.79 8.02547 15.3825 7.80047 15.9075C7.68047 16.1775 7.86797 16.5 8.16047 16.5H13.598C15.1505 16.5 16.418 15.2325 16.418 13.68V13.5375C16.418 13.125 16.0805 12.7875 15.668 12.7875H15.0155C14.2955 12.7875 13.6055 12.345 13.418 11.6475C13.268 11.0775 13.448 10.5225 13.823 10.1625C14.1005 9.8775 14.483 9.7125 14.903 9.7125ZM10.793 9.5625H7.04297C6.73547 9.5625 6.48047 9.3075 6.48047 9C6.48047 8.6925 6.73547 8.4375 7.04297 8.4375H10.793C11.1005 8.4375 11.3555 8.6925 11.3555 9C11.3555 9.3075 11.1005 9.5625 10.793 9.5625Z" fill="#219653"/>
</svg>
