<svg width="29" height="35" viewBox="0 0 29 35" fill="none" xmlns="http://www.w3.org/2000/svg">
<path d="M8.18441 33.4923L8.77366 29.7495L7.46108 29.7191H1.19336L5.5491 2.10078C5.56262 2.0174 5.60656 1.93966 5.67079 1.88446C5.73501 1.82925 5.81725 1.79883 5.90288 1.79883H16.4711C19.9796 1.79883 22.4009 2.52892 23.665 3.96994C24.2576 4.64595 24.6351 5.35238 24.8176 6.12979C25.0091 6.9455 25.0125 7.92008 24.8255 9.10873L24.8119 9.19548V9.95712L25.4046 10.2929C25.9037 10.5576 26.3003 10.8607 26.6045 11.2077C27.1115 11.7857 27.4394 12.5203 27.5779 13.3912C27.721 14.2869 27.6737 15.3528 27.4394 16.5595C27.169 17.9475 26.7318 19.1565 26.1414 20.1457C25.5984 21.0572 24.9066 21.8132 24.0852 22.399C23.3011 22.9556 22.3693 23.3781 21.3159 23.6485C20.2951 23.9144 19.1312 24.0485 17.8547 24.0485H17.0322C16.4441 24.0485 15.8729 24.2603 15.4245 24.64C14.9749 25.0276 14.6775 25.5571 14.5862 26.1362L14.5242 26.4731L13.4832 33.0698L13.4359 33.3121C13.4235 33.3887 13.4021 33.427 13.3705 33.4529C13.3423 33.4766 13.3018 33.4923 13.2624 33.4923H8.18441Z" fill="#253B80"/>
<path d="M25.9661 9.28125C25.9346 9.48293 25.8985 9.68911 25.858 9.90092C24.4643 17.0565 19.6962 19.5284 13.6065 19.5284H10.5058C9.76111 19.5284 9.13355 20.0692 9.0175 20.8038L7.43001 30.8718L6.98047 33.7257C6.90498 34.2079 7.27678 34.6428 7.76351 34.6428H13.2628C13.9141 34.6428 14.4673 34.1696 14.5698 33.5274L14.6239 33.248L15.6593 26.6772L15.7258 26.3166C15.8272 25.6722 16.3815 25.199 17.0327 25.199H17.8552C23.1832 25.199 27.3542 23.0358 28.5733 16.7759C29.0825 14.1609 28.8189 11.9774 27.4714 10.4417C27.0635 9.97866 26.5577 9.59447 25.9661 9.28125Z" fill="#179BD7"/>
<path d="M24.5083 8.70142C24.2954 8.63945 24.0757 8.58312 23.8503 8.53242C23.6239 8.48284 23.3918 8.4389 23.1529 8.40059C22.3169 8.26539 21.4009 8.20117 20.4196 8.20117H12.1362C11.9323 8.20117 11.7385 8.24737 11.565 8.33074C11.1831 8.51439 10.8991 8.87605 10.8304 9.31884L9.06828 20.4797L9.01758 20.8053C9.13363 20.0707 9.76119 19.5299 10.5059 19.5299H13.6065C19.6963 19.5299 24.4644 17.0569 25.8581 9.90246C25.8997 9.69064 25.9347 9.48446 25.9662 9.28278C25.6136 9.09576 25.2316 8.93577 24.8204 8.79944C24.719 8.76564 24.6142 8.73297 24.5083 8.70142Z" fill="#222D65"/>
<path d="M10.8299 9.31884C10.8987 8.87605 11.1826 8.51439 11.5645 8.33187C11.7392 8.24849 11.9318 8.2023 12.1358 8.2023H20.4191C21.4004 8.2023 22.3164 8.26652 23.1524 8.40172C23.3913 8.44003 23.6234 8.48397 23.8498 8.53354C24.0752 8.58424 24.2949 8.64058 24.5078 8.70255C24.6137 8.73409 24.7185 8.76677 24.821 8.79944C25.2323 8.93577 25.6142 9.09688 25.9669 9.28279C26.3815 6.63847 25.9635 4.83803 24.5337 3.20773C22.9575 1.41293 20.1126 0.644531 16.4723 0.644531H5.90409C5.16048 0.644531 4.52616 1.18534 4.41124 1.92106L0.00930108 29.8233C-0.0774533 30.3754 0.348432 30.8734 0.905011 30.8734H7.42961L9.06781 20.4797L10.8299 9.31884Z" fill="#253B80"/>
</svg>
