<svg width="19" height="18" viewBox="0 0 19 18" fill="none" xmlns="http://www.w3.org/2000/svg">
<path d="M5.33539 1.5H4.57319C2.28661 1.5 1.52441 2.8425 1.52441 4.5V5.25V15.75C1.52441 16.3725 2.24088 16.725 2.74393 16.35L4.04728 15.39C4.35216 15.165 4.77899 15.195 5.05338 15.465L6.31862 16.7175C6.61588 17.01 7.10368 17.01 7.40094 16.7175L8.68143 15.4575C8.94819 15.195 9.37502 15.165 9.67228 15.39L10.9756 16.35C11.4787 16.7175 12.1951 16.365 12.1951 15.75V3C12.1951 2.175 12.8811 1.5 13.7195 1.5H5.33539ZM4.55033 10.5075C4.13112 10.5075 3.78813 10.17 3.78813 9.7575C3.78813 9.345 4.13112 9.0075 4.55033 9.0075C4.96954 9.0075 5.31252 9.345 5.31252 9.7575C5.31252 10.17 4.96954 10.5075 4.55033 10.5075ZM4.55033 7.5075C4.13112 7.5075 3.78813 7.17 3.78813 6.7575C3.78813 6.345 4.13112 6.0075 4.55033 6.0075C4.96954 6.0075 5.31252 6.345 5.31252 6.7575C5.31252 7.17 4.96954 7.5075 4.55033 7.5075ZM9.14637 10.32H6.85978C6.54728 10.32 6.28813 10.065 6.28813 9.7575C6.28813 9.45 6.54728 9.195 6.85978 9.195H9.14637C9.45887 9.195 9.71801 9.45 9.71801 9.7575C9.71801 10.065 9.45887 10.32 9.14637 10.32ZM9.14637 7.32H6.85978C6.54728 7.32 6.28813 7.065 6.28813 6.7575C6.28813 6.45 6.54728 6.195 6.85978 6.195H9.14637C9.45887 6.195 9.71801 6.45 9.71801 6.7575C9.71801 7.065 9.45887 7.32 9.14637 7.32Z" fill="#219653"/>
<path d="M13.7273 1.5V2.625C14.2304 2.625 14.7106 2.8275 15.0612 3.165C15.427 3.5325 15.6252 4.005 15.6252 4.5V6.315C15.6252 6.87 15.3737 7.125 14.802 7.125H13.3386V3.0075C13.3386 2.7975 13.5139 2.625 13.7273 2.625V1.5ZM13.7273 1.5C12.8813 1.5 12.1953 2.175 12.1953 3.0075V8.25H14.802C16.0063 8.25 16.7685 7.5 16.7685 6.315V4.5C16.7685 3.675 16.4255 2.925 15.8767 2.3775C15.3203 1.8375 14.5657 1.5075 13.7273 1.5C13.7273 1.5 13.7349 1.5 13.7273 1.5Z" fill="#219653"/>
</svg>
