<svg width="60" height="20" viewBox="0 0 60 20" fill="none" xmlns="http://www.w3.org/2000/svg">
<path d="M47.7121 1.9618L52.7077 1.09448V19.7935H47.7121V1.9618ZM55.0044 1.9618V19.7832H60V1.09448L55.0044 1.9618ZM40.6103 19.7832H45.6059V6.11255H40.6103V19.7832ZM7.59922 8.04337C6.96419 8.00207 5.50362 7.90914 5.50362 6.62881C5.50362 5.08002 7.60981 5.08002 8.39301 5.08002C9.7795 5.08002 11.5788 5.48271 12.8594 5.85441C12.8594 5.85441 13.5791 6.10222 14.1824 6.35003L14.2353 6.36035V6.30872V2.127L14.1612 2.10635C12.6477 1.59009 10.8908 1.09448 7.62039 1.09448C1.98977 1.09448 0 4.2953 0 7.03149C0 8.61126 0.698536 12.3283 7.14412 12.762C7.69448 12.793 9.14447 12.8756 9.14447 14.2075C9.14447 15.302 7.95908 15.9525 5.95872 15.9525C3.76786 15.9525 1.65108 15.4053 0.359852 14.889V19.2566C2.28612 19.7522 4.4664 20 7.01711 20C12.5207 20 14.9868 16.9747 14.9868 13.9701C14.9868 10.5627 12.235 8.35312 7.59922 8.04337ZM37.795 5.91637C33.1805 6.06092 30.8414 8.08467 30.8414 12.1012V19.7935H35.8793V13.5157C35.8793 11.11 36.1969 10.0774 39.1286 9.98451V5.97832C38.6206 5.88539 37.795 5.91637 37.795 5.91637ZM24.2477 6.10222C24.1418 6.37068 23.3375 8.58028 21.4006 10.8622V1.09448L16.2463 2.0857V19.7832H21.4006V14.3108C22.8929 16.4997 23.6338 19.7832 23.6338 19.7832H29.8042C29.1903 17.3051 26.5232 12.7414 26.5232 12.7414C28.9152 9.77801 29.9735 6.61848 30.1429 6.09189H24.2477V6.10222ZM43.0976 4.80124C44.4523 4.80124 45.5636 3.72741 45.5636 2.40578C45.5636 1.08415 44.4629 0 43.0976 0C41.7428 0 40.6421 1.07383 40.6421 2.40578C40.6421 3.72741 41.7428 4.80124 43.0976 4.80124Z" fill="url(#paint0_linear_2608_1965)"/>
<defs>
<linearGradient id="paint0_linear_2608_1965" x1="0" y1="9.94618" x2="60" y2="9.94617" gradientUnits="userSpaceOnUse">
<stop stop-color="#7E3164"/>
<stop offset="1" stop-color="#4B2954"/>
</linearGradient>
</defs>
</svg>
