<svg width="160" height="56" viewBox="0 0 160 56" fill="none" xmlns="http://www.w3.org/2000/svg">
<g filter="url(#filter0_d_831_15132)">
<mask id="path-1-inside-1_831_15132" fill="white">
<path fill-rule="evenodd" clip-rule="evenodd" d="M13.9029 3C8.43368 3 4 7.43369 4 12.9029V46.3048H94.8737C95.243 46.8802 95.5736 47.4672 95.7463 47.9477C96.2834 49.4425 96.695 51.83 96.695 51.83C96.695 51.83 99.0387 48.9842 99.6565 47.6471C99.9017 47.1165 100.097 46.6558 100.239 46.3048H156V12.9029C156 7.43368 151.566 3 146.097 3H13.9029Z"/>
</mask>
<path fill-rule="evenodd" clip-rule="evenodd" d="M13.9029 3C8.43368 3 4 7.43369 4 12.9029V46.3048H94.8737C95.243 46.8802 95.5736 47.4672 95.7463 47.9477C96.2834 49.4425 96.695 51.83 96.695 51.83C96.695 51.83 99.0387 48.9842 99.6565 47.6471C99.9017 47.1165 100.097 46.6558 100.239 46.3048H156V12.9029C156 7.43368 151.566 3 146.097 3H13.9029Z" fill="white"/>
<path d="M4 46.3048H3.79369V46.5112H4V46.3048ZM94.8737 46.3048L95.0473 46.1934L94.9864 46.0985H94.8737V46.3048ZM95.7463 47.9477L95.9405 47.8779L95.7463 47.9477ZM96.695 51.83L96.4917 51.865L96.5682 52.3085L96.8543 51.9611L96.695 51.83ZM99.6565 47.6471L99.4692 47.5606L99.6565 47.6471ZM100.239 46.3048V46.0985H100.101L100.048 46.2273L100.239 46.3048ZM156 46.3048V46.5112H156.206V46.3048H156ZM4.20631 12.9029C4.20631 7.54763 8.54763 3.20631 13.9029 3.20631V2.79369C8.31974 2.79369 3.79369 7.31975 3.79369 12.9029H4.20631ZM4.20631 46.3048V12.9029H3.79369V46.3048H4.20631ZM94.8737 46.0985H4V46.5112H94.8737V46.0985ZM95.9405 47.8779C95.7596 47.3747 95.4185 46.7718 95.0473 46.1934L94.7001 46.4163C95.0674 46.9886 95.3876 47.5596 95.5521 48.0175L95.9405 47.8779ZM96.695 51.83C96.8983 51.7949 96.8983 51.7949 96.8983 51.7949C96.8983 51.7948 96.8983 51.7948 96.8983 51.7948C96.8983 51.7947 96.8983 51.7945 96.8982 51.7944C96.8982 51.7941 96.8981 51.7936 96.898 51.793C96.8978 51.7918 96.8975 51.79 96.8971 51.7876C96.8963 51.783 96.8951 51.776 96.8935 51.767C96.8903 51.7489 96.8855 51.7222 96.8793 51.6878C96.8669 51.619 96.8486 51.5193 96.825 51.395C96.7778 51.1465 96.7092 50.7996 96.6237 50.4056C96.4532 49.6201 96.2138 48.6386 95.9405 47.8779L95.5521 48.0175C95.8159 48.7516 96.0508 49.7112 96.2205 50.4931C96.305 50.8829 96.3729 51.2262 96.4196 51.4721C96.443 51.595 96.4611 51.6935 96.4733 51.7611C96.4794 51.7949 96.484 51.821 96.4871 51.8386C96.4886 51.8474 96.4898 51.8541 96.4906 51.8585C96.491 51.8607 96.4913 51.8624 96.4914 51.8635C96.4915 51.864 96.4916 51.8644 96.4917 51.8647C96.4917 51.8648 96.4917 51.8649 96.4917 51.865C96.4917 51.865 96.4917 51.865 96.4917 51.865C96.4917 51.865 96.4917 51.865 96.695 51.83ZM99.4692 47.5606C99.1712 48.2057 98.4448 49.2341 97.7794 50.1156C97.4492 50.5531 97.1382 50.9491 96.9096 51.2358C96.7953 51.3791 96.7017 51.495 96.6368 51.575C96.6043 51.615 96.579 51.6461 96.5618 51.667C96.5532 51.6775 96.5467 51.6855 96.5423 51.6909C96.5401 51.6935 96.5385 51.6955 96.5374 51.6969C96.5368 51.6975 96.5364 51.698 96.5361 51.6983C96.536 51.6985 96.5359 51.6986 96.5359 51.6987C96.5358 51.6987 96.5358 51.6988 96.5358 51.6988C96.5358 51.6988 96.5358 51.6988 96.695 51.83C96.8543 51.9611 96.8543 51.9611 96.8543 51.9611C96.8543 51.961 96.8544 51.961 96.8544 51.961C96.8545 51.9609 96.8546 51.9607 96.8548 51.9605C96.8551 51.9602 96.8555 51.9596 96.8561 51.9589C96.8573 51.9575 96.859 51.9554 96.8612 51.9527C96.8658 51.9471 96.8725 51.939 96.8812 51.9283C96.8987 51.9069 96.9243 51.8755 96.9571 51.8351C97.0227 51.7543 97.1171 51.6374 97.2322 51.493C97.4624 51.2044 97.7758 50.8054 98.1088 50.3642C98.7697 49.4886 99.5241 48.4256 99.8438 47.7337L99.4692 47.5606ZM100.048 46.2273C99.907 46.5756 99.7129 47.0333 99.4692 47.5606L99.8438 47.7337C100.091 47.1997 100.287 46.7359 100.431 46.3824L100.048 46.2273ZM156 46.0985H100.239V46.5112H156V46.0985ZM155.794 12.9029V46.3048H156.206V12.9029H155.794ZM146.097 3.20631C151.452 3.20631 155.794 7.54763 155.794 12.9029H156.206C156.206 7.31974 151.68 2.79369 146.097 2.79369V3.20631ZM13.9029 3.20631H146.097V2.79369H13.9029V3.20631Z" fill="#CDD2D9" mask="url(#path-1-inside-1_831_15132)"/>
</g>
<defs>
<filter id="filter0_d_831_15132" x="0.69903" y="0.524272" width="158.602" height="55.432" filterUnits="userSpaceOnUse" color-interpolation-filters="sRGB">
<feFlood flood-opacity="0" result="BackgroundImageFix"/>
<feColorMatrix in="SourceAlpha" type="matrix" values="0 0 0 0 0 0 0 0 0 0 0 0 0 0 0 0 0 0 127 0" result="hardAlpha"/>
<feOffset dy="0.825243"/>
<feGaussianBlur stdDeviation="1.65049"/>
<feComposite in2="hardAlpha" operator="out"/>
<feColorMatrix type="matrix" values="0 0 0 0 0 0 0 0 0 0 0 0 0 0 0 0 0 0 0.05 0"/>
<feBlend mode="normal" in2="BackgroundImageFix" result="effect1_dropShadow_831_15132"/>
<feBlend mode="normal" in="SourceGraphic" in2="effect1_dropShadow_831_15132" result="shape"/>
</filter>
</defs>
</svg>
