<svg width="17" height="21" viewBox="0 0 17 21" fill="none" xmlns="http://www.w3.org/2000/svg">
<path d="M14.1988 11.1676C14.2091 10.3627 14.4219 9.57348 14.8172 8.87339C15.2126 8.17331 15.7777 7.58511 16.4601 7.16351C16.0266 6.54134 15.4548 6.02932 14.79 5.66812C14.1252 5.30692 13.3857 5.10648 12.6303 5.08273C11.019 4.91274 9.45691 6.05175 8.63579 6.05175C7.7988 6.05175 6.53459 5.0996 5.17324 5.12775C4.29268 5.15634 3.4345 5.41369 2.68233 5.87471C1.93016 6.33573 1.30963 6.98471 0.881225 7.75841C-0.974509 10.9875 0.409704 15.7332 2.18737 18.3434C3.07679 19.6215 4.11624 21.0492 5.47637 20.9986C6.80734 20.9431 7.30443 20.1456 8.911 20.1456C10.5027 20.1456 10.969 20.9986 12.3568 20.9664C13.785 20.9431 14.6848 19.6826 15.543 18.3923C16.182 17.4816 16.6738 16.4751 17 15.41C16.1703 15.0573 15.4622 14.467 14.9641 13.7125C14.4659 12.9581 14.1998 12.073 14.1988 11.1676Z" fill="#303030"/>
<path d="M11.5801 3.36624C12.3588 2.42675 12.7424 1.21919 12.6495 0C11.4598 0.125579 10.3609 0.697021 9.57169 1.60047C9.18581 2.04182 8.89027 2.55529 8.70196 3.11151C8.51365 3.66772 8.43627 4.25579 8.47424 4.84208C9.06929 4.84823 9.65798 4.71861 10.196 4.46297C10.7339 4.20733 11.2072 3.83234 11.5801 3.36624Z" fill="#303030"/>
</svg>