<svg width="64" height="117" viewBox="0 0 64 117" fill="none" xmlns="http://www.w3.org/2000/svg">
<path fill-rule="evenodd" clip-rule="evenodd" d="M26.8368 19.0133C26.8368 19.0133 31.2952 16.8616 35.67 11.6465C40.0457 6.4279 40.6306 0.225586 40.6306 0.225586C40.6306 0.225586 35.8324 2.78027 31.1717 8.33804C26.5139 13.8938 26.8368 19.0134 26.8368 19.0134V19.0133ZM25.4484 14.4565C23.997 21.1089 21.0486 25.0818 21.0486 25.0818L21.0487 25.0817C21.0487 25.0817 18.3823 20.7 19.9265 13.6152C21.4711 6.52984 24.5343 2.03906 24.5343 2.03906C24.5343 2.03906 26.8983 7.80343 25.4484 14.4565ZM15.4698 36.7756C15.4698 36.7756 17.7329 32.3762 18.0827 25.5762C18.4325 18.7757 15.1627 13.4736 15.1627 13.4736C15.1627 13.4736 12.8712 18.401 12.4978 25.643C12.1244 32.8855 15.4698 36.7756 15.4698 36.7756ZM11.5937 35.1385C13.8496 41.5628 13.4243 46.4916 13.4243 46.4916V46.4917C13.4243 46.4917 8.85529 44.1599 6.45288 37.3157C4.05092 30.4753 4.30034 25.0459 4.30034 25.0459C4.30034 25.0459 9.33634 28.7132 11.5937 35.1385ZM12.2024 50.2318C15.2981 56.2854 15.5441 61.2222 15.5448 61.2367C15.5166 61.2267 10.6943 59.5206 7.40283 53.0816C4.10162 46.625 3.61719 41.2119 3.61719 41.2119C3.61719 41.2119 9.1021 44.1694 12.2024 50.2318ZM23.9254 76.1404C23.9254 76.1404 25.8329 71.0357 25.334 63.5545C24.8366 56.0723 20.5742 50.6943 20.5742 50.6943C20.5742 50.6943 18.7053 56.3817 19.2353 64.3514C19.7668 72.3164 23.9253 76.1397 23.9253 76.1397L23.9254 76.1404ZM37.1973 80.5607C40.9602 87.4844 41.3841 93.1957 41.3841 93.1957V93.1964C41.3841 93.1964 35.7323 91.3723 31.7243 83.9982C27.7162 76.6218 27.0001 70.3719 27.0001 70.3719C27.0001 70.3719 33.4338 73.6334 37.1973 80.5607ZM63.1825 101.955L63.1825 101.955L63.1831 101.955L63.1825 101.955ZM63.1825 101.955C63.1894 101.906 63.914 96.6374 55.4729 90.8248C46.9911 84.9865 42.1094 84.8242 42.1094 84.8242C42.1094 84.8242 44.9116 92.0335 51.737 96.2542C57.2834 99.6836 63.1172 101.93 63.1825 101.955ZM51.2453 108.104C61.4851 107.013 63.1831 101.956 63.1831 101.956C63.1831 101.956 56.5703 101.145 50.0175 101.419C43.4634 101.693 36.6367 107.013 36.6367 107.013C36.6367 107.013 41.0055 109.196 51.2453 108.104ZM51.0368 98.2118C51.0368 98.2118 45.8148 95.8564 37.9291 95.8564C30.0436 95.8564 24.1055 99.9518 24.1055 99.9518C24.1055 99.9518 29.9418 102.304 38.3388 102.304C46.7347 102.306 51.0356 98.2119 51.0356 98.2119L51.0368 98.2118ZM37.447 92.4828C37.447 92.4828 32.9218 88.9706 25.2564 87.1259C17.591 85.2797 10.8594 87.8695 10.8594 87.8695C10.8594 87.8695 15.9825 91.5262 24.1466 93.4921C32.308 95.457 37.4474 92.4828 37.4474 92.4828L37.447 92.4828ZM21.4923 76.7451C27.8494 81.4088 30.6662 86.3938 30.6662 86.3938L30.6664 86.394C30.6664 86.394 24.7758 87.1525 18.0066 82.1861C11.239 77.2188 7.92578 71.8691 7.92578 71.8691C7.92578 71.8691 15.1351 72.0814 21.4923 76.7451ZM11.5882 62.171C16.6179 66.7607 18.5787 71.3033 18.5787 71.3033C18.5787 71.3033 13.448 71.4109 8.09238 66.5234C2.73478 61.6354 0.382812 56.7344 0.382812 56.7344C0.382812 56.7344 6.55684 57.5799 11.5882 62.171ZM15.805 54.8958C15.805 54.8958 19.4916 51.596 22.2463 45.3681C25.0011 39.1402 23.8424 33.0195 23.8424 33.0195C23.8424 33.0195 19.9405 36.8065 17.0069 43.4369C14.072 50.0688 15.805 54.8963 15.805 54.8963L15.805 54.8958ZM29.6434 26.5555C24.5901 31.1217 19.8789 32.6373 19.8789 32.6373C19.8789 32.6373 20.2614 27.5235 25.644 22.661C31.0237 17.7979 36.129 15.9268 36.129 15.9268C36.129 15.9268 34.6953 21.9894 29.6434 26.5555ZM52.6211 115.818C52.6211 119.457 63.8932 112.004 63.8932 105.155C63.8932 106.247 61.6152 107.776 59.1074 109.46C56.0367 111.521 52.6214 113.814 52.6211 115.818Z" fill="#E7E5FF"/>
</svg>
