<svg width="19" height="22" viewBox="0 0 19 22" fill="none" xmlns="http://www.w3.org/2000/svg">
<path d="M8.87199 10.529L0.0820312 19.7552C0.0828568 19.7568 0.0828567 19.7593 0.0836823 19.7609C0.353647 20.7627 1.2783 21.5 2.37632 21.5C2.81553 21.5 3.22749 21.3824 3.58084 21.1767L3.60891 21.1603L13.5027 15.5144L8.87199 10.529Z" fill="#EA4335"/>
<path d="M17.764 8.95718L17.7557 8.95147L13.4842 6.50284L8.67188 10.7379L13.5015 15.5127L17.75 13.0886C18.4946 12.6901 19.0007 11.9137 19.0007 11.0188C19.0007 10.1288 18.5021 9.35644 17.764 8.95718Z" fill="#FBBC04"/>
<path d="M0.0809069 2.24385C0.0280697 2.43654 0 2.63902 0 2.84804V19.1515C0 19.3605 0.0280697 19.563 0.0817325 19.7549L9.17303 10.7646L0.0809069 2.24385Z" fill="#4285F4"/>
<path d="M8.93721 11L13.4862 6.50202L3.60396 0.835649C3.24483 0.622547 2.82544 0.500076 2.37715 0.500076C1.27912 0.500076 0.352821 1.23899 0.0828564 2.24163C0.0828564 2.24244 0.0820312 2.24326 0.0820312 2.24408L8.93721 11Z" fill="#34A853"/>
</svg>
