<svg width="64" height="117" viewBox="0 0 64 117" fill="none" xmlns="http://www.w3.org/2000/svg">
<path fill-rule="evenodd" clip-rule="evenodd" d="M37.546 19.0133C37.546 19.0133 33.0876 16.8616 28.7128 11.6465C24.3371 6.4279 23.7522 0.225586 23.7522 0.225586C23.7522 0.225586 28.5504 2.78027 33.2111 8.33804C37.8689 13.8938 37.546 19.0134 37.546 19.0134V19.0133ZM38.9344 14.4565C40.3858 21.1089 43.3342 25.0818 43.3342 25.0818L43.3342 25.0817C43.3342 25.0817 46.0005 20.7 44.4563 13.6152C42.9117 6.52984 39.8485 2.03906 39.8485 2.03906C39.8485 2.03906 37.4845 7.80343 38.9344 14.4565ZM48.9131 36.7756C48.9131 36.7756 46.6499 32.3762 46.3001 25.5762C45.9503 18.7757 49.2201 13.4736 49.2201 13.4736C49.2201 13.4736 51.5116 18.401 51.885 25.643C52.2584 32.8855 48.9131 36.7756 48.9131 36.7756ZM52.7891 35.1385C50.5332 41.5628 50.9585 46.4916 50.9585 46.4916V46.4917C50.9585 46.4917 55.5275 44.1599 57.9299 37.3157C60.3319 30.4753 60.0825 25.0459 60.0825 25.0459C60.0825 25.0459 55.0465 28.7132 52.7891 35.1385ZM52.1805 50.2318C49.0847 56.2854 48.8387 61.2222 48.838 61.2367C48.8662 61.2267 53.6885 59.5206 56.98 53.0816C60.2812 46.625 60.7656 41.2119 60.7656 41.2119C60.7656 41.2119 55.2807 44.1694 52.1805 50.2318ZM40.4574 76.1404C40.4574 76.1404 38.5499 71.0357 39.0488 63.5545C39.5462 56.0723 43.8086 50.6943 43.8086 50.6943C43.8086 50.6943 45.6776 56.3817 45.1475 64.3514C44.616 72.3164 40.4575 76.1397 40.4575 76.1397L40.4574 76.1404ZM27.1856 80.5607C23.4226 87.4844 22.9987 93.1957 22.9987 93.1957V93.1964C22.9987 93.1964 28.6505 91.3723 32.6586 83.9982C36.6666 76.6218 37.3827 70.3719 37.3827 70.3719C37.3827 70.3719 30.9491 73.6334 27.1856 80.5607ZM1.20028 101.955L1.20033 101.955L1.19971 101.955L1.20028 101.955ZM1.20028 101.955C1.19337 101.906 0.468807 96.6374 8.9099 90.8248C17.3917 84.9865 22.2734 84.8242 22.2734 84.8242C22.2734 84.8242 19.4712 92.0335 12.6458 96.2542C7.09945 99.6836 1.26562 101.93 1.20028 101.955ZM13.1375 108.104C2.89767 107.013 1.19974 101.956 1.19974 101.956C1.19974 101.956 7.81249 101.145 14.3653 101.419C20.9194 101.693 27.7461 107.013 27.7461 107.013C27.7461 107.013 23.3773 109.196 13.1375 108.104ZM13.346 98.2118C13.346 98.2118 18.568 95.8564 26.4537 95.8564C34.3392 95.8564 40.2773 99.9518 40.2773 99.9518C40.2773 99.9518 34.441 102.304 26.044 102.304C17.6481 102.306 13.3473 98.2119 13.3473 98.2119L13.346 98.2118ZM26.9359 92.4828C26.9359 92.4828 31.461 88.9706 39.1264 87.1259C46.7918 85.2797 53.5234 87.8695 53.5234 87.8695C53.5234 87.8695 48.4003 91.5262 40.2362 93.4921C32.0748 95.457 26.9354 92.4828 26.9354 92.4828L26.9359 92.4828ZM42.8905 76.7451C36.5334 81.4088 33.7166 86.3938 33.7166 86.3938L33.7164 86.394C33.7164 86.394 39.6071 87.1525 46.3762 82.1861C53.1438 77.2188 56.457 71.8691 56.457 71.8691C56.457 71.8691 49.2477 72.0814 42.8905 76.7451ZM52.7947 62.171C47.7649 66.7607 45.8041 71.3033 45.8041 71.3033C45.8041 71.3033 50.9348 71.4109 56.2904 66.5234C61.648 61.6354 64 56.7344 64 56.7344C64 56.7344 57.826 57.5799 52.7947 62.171ZM48.5778 54.8958C48.5778 54.8958 44.8912 51.596 42.1365 45.3681C39.3818 39.1402 40.5405 33.0195 40.5405 33.0195C40.5405 33.0195 44.4424 36.8065 47.3759 43.4369C50.3108 50.0688 48.5778 54.8963 48.5778 54.8963L48.5778 54.8958ZM34.7394 26.5555C39.7927 31.1217 44.5039 32.6373 44.5039 32.6373C44.5039 32.6373 44.1214 27.5235 38.7388 22.661C33.3591 17.7979 28.2538 15.9268 28.2538 15.9268C28.2538 15.9268 29.6875 21.9894 34.7394 26.5555ZM11.7617 115.818C11.7617 119.457 0.489563 112.004 0.489563 105.155C0.489563 106.247 2.76756 107.776 5.27544 109.46C8.34613 111.521 11.7615 113.814 11.7617 115.818Z" fill="#E7E5FF"/>
</svg>
