<svg width="16" height="16" viewBox="0 0 16 16" fill="none" xmlns="http://www.w3.org/2000/svg">
<path d="M8.09961 12.9C7.82628 12.9 7.59961 12.6733 7.59961 12.4V11C7.59961 10.7267 7.82628 10.5 8.09961 10.5C8.37294 10.5 8.59961 10.7267 8.59961 11V12.4C8.59961 12.6733 8.37294 12.9 8.09961 12.9Z" fill="#303030"/>
<path d="M11.9333 15.1665H4.2666V13.9998C4.2666 12.9865 5.0866 12.1665 6.09993 12.1665H10.0999C11.1133 12.1665 11.9333 12.9865 11.9333 13.9998V15.1665ZM5.2666 14.1665H10.9333V13.9998C10.9333 13.5398 10.5599 13.1665 10.0999 13.1665H6.09993C5.63993 13.1665 5.2666 13.5398 5.2666 13.9998V14.1665Z" fill="#303030"/>
<path d="M12.0996 15.1665H4.09961C3.82628 15.1665 3.59961 14.9398 3.59961 14.6665C3.59961 14.3932 3.82628 14.1665 4.09961 14.1665H12.0996C12.3729 14.1665 12.5996 14.3932 12.5996 14.6665C12.5996 14.9398 12.3729 15.1665 12.0996 15.1665Z" fill="#303030"/>
<path d="M12.2865 8.29305C12.1465 8.29305 12.0065 8.23305 11.9065 8.11971C11.7798 7.97305 11.7465 7.76638 11.8265 7.59305C12.0531 7.07305 12.1665 6.51971 12.1665 5.93971V3.93971C12.1665 3.70638 12.1265 3.47971 12.0465 3.23971C12.0398 3.21971 12.0331 3.19305 12.0265 3.16638C12.0065 3.06638 11.9998 2.96638 11.9998 2.87305C11.9998 2.59971 12.2265 2.37305 12.4998 2.37305H12.8998C14.0931 2.37305 15.0665 3.37305 15.0665 4.60638C15.0665 5.62638 14.6465 6.63305 13.9198 7.35971C13.9065 7.37305 13.8665 7.40638 13.8598 7.41305C13.4665 7.73971 13.0198 8.10638 12.4198 8.27305C12.3731 8.28638 12.3331 8.29305 12.2865 8.29305ZM13.1198 3.39305C13.1531 3.57305 13.1665 3.75971 13.1665 3.93971V5.93971C13.1665 6.21305 13.1465 6.47305 13.1065 6.73971C13.1465 6.70638 13.1798 6.67971 13.2198 6.64638C13.7531 6.11305 14.0665 5.36638 14.0665 4.60638C14.0665 4.00638 13.6598 3.49971 13.1198 3.39305Z" fill="#303030"/>
<path d="M3.72026 8.26657C3.66693 8.26657 3.62026 8.2599 3.56693 8.2399C3.02026 8.06657 2.50693 7.74657 2.08026 7.3199C1.31359 6.47324 0.933594 5.54657 0.933594 4.56657C0.933594 3.35324 1.88693 2.3999 3.10026 2.3999H3.53359C3.70026 2.3999 3.86026 2.48657 3.95359 2.62657C4.04693 2.76657 4.06026 2.94657 3.99359 3.0999C3.88693 3.3399 3.83359 3.61324 3.83359 3.8999V5.8999C3.83359 6.47324 3.94693 7.03324 4.18026 7.56657C4.26026 7.74657 4.22026 7.95324 4.09359 8.0999C3.99359 8.20657 3.86026 8.26657 3.72026 8.26657ZM2.86693 3.4199C2.32693 3.52657 1.93359 3.99324 1.93359 4.56657C1.93359 5.29324 2.22693 5.99324 2.80693 6.63324C2.83359 6.66657 2.86693 6.69324 2.90026 6.7199C2.85359 6.44657 2.83359 6.17324 2.83359 5.8999V3.8999C2.83359 3.7399 2.84693 3.5799 2.86693 3.4199Z" fill="#303030"/>
<path d="M7.99967 11.1668C5.15301 11.1668 2.83301 8.84683 2.83301 6.00016V4.00016C2.83301 2.2535 4.25301 0.833496 5.99967 0.833496H9.99967C11.7463 0.833496 13.1663 2.2535 13.1663 4.00016V6.00016C13.1663 8.84683 10.8463 11.1668 7.99967 11.1668ZM5.99967 1.8335C4.80634 1.8335 3.83301 2.80683 3.83301 4.00016V6.00016C3.83301 8.30016 5.69967 10.1668 7.99967 10.1668C10.2997 10.1668 12.1663 8.30016 12.1663 6.00016V4.00016C12.1663 2.80683 11.193 1.8335 9.99967 1.8335H5.99967Z" fill="#303030"/>
</svg>
