<svg width="350" height="70" viewBox="0 0 350 70" fill="none" xmlns="http://www.w3.org/2000/svg">
<mask id="path-1-inside-1_2608_1789" fill="white">
<path fill-rule="evenodd" clip-rule="evenodd" d="M0 0H350V6.10002C349.677 6.03443 349.342 6 349 6C346.239 6 344 8.23858 344 11C344 13.7614 346.239 16 349 16C349.342 16 349.677 15.9656 350 15.9V22.1C349.677 22.0344 349.342 22 349 22C346.239 22 344 24.2386 344 27C344 29.7614 346.239 32 349 32C349.342 32 349.677 31.9656 350 31.9V38.1C349.677 38.0344 349.342 38 349 38C346.239 38 344 40.2386 344 43C344 45.7614 346.239 48 349 48C349.342 48 349.677 47.9656 350 47.9V54.1C349.677 54.0344 349.342 54 349 54C346.239 54 344 56.2386 344 59C344 61.7614 346.239 64 349 64C349.342 64 349.677 63.9656 350 63.9V70H0V0Z"/>
</mask>
<path fill-rule="evenodd" clip-rule="evenodd" d="M0 0H350V6.10002C349.677 6.03443 349.342 6 349 6C346.239 6 344 8.23858 344 11C344 13.7614 346.239 16 349 16C349.342 16 349.677 15.9656 350 15.9V22.1C349.677 22.0344 349.342 22 349 22C346.239 22 344 24.2386 344 27C344 29.7614 346.239 32 349 32C349.342 32 349.677 31.9656 350 31.9V38.1C349.677 38.0344 349.342 38 349 38C346.239 38 344 40.2386 344 43C344 45.7614 346.239 48 349 48C349.342 48 349.677 47.9656 350 47.9V54.1C349.677 54.0344 349.342 54 349 54C346.239 54 344 56.2386 344 59C344 61.7614 346.239 64 349 64C349.342 64 349.677 63.9656 350 63.9V70H0V0Z" fill="#F7FAFE"/>
<path d="M350 0H350.5V-0.5H350V0ZM0 0V-0.5H-0.5V0H0ZM350 6.10002L349.901 6.59003L350.5 6.71171V6.10002H350ZM350 15.9H350.5V15.2883L349.901 15.41L350 15.9ZM350 22.1L349.901 22.59L350.5 22.7117V22.1H350ZM350 31.9H350.5V31.2883L349.901 31.41L350 31.9ZM350 38.1L349.901 38.59L350.5 38.7117V38.1H350ZM350 47.9H350.5V47.2883L349.901 47.41L350 47.9ZM350 54.1L349.901 54.59L350.5 54.7117V54.1H350ZM350 63.9H350.5V63.2883L349.901 63.41L350 63.9ZM350 70V70.5H350.5V70H350ZM0 70H-0.5V70.5H0V70ZM350 -0.5H0V0.5H350V-0.5ZM350.5 6.10002V0H349.5V6.10002H350.5ZM349 6.5C349.309 6.5 349.61 6.53104 349.901 6.59003L350.099 5.61001C349.744 5.53782 349.376 5.5 349 5.5V6.5ZM344.5 11C344.5 8.51472 346.515 6.5 349 6.5V5.5C345.962 5.5 343.5 7.96243 343.5 11H344.5ZM349 15.5C346.515 15.5 344.5 13.4853 344.5 11H343.5C343.5 14.0376 345.962 16.5 349 16.5V15.5ZM349.901 15.41C349.61 15.469 349.309 15.5 349 15.5V16.5C349.376 16.5 349.744 16.4622 350.099 16.39L349.901 15.41ZM350.5 22.1V15.9H349.5V22.1H350.5ZM349 22.5C349.309 22.5 349.61 22.531 349.901 22.59L350.099 21.61C349.744 21.5378 349.376 21.5 349 21.5V22.5ZM344.5 27C344.5 24.5147 346.515 22.5 349 22.5V21.5C345.962 21.5 343.5 23.9624 343.5 27H344.5ZM349 31.5C346.515 31.5 344.5 29.4853 344.5 27H343.5C343.5 30.0376 345.962 32.5 349 32.5V31.5ZM349.901 31.41C349.61 31.469 349.309 31.5 349 31.5V32.5C349.376 32.5 349.744 32.4622 350.099 32.39L349.901 31.41ZM350.5 38.1V31.9H349.5V38.1H350.5ZM349 38.5C349.309 38.5 349.61 38.531 349.901 38.59L350.099 37.61C349.744 37.5378 349.376 37.5 349 37.5V38.5ZM344.5 43C344.5 40.5147 346.515 38.5 349 38.5V37.5C345.962 37.5 343.5 39.9624 343.5 43H344.5ZM349 47.5C346.515 47.5 344.5 45.4853 344.5 43H343.5C343.5 46.0376 345.962 48.5 349 48.5V47.5ZM349.901 47.41C349.61 47.469 349.309 47.5 349 47.5V48.5C349.376 48.5 349.744 48.4622 350.099 48.39L349.901 47.41ZM350.5 54.1V47.9H349.5V54.1H350.5ZM349 54.5C349.309 54.5 349.61 54.531 349.901 54.59L350.099 53.61C349.744 53.5378 349.376 53.5 349 53.5V54.5ZM344.5 59C344.5 56.5147 346.515 54.5 349 54.5V53.5C345.962 53.5 343.5 55.9624 343.5 59H344.5ZM349 63.5C346.515 63.5 344.5 61.4853 344.5 59H343.5C343.5 62.0376 345.962 64.5 349 64.5V63.5ZM349.901 63.41C349.61 63.469 349.309 63.5 349 63.5V64.5C349.376 64.5 349.744 64.4622 350.099 64.39L349.901 63.41ZM350.5 70V63.9H349.5V70H350.5ZM0 70.5H350V69.5H0V70.5ZM-0.5 0V70H0.5V0H-0.5Z" fill="#CDD2D9" mask="url(#path-1-inside-1_2608_1789)"/>
</svg>
