<svg width="7" height="7" viewBox="0 0 7 7" fill="none" xmlns="http://www.w3.org/2000/svg">
<path d="M3.57292 6.17123C2.23455 6.17123 1.14648 5.08317 1.14648 3.7448C1.14648 2.40642 2.23455 1.31836 3.57292 1.31836C4.91129 1.31836 5.99936 2.40642 5.99936 3.7448C5.99936 5.08317 4.91129 6.17123 3.57292 6.17123ZM3.57292 1.70148C2.44654 1.70148 1.52961 2.61842 1.52961 3.7448C1.52961 4.87117 2.44654 5.78811 3.57292 5.78811C4.6993 5.78811 5.61623 4.87117 5.61623 3.7448C5.61623 2.61842 4.6993 1.70148 3.57292 1.70148Z" fill="#303030"/>
<path d="M3.57242 3.87308C3.4677 3.87308 3.38086 3.78624 3.38086 3.68152V2.40445C3.38086 2.29973 3.4677 2.21289 3.57242 2.21289C3.67714 2.21289 3.76398 2.29973 3.76398 2.40445V3.68152C3.76398 3.78624 3.67714 3.87308 3.57242 3.87308Z" fill="#303030"/>
<path d="M4.33928 1.06476H2.8068C2.70208 1.06476 2.61523 0.977921 2.61523 0.873201C2.61523 0.768481 2.70208 0.681641 2.8068 0.681641H4.33928C4.444 0.681641 4.53084 0.768481 4.53084 0.873201C4.53084 0.977921 4.444 1.06476 4.33928 1.06476Z" fill="#303030"/>
</svg>
