<svg width="96" height="16" viewBox="0 0 96 16" fill="none" xmlns="http://www.w3.org/2000/svg">
<path fill-rule="evenodd" clip-rule="evenodd" d="M7.81073 11.808C6.86967 12.6539 5.67169 13.0237 3.75598 13.0237H2.96105V2.92946H3.75598C5.67169 2.92946 6.82371 3.27445 7.81073 4.16242C8.82958 5.08003 9.44183 6.49556 9.44183 7.9597C9.44183 9.43096 8.82958 10.8969 7.81073 11.808ZM4.34939 0.34375H0V15.6105H4.32287C6.62338 15.6105 8.28394 15.0599 9.73943 13.8447C11.4683 12.4054 12.4943 10.2323 12.4943 7.981C12.4943 3.47417 9.14722 0.34375 4.34939 0.34375Z" fill="#201D1C"/>
<path fill-rule="evenodd" clip-rule="evenodd" d="M13.8594 0.34375H16.8087V15.6105H13.8594V0.34375Z" fill="#201D1C"/>
<path fill-rule="evenodd" clip-rule="evenodd" d="M24.052 6.19733C22.2718 5.54054 21.7515 5.10307 21.7515 4.27794C21.7515 3.31884 22.6813 2.59151 23.96 2.59151C24.8463 2.59151 25.5764 2.94836 26.3542 3.82032L27.894 1.7883C26.6218 0.662042 25.0991 0.0917969 23.4391 0.0917969C20.7532 0.0917969 18.7061 1.97147 18.7061 4.45696C18.7061 6.56722 19.6578 7.63776 22.435 8.65436C23.5959 9.06041 24.1857 9.33782 24.4845 9.52573C25.0761 9.91044 25.3708 10.4617 25.3708 11.0989C25.3708 12.3408 24.3926 13.2537 23.0702 13.2537C21.6625 13.2537 20.5234 12.5447 19.8416 11.2133L17.9336 13.0723C19.2978 15.0829 20.933 15.9816 23.1857 15.9816C26.2582 15.9816 28.4232 13.9122 28.4232 10.965C28.4232 8.5364 27.4191 7.43562 24.052 6.19733" fill="#201D1C"/>
<path fill-rule="evenodd" clip-rule="evenodd" d="M29.3535 7.98224C29.3535 12.4719 32.8567 15.9508 37.3664 15.9508C38.638 15.9508 39.7282 15.6983 41.0705 15.0611V11.5525C39.8843 12.7517 38.8431 13.2247 37.496 13.2247C34.5161 13.2247 32.4053 11.0558 32.4053 7.9609C32.4053 5.03677 34.5845 2.72022 37.3664 2.72022C38.77 2.72022 39.8425 3.22052 41.0705 4.43748V0.93302C39.7736 0.273267 38.7093 0 37.4271 0C32.9433 0 29.3535 3.54714 29.3535 7.98224" fill="#201D1C"/>
<path fill-rule="evenodd" clip-rule="evenodd" d="M65.0474 10.5933L61.0003 0.34375H57.7734L64.2071 15.9958H65.794L72.3525 0.34375H69.151L65.0474 10.5933" fill="#201D1C"/>
<path fill-rule="evenodd" clip-rule="evenodd" d="M73.6973 15.6105H82.0902V13.0237H76.6583V8.90276H81.884V6.3165H76.6583V2.92941H82.0902V0.34375H73.6973V15.6105" fill="#201D1C"/>
<path fill-rule="evenodd" clip-rule="evenodd" d="M87.8697 7.36407H87.0105V2.7464H87.918C89.7671 2.7464 90.7577 3.52707 90.7577 5.01433C90.7577 6.5425 89.7671 7.36407 87.8697 7.36407ZM93.8054 4.84821C93.8054 1.98928 91.8561 0.34375 88.4389 0.34375H84.043V15.6105H87.0105V9.47241H87.3953L91.4843 15.6105H95.1253L90.3505 9.17602C92.5821 8.71722 93.8054 7.18432 93.8054 4.84821Z" fill="#201D1C"/>
<path fill-rule="evenodd" clip-rule="evenodd" d="M58.1916 8.01772C58.1916 12.4131 54.6513 15.9757 50.2801 15.9757C45.9101 15.9757 42.3691 12.4131 42.3691 8.01772C42.3691 3.62173 45.9101 0.0585938 50.2801 0.0585938C54.6513 0.0585938 58.1916 3.62173 58.1916 8.01772" fill="url(#paint0_linear_2608_1876)"/>
<path fill-rule="evenodd" clip-rule="evenodd" d="M58.1916 8.01772C58.1916 12.4131 54.6513 15.9757 50.2801 15.9757C45.9101 15.9757 42.3691 12.4131 42.3691 8.01772C42.3691 3.62173 45.9101 0.0585938 50.2801 0.0585938C54.6513 0.0585938 58.1916 3.62173 58.1916 8.01772" fill="url(#paint1_radial_2608_1876)"/>
<defs>
<linearGradient id="paint0_linear_2608_1876" x1="45.4264" y1="1.56254" x2="55.8621" y2="13.55" gradientUnits="userSpaceOnUse">
<stop stop-color="#E6772F"/>
<stop offset="1" stop-color="#EA9D2C"/>
</linearGradient>
<radialGradient id="paint1_radial_2608_1876" cx="0" cy="0" r="1" gradientUnits="userSpaceOnUse" gradientTransform="translate(52.022 11.3282) rotate(-126.718) scale(10.7209 11.0576)">
<stop stop-color="#EA9D2C" stop-opacity="0"/>
<stop offset="0.328125" stop-color="#DF7624" stop-opacity="0"/>
<stop offset="0.760188" stop-color="#BF4B23" stop-opacity="0.75"/>
<stop offset="1" stop-color="#7D3017"/>
</radialGradient>
</defs>
</svg>
