<svg width="53" height="33" viewBox="0 0 53 33" fill="none" xmlns="http://www.w3.org/2000/svg">
<path d="M33.4301 3.59375H19.1992V29.167H33.4301V3.59375Z" fill="#FF5F00"/>
<path d="M20.1026 16.381C20.1004 13.9182 20.6585 11.487 21.7347 9.27173C22.8109 7.05642 24.377 5.11498 26.3145 3.59441C23.9152 1.70854 21.0338 0.535745 17.9995 0.210074C14.9652 -0.115598 11.9005 0.418995 9.15573 1.75275C6.41091 3.0865 4.09671 5.16559 2.47766 7.7524C0.858599 10.3392 0 13.3293 0 16.381C0 19.4328 0.858599 22.4229 2.47766 25.0097C4.09671 27.5965 6.41091 29.6756 9.15573 31.0094C11.9005 32.3431 14.9652 32.8777 17.9995 32.552C21.0338 32.2264 23.9152 31.0536 26.3145 29.1677C24.377 27.6471 22.8109 25.7057 21.7347 23.4904C20.6585 21.2751 20.1004 18.8439 20.1026 16.381V16.381Z" fill="#EB001B"/>
<path d="M52.6281 16.381C52.6282 19.4327 51.7697 22.4228 50.1508 25.0096C48.5318 27.5965 46.2177 29.6756 43.4729 31.0093C40.7282 32.3431 37.6635 32.8777 34.6293 32.552C31.595 32.2264 28.7136 31.0536 26.3145 29.1677C28.2502 27.6456 29.8151 25.7038 30.8911 23.4889C31.9672 21.2739 32.5262 18.8435 32.5262 16.381C32.5262 13.9185 31.9672 11.4882 30.8911 9.27323C29.8151 7.05827 28.2502 5.11652 26.3145 3.5944C28.7136 1.70853 31.595 0.535738 34.6293 0.210071C37.6635 -0.115597 40.7282 0.419006 43.4729 1.75277C46.2177 3.08654 48.5318 5.16564 50.1508 7.75245C51.7697 10.3393 52.6282 13.3294 52.6281 16.381V16.381Z" fill="#F79E1B"/>
<path d="M51.0765 26.4594V25.9358H51.2877V25.8292H50.75V25.9358H50.9612V26.4594H51.0765ZM52.1204 26.4594V25.8281H51.9556L51.766 26.2623L51.5764 25.8281H51.4115V26.4594H51.5279V25.9832L51.7056 26.3938H51.8263L52.0041 25.9822V26.4594H52.1204Z" fill="#F79E1B"/>
</svg>
