<svg width="65" height="27" viewBox="0 0 65 27" fill="none" xmlns="http://www.w3.org/2000/svg">
<path d="M65 13.9506C65 9.33645 62.7611 5.69559 58.4819 5.69559C54.1847 5.69559 51.5847 9.33645 51.5847 13.9146C51.5847 19.3398 54.6542 22.0794 59.0597 22.0794C61.2083 22.0794 62.8333 21.5928 64.0611 20.9079V17.3031C62.8333 17.9159 61.425 18.2944 59.6375 18.2944C57.8861 18.2944 56.3333 17.6816 56.1347 15.5547H64.9639C64.9639 15.3204 65 14.3832 65 13.9506ZM56.0806 12.2383C56.0806 10.2016 57.3264 9.35447 58.4639 9.35447C59.5653 9.35447 60.7389 10.2016 60.7389 12.2383H56.0806ZM44.6153 5.69559C42.8458 5.69559 41.7083 6.5247 41.0764 7.10147L40.8417 5.98398H36.8694V27L41.3833 26.0447L41.4014 20.9439C42.0514 21.4125 43.0083 22.0794 44.5972 22.0794C47.8292 22.0794 50.7722 19.484 50.7722 13.7704C50.7542 8.54339 47.775 5.69559 44.6153 5.69559ZM43.5319 18.1142C42.4667 18.1142 41.8347 17.7356 41.4014 17.267L41.3833 10.5801C41.8528 10.0574 42.5028 9.69693 43.5319 9.69693C45.175 9.69693 46.3125 11.5354 46.3125 13.8965C46.3125 16.3117 45.1931 18.1142 43.5319 18.1142ZM30.6583 4.63218L35.1903 3.65888V0L30.6583 0.955274V4.63218ZM30.6583 6.002H35.1903V21.773H30.6583V6.002ZM25.8014 7.33578L25.5125 6.002H21.6125V21.773H26.1264V11.0848C27.1917 9.69693 28.9972 9.94927 29.5569 10.1475V6.002C28.9792 5.78571 26.8667 5.38919 25.8014 7.33578ZM16.7736 2.09079L12.3681 3.02804L12.35 17.4653C12.35 20.1328 14.3542 22.0975 17.0264 22.0975C18.5069 22.0975 19.5903 21.8271 20.1861 21.5027V17.8438C19.6083 18.0781 16.7556 18.9072 16.7556 16.2397V9.84112H20.1861V6.002H16.7556L16.7736 2.09079ZM4.56806 10.5801C4.56806 9.87717 5.14583 9.60681 6.10278 9.60681C7.475 9.60681 9.20833 10.0214 10.5806 10.7603V6.5247C9.08194 5.92991 7.60139 5.69559 6.10278 5.69559C2.4375 5.69559 0 7.60614 0 10.7964C0 15.771 6.86111 14.978 6.86111 17.1228C6.86111 17.9519 6.13889 18.2223 5.12778 18.2223C3.62917 18.2223 1.71528 17.6095 0.198611 16.7804V21.0701C1.87778 21.7911 3.575 22.0975 5.12778 22.0975C8.88333 22.0975 11.4653 20.241 11.4653 17.0147C11.4472 11.6435 4.56806 12.5988 4.56806 10.5801Z" fill="#635BFF"/>
</svg>
