<svg width="64" height="21" viewBox="0 0 64 21" fill="none" xmlns="http://www.w3.org/2000/svg">
<path d="M31.6887 0.37093L27.4129 20.6811H22.2411L26.5173 0.37093H31.6887ZM53.446 13.4855L56.1679 5.85859L57.7343 13.4855H53.446ZM59.218 20.6811H64L59.8223 0.37093H55.4112C54.4171 0.37093 53.579 0.956559 53.2081 1.85967L45.4484 20.6811H50.8796L51.9578 17.6479H58.5917L59.218 20.6811ZM45.7177 14.0506C45.7402 8.69035 38.4246 8.39342 38.4736 5.99837C38.4894 5.27067 39.1728 4.49547 40.6664 4.29721C41.4069 4.20037 43.4503 4.12179 45.7667 5.20626L46.6727 0.897631C45.4286 0.440365 43.8276 0 41.8353 0C36.7229 0 33.1265 2.75913 33.0977 6.71328C33.0649 9.63732 35.6668 11.2677 37.623 12.2416C39.6399 13.237 40.3157 13.8751 40.3058 14.7645C40.2919 16.1272 38.6976 16.7307 37.213 16.7535C34.6115 16.7946 33.1036 16.039 31.9018 15.4699L30.963 19.9224C32.1733 20.4852 34.4034 20.9749 36.7125 21C42.1478 21 45.7015 18.2733 45.7177 14.0506ZM24.2989 0.37093L15.9196 20.6811H10.4538L6.33 4.47217C6.08002 3.47541 5.86196 3.10905 5.10168 2.68787C3.85807 2.00174 1.80517 1.35992 0 0.960671L0.122294 0.37093H8.92197C10.0428 0.37093 11.0513 1.12878 11.308 2.44073L13.4864 14.1944L18.8659 0.37093H24.2989Z" fill="#1434CB"/>
</svg>
