<svg width="25" height="24" viewBox="0 0 25 24" fill="none" xmlns="http://www.w3.org/2000/svg">
<path d="M14.9311 18.8201C14.7411 18.8201 14.5511 18.7501 14.4011 18.6001C14.1111 18.3101 14.1111 17.8301 14.4011 17.5401L19.9411 12.0001L14.4011 6.46012C14.1111 6.17012 14.1111 5.69012 14.4011 5.40012C14.6911 5.11012 15.1711 5.11012 15.4611 5.40012L21.5311 11.4701C21.8211 11.7601 21.8211 12.2401 21.5311 12.5301L15.4611 18.6001C15.3111 18.7501 15.1211 18.8201 14.9311 18.8201Z" fill="#303030"/>
<path d="M20.83 12.75H4C3.59 12.75 3.25 12.41 3.25 12C3.25 11.59 3.59 11.25 4 11.25H20.83C21.24 11.25 21.58 11.59 21.58 12C21.58 12.41 21.24 12.75 20.83 12.75Z" fill="#303030"/>
</svg>
