<svg width="18" height="18" viewBox="0 0 18 18" fill="none" xmlns="http://www.w3.org/2000/svg">
<path d="M12.375 6.47272C12.0675 6.47272 11.8125 6.21772 11.8125 5.91022V4.87522C11.8125 4.08772 11.475 3.32272 10.89 2.79022C10.2975 2.25022 9.5325 2.00272 8.7225 2.07772C7.3725 2.20522 6.1875 3.58522 6.1875 5.02522V5.75272C6.1875 6.06022 5.9325 6.31522 5.625 6.31522C5.3175 6.31522 5.0625 6.06022 5.0625 5.75272V5.01772C5.0625 3.00022 6.69 1.14022 8.6175 0.952724C9.7425 0.847724 10.8225 1.20022 11.6475 1.95772C12.465 2.70022 12.9375 3.76522 12.9375 4.87522V5.91022C12.9375 6.21772 12.6825 6.47272 12.375 6.47272Z" fill="#3F97FF"/>
<path d="M11.2489 17.0625H6.74889C3.28389 17.0625 2.63889 15.45 2.47389 13.8825L1.91139 9.39C1.82889 8.58 1.79889 7.4175 2.58639 6.5475C3.26139 5.7975 4.37889 5.4375 5.99889 5.4375H11.9989C13.6264 5.4375 14.7439 5.805 15.4114 6.5475C16.1914 7.4175 16.1689 8.58 16.0864 9.375L15.5239 13.8825C15.3589 15.45 14.7139 17.0625 11.2489 17.0625ZM5.99889 6.5625C4.73139 6.5625 3.86139 6.81 3.41889 7.305C3.05139 7.71 2.93139 8.3325 3.02889 9.2625L3.59139 13.755C3.71889 14.955 4.04889 15.945 6.74889 15.945H11.2489C13.9489 15.945 14.2789 14.9625 14.4064 13.77L14.9689 9.2625C15.0664 8.3475 14.9464 7.725 14.5789 7.3125C14.1364 6.81 13.2664 6.5625 11.9989 6.5625H5.99889Z" fill="#3F97FF"/>
<path d="M11.5661 9.8623C11.1461 9.8623 10.8086 9.5248 10.8086 9.1123C10.8086 8.6998 11.1461 8.3623 11.5586 8.3623C11.9711 8.3623 12.3086 8.6998 12.3086 9.1123C12.3086 9.5248 11.9786 9.8623 11.5661 9.8623Z" fill="#3F97FF"/>
<path d="M6.31609 9.8623C5.89609 9.8623 5.55859 9.5248 5.55859 9.1123C5.55859 8.6998 5.89609 8.3623 6.30859 8.3623C6.72109 8.3623 7.05859 8.6998 7.05859 9.1123C7.05859 9.5248 6.72859 9.8623 6.31609 9.8623Z" fill="#3F97FF"/>
</svg>
