<svg width="18" height="18" viewBox="0 0 18 18" fill="none" xmlns="http://www.w3.org/2000/svg">
<path d="M4.83831 6.37543C4.79331 6.37543 4.74831 6.36791 4.70331 6.36041C4.56081 6.32291 4.43331 6.23294 4.35831 6.10544L3.18831 4.18544C2.90331 3.72044 2.8133 3.16543 2.9483 2.62543C3.0758 2.09293 3.40581 1.63542 3.87831 1.35042C4.34331 1.06542 4.89831 0.975412 5.43831 1.11041C5.97831 1.23791 6.42831 1.5679 6.71331 2.0404L7.8833 3.96045C8.0483 4.22295 7.9583 4.56793 7.6958 4.73293L5.13081 6.29294C5.04081 6.34544 4.94331 6.37543 4.83831 6.37543ZM4.94331 2.17545C4.77081 2.17545 4.60581 2.22044 4.46331 2.31044C4.25331 2.43794 4.10331 2.64791 4.04331 2.88791C3.98331 3.13541 4.02081 3.38291 4.14831 3.59291L5.02581 5.03294L6.63081 4.05791L5.75331 2.61792C5.62581 2.40792 5.4158 2.25792 5.1758 2.19792C5.0933 2.18292 5.01831 2.17545 4.94331 2.17545Z" fill="#303030"/>
<path d="M8.56501 16.9578C8.34001 16.9578 8.11501 16.9278 7.89751 16.8603C7.23751 16.6653 6.70501 16.2153 6.39751 15.5778L4.86001 12.4428C4.04251 10.7778 4.62001 8.79779 6.20251 7.83029L8.5725 6.3903C10.155 5.4228 12.1875 5.82029 13.29 7.31279L15.3675 10.1178C15.7875 10.6878 15.945 11.3703 15.8175 12.0378C15.69 12.7053 15.285 13.2828 14.6775 13.6503L9.85501 16.5828C9.45001 16.8303 9.00751 16.9578 8.56501 16.9578ZM10.425 6.99029C9.99001 6.99029 9.55501 7.11028 9.15001 7.35028L6.78 8.79026C5.6925 9.45026 5.30251 10.8078 5.85751 11.9478L7.39501 15.0828C7.56751 15.4278 7.85251 15.6753 8.20501 15.7803C8.55751 15.8853 8.93251 15.8253 9.25501 15.6303L14.0775 12.6978C14.4075 12.4953 14.625 12.1878 14.7 11.8278C14.7675 11.4678 14.685 11.1003 14.4525 10.7928L12.375 7.9878C11.9025 7.3353 11.175 6.99029 10.425 6.99029Z" fill="#303030"/>
<path d="M5.75982 9.3222C5.71482 9.3222 5.66983 9.31468 5.62483 9.30718C5.48233 9.26968 5.35482 9.17971 5.27982 9.05221L3.71983 6.48722C3.55483 6.22472 3.64483 5.8797 3.90733 5.7147L7.74733 3.3747C8.00983 3.2172 8.36233 3.2997 8.51983 3.5622L10.0798 6.12719C10.1548 6.25469 10.1848 6.4047 10.1473 6.5547C10.1098 6.6972 10.0198 6.82471 9.89233 6.89971L6.05233 9.23971C5.96233 9.29971 5.85732 9.3222 5.75982 9.3222ZM4.97233 6.38972L5.94732 7.99468L8.82733 6.23971L7.85233 4.6347L4.97233 6.38972Z" fill="#303030"/>
<path d="M11.9686 15.2027C11.7811 15.2027 11.5936 15.1051 11.4886 14.9326L10.2511 12.9002C10.0861 12.6377 10.1761 12.2926 10.4386 12.1276C10.7011 11.9701 11.0536 12.0526 11.2111 12.3151L12.4486 14.3476C12.6136 14.6101 12.5236 14.9551 12.2611 15.1201C12.1711 15.1726 12.0661 15.2027 11.9686 15.2027Z" fill="#303030"/>
<path d="M10.0506 16.3726C9.86311 16.3726 9.67561 16.275 9.57061 16.1025L8.33311 14.0701C8.16811 13.8076 8.25811 13.4626 8.52061 13.2976C8.78311 13.1401 9.13561 13.2226 9.29311 13.4851L10.5306 15.5176C10.6956 15.7801 10.6056 16.125 10.3431 16.29C10.2531 16.3425 10.1481 16.3726 10.0506 16.3726Z" fill="#303030"/>
<path d="M13.8905 14.0327C13.703 14.0327 13.5155 13.9352 13.4105 13.7627L12.173 11.7302C12.008 11.4677 12.098 11.1227 12.3605 10.9577C12.623 10.8002 12.9755 10.8827 13.133 11.1452L14.3705 13.1777C14.5355 13.4402 14.4455 13.7852 14.183 13.9502C14.093 14.0027 13.9955 14.0327 13.8905 14.0327Z" fill="#303030"/>
</svg>
