<svg width="8" height="8" viewBox="0 0 8 8" fill="none" xmlns="http://www.w3.org/2000/svg">
  <path fill-rule="evenodd" clip-rule="evenodd" d="M0.2175 6.9375C0.3675 7.0875 0.5575 7.1575 0.7475 7.1575C0.9375 7.1575 1.1375 7.0875 1.2775 6.9375L3.5775 4.6375L5.8775 6.9375C6.0275 7.0875 6.2175 7.1575 6.4075 7.1575C6.5975 7.1575 6.7875 7.0875 6.9375 6.9375C7.2275 6.6475 7.2275 6.1675 6.9375 5.8775L4.6375 3.5775L6.9375 1.2775C7.2275 0.987499 7.2275 0.5075 6.9375 0.2175C6.6475 -0.0725 6.1675 -0.0725 5.8775 0.2175L3.5775 2.5175L1.2775 0.2175C0.987499 -0.0725 0.5075 -0.0725 0.2175 0.2175C-0.0725 0.5075 -0.0725 0.987499 0.2175 1.2775L2.5175 3.5775L0.2175 5.8775C-0.0725 6.1675 -0.0725 6.6475 0.2175 6.9375Z" fill="currentColor" />
</svg>
