<svg width="367" height="129" viewBox="0 0 367 129" fill="#cdd2d9" xmlns="http://www.w3.org/2000/svg">
<g filter="url(#filter0_d_407_27432)">
<mask id="path-1-inside-1_407_27432" fill="white">
<path fill-rule="evenodd" clip-rule="evenodd" d="M40 6C22.3269 6 8 20.3269 8 38V106H217.846C218.699 107.329 219.463 108.685 219.862 109.796C221.102 113.247 222.053 118.761 222.053 118.761C222.053 118.761 227.465 112.189 228.892 109.102C229.458 107.875 229.91 106.811 230.239 106H359V38C359 20.3269 344.673 6 327 6H40Z"/>
</mask>
<path fill-rule="evenodd" clip-rule="evenodd" d="M40 6C22.3269 6 8 20.3269 8 38V106H217.846C218.699 107.329 219.463 108.685 219.862 109.796C221.102 113.247 222.053 118.761 222.053 118.761C222.053 118.761 227.465 112.189 228.892 109.102C229.458 107.875 229.91 106.811 230.239 106H359V38C359 20.3269 344.673 6 327 6H40Z" fill="white"/>
<path d="M8 106H7.5V106.5H8V106ZM217.846 106L218.267 105.73L218.119 105.5H217.846V106ZM219.862 109.796L220.333 109.626V109.626L219.862 109.796ZM222.053 118.761L221.56 118.845L221.746 119.92L222.439 119.078L222.053 118.761ZM228.892 109.102L228.438 108.892L228.892 109.102ZM230.239 106V105.5H229.902L229.775 105.812L230.239 106ZM359 106V106.5H359.5V106H359ZM8.5 38C8.5 20.603 22.603 6.5 40 6.5V5.5C22.0507 5.5 7.5 20.0507 7.5 38H8.5ZM8.5 106V38H7.5V106H8.5ZM217.846 105.5H8V106.5H217.846V105.5ZM220.333 109.626C219.914 108.461 219.125 107.066 218.267 105.73L217.425 106.27C218.274 107.592 219.013 108.909 219.392 109.965L220.333 109.626ZM222.053 118.761C222.546 118.676 222.546 118.675 222.546 118.675C222.546 118.675 222.546 118.675 222.546 118.675C222.546 118.675 222.546 118.675 222.546 118.674C222.545 118.674 222.545 118.673 222.545 118.671C222.545 118.668 222.544 118.664 222.543 118.659C222.541 118.648 222.538 118.632 222.534 118.611C222.527 118.569 222.516 118.508 222.502 118.428C222.473 118.269 222.431 118.039 222.376 117.752C222.267 117.178 222.109 116.376 221.911 115.466C221.518 113.652 220.964 111.385 220.333 109.626L219.392 109.965C220 111.658 220.542 113.873 220.934 115.678C221.129 116.578 221.286 117.371 221.394 117.938C221.448 118.222 221.49 118.45 221.518 118.606C221.532 118.684 221.543 118.744 221.55 118.785C221.553 118.805 221.556 118.82 221.558 118.83C221.559 118.836 221.559 118.839 221.56 118.842C221.56 118.843 221.56 118.844 221.56 118.845C221.56 118.845 221.56 118.845 221.56 118.845C221.56 118.845 221.56 118.845 221.56 118.845C221.56 118.845 221.56 118.845 222.053 118.761ZM228.438 108.892C227.751 110.379 226.075 112.752 224.538 114.788C223.776 115.798 223.058 116.712 222.53 117.374C222.266 117.705 222.05 117.972 221.9 118.157C221.825 118.249 221.767 118.321 221.727 118.369C221.707 118.394 221.692 118.412 221.682 118.424C221.677 118.43 221.673 118.435 221.671 118.438C221.67 118.44 221.669 118.441 221.668 118.442C221.668 118.442 221.667 118.442 221.667 118.442C221.667 118.443 221.667 118.443 221.667 118.443C221.667 118.443 221.667 118.443 222.053 118.761C222.439 119.078 222.439 119.078 222.439 119.078C222.439 119.078 222.439 119.078 222.439 119.078C222.44 119.078 222.44 119.077 222.44 119.077C222.441 119.076 222.442 119.075 222.443 119.073C222.446 119.07 222.45 119.065 222.455 119.059C222.466 119.046 222.481 119.027 222.501 119.003C222.542 118.953 222.601 118.881 222.677 118.787C222.828 118.601 223.046 118.331 223.312 117.997C223.844 117.33 224.567 116.409 225.337 115.39C226.862 113.368 228.606 110.912 229.346 109.311L228.438 108.892ZM229.775 105.812C229.449 106.616 229.001 107.674 228.438 108.892L229.346 109.311C229.916 108.077 230.371 107.005 230.702 106.188L229.775 105.812ZM359 105.5H230.239V106.5H359V105.5ZM358.5 38V106H359.5V38H358.5ZM327 6.5C344.397 6.5 358.5 20.603 358.5 38H359.5C359.5 20.0507 344.949 5.5 327 5.5V6.5ZM40 6.5H327V5.5H40V6.5Z" fill="#CDD2D9" mask="url(#path-1-inside-1_407_27432)"/>
</g>
<defs>
<filter id="filter0_d_407_27432" x="0" y="0" width="367" height="128.761" filterUnits="userSpaceOnUse" color-interpolation-filters="sRGB">
<feFlood flood-opacity="0" result="BackgroundImageFix"/>
<feColorMatrix in="SourceAlpha" type="matrix" values="0 0 0 0 0 0 0 0 0 0 0 0 0 0 0 0 0 0 127 0" result="hardAlpha"/>
<feOffset dy="2"/>
<feGaussianBlur stdDeviation="4"/>
<feComposite in2="hardAlpha" operator="out"/>
<feColorMatrix type="matrix" values="0 0 0 0 0 0 0 0 0 0 0 0 0 0 0 0 0 0 0.05 0"/>
<feBlend mode="normal" in2="BackgroundImageFix" result="effect1_dropShadow_407_27432"/>
<feBlend mode="normal" in="SourceGraphic" in2="effect1_dropShadow_407_27432" result="shape"/>
</filter>
</defs>
</svg>
