<svg width="18" height="18" viewBox="0 0 18 18" fill="none" xmlns="http://www.w3.org/2000/svg">
<path d="M4.63437 17.062C4.55937 17.062 4.47687 17.0545 4.40937 17.047L2.78187 16.822C2.00187 16.717 1.29687 16.0195 1.17687 15.2245L0.95187 13.582C0.87687 13.057 1.10187 12.3745 1.47687 11.992L4.76937 8.69945C4.23687 6.56945 4.85187 4.31945 6.41937 2.76695C8.84937 0.344454 12.8019 0.336954 15.2394 2.76695C16.4169 3.94445 17.0619 5.51195 17.0619 7.17695C17.0619 8.84195 16.4169 10.4095 15.2394 11.587C13.6644 13.147 11.4219 13.762 9.30687 13.222L6.00687 16.5145C5.69187 16.8445 5.12937 17.062 4.63437 17.062ZM10.8219 2.06945C9.50937 2.06945 8.20437 2.56445 7.20687 3.56195C5.85687 4.90445 5.36937 6.86945 5.93187 8.69945C5.99187 8.90195 5.93937 9.11195 5.78937 9.26196L2.26437 12.787C2.13687 12.9145 2.03187 13.2445 2.05437 13.417L2.27937 15.0595C2.32437 15.3445 2.63187 15.667 2.91687 15.7045L4.55187 15.9295C4.73187 15.9595 5.06187 15.8545 5.18937 15.727L8.72937 12.1945C8.87937 12.0445 9.09687 11.9995 9.29187 12.0595C11.0994 12.6295 13.0719 12.142 14.4219 10.792C15.3819 9.83195 15.9144 8.54195 15.9144 7.17695C15.9144 5.80445 15.3819 4.52195 14.4219 3.56195C13.4469 2.57195 12.1344 2.06945 10.8219 2.06945Z" fill="#3F97FF"/>
<path d="M6.89305 15.4048C6.75055 15.4048 6.60805 15.3523 6.49555 15.2398L4.77055 13.5148C4.55305 13.2973 4.55305 12.9373 4.77055 12.7198C4.98805 12.5023 5.34805 12.5023 5.56555 12.7198L7.29055 14.4448C7.50805 14.6623 7.50805 15.0223 7.29055 15.2398C7.17805 15.3523 7.03555 15.4048 6.89305 15.4048Z" fill="#3F97FF"/>
<path d="M10.875 8.8125C9.945 8.8125 9.1875 8.055 9.1875 7.125C9.1875 6.195 9.945 5.4375 10.875 5.4375C11.805 5.4375 12.5625 6.195 12.5625 7.125C12.5625 8.055 11.805 8.8125 10.875 8.8125ZM10.875 6.5625C10.5675 6.5625 10.3125 6.8175 10.3125 7.125C10.3125 7.4325 10.5675 7.6875 10.875 7.6875C11.1825 7.6875 11.4375 7.4325 11.4375 7.125C11.4375 6.8175 11.1825 6.5625 10.875 6.5625Z" fill="#3F97FF"/>
</svg>
