<svg width="128" height="38" viewBox="0 0 128 38" fill="none" xmlns="http://www.w3.org/2000/svg">
<path d="M67.4176 30.5033C65.7107 30.5033 64.2497 30.1653 63.0344 29.4894C61.8191 28.8067 60.8871 27.8576 60.2385 26.6424C59.5899 25.4202 59.2656 24.0035 59.2656 22.3923C59.2656 20.781 59.5899 19.3677 60.2385 18.1524C60.8871 16.9303 61.8191 15.9813 63.0344 15.3054C64.2497 14.6226 65.7107 14.2812 67.4176 14.2812C69.1245 14.2812 70.5855 14.6226 71.8008 15.3054C73.0161 15.9813 73.9481 16.9303 74.5967 18.1524C75.2453 19.3677 75.5696 20.781 75.5696 22.3923C75.5696 24.0035 75.2453 25.4202 74.5967 26.6424C73.9481 27.8576 73.0161 28.8067 71.8008 29.4894C70.5855 30.1653 69.1245 30.5033 67.4176 30.5033ZM67.4586 26.3249C67.9365 26.3249 68.3496 26.1644 68.6978 25.8435C69.046 25.5227 69.3156 25.0652 69.5068 24.4712C69.698 23.8772 69.7936 23.1706 69.7936 22.3513C69.7936 21.5252 69.698 20.8185 69.5068 20.2314C69.3156 19.6374 69.046 19.1799 68.6978 18.8591C68.3496 18.5382 67.9365 18.3777 67.4586 18.3777C66.9533 18.3777 66.5198 18.5382 66.1579 18.8591C65.7961 19.1799 65.5196 19.6374 65.3284 20.2314C65.1372 20.8185 65.0417 21.5252 65.0417 22.3513C65.0417 23.1706 65.1372 23.8772 65.3284 24.4712C65.5196 25.0652 65.7961 25.5227 66.1579 25.8435C66.5198 26.1644 66.9533 26.3249 67.4586 26.3249Z" fill="#303030"/>
<path d="M49.3513 36.4432C47.7742 36.4432 46.4223 36.2179 45.2958 35.7673C44.1761 35.3235 43.3056 34.709 42.6843 33.9238C42.0698 33.1455 41.725 32.2511 41.6499 31.2406H47.0982C47.1529 31.5752 47.2894 31.8449 47.5079 32.0497C47.7264 32.2545 48.0063 32.4013 48.3477 32.4901C48.6959 32.5857 49.085 32.6334 49.5152 32.6334C50.2457 32.6334 50.8499 32.4559 51.3279 32.1009C51.8126 31.7459 52.055 31.1041 52.055 30.1756V27.5129H51.8911C51.6863 28.0454 51.3722 28.4994 50.9489 28.8749C50.5256 29.2436 50.017 29.527 49.423 29.725C48.829 29.9161 48.177 30.0117 47.4669 30.0117C46.3472 30.0117 45.3163 29.7523 44.3741 29.2334C43.4387 28.7145 42.6877 27.8918 42.121 26.7653C41.5612 25.6387 41.2812 24.1674 41.2812 22.3513C41.2812 20.4533 41.5748 18.9103 42.162 17.7223C42.756 16.5343 43.5207 15.6638 44.456 15.1108C45.3982 14.5578 46.3882 14.2812 47.426 14.2812C48.2043 14.2812 48.887 14.4178 49.4742 14.6909C50.0614 14.9572 50.5529 15.3156 50.9489 15.7662C51.3449 16.21 51.6453 16.6982 51.8502 17.2307H51.973V14.4861H57.6262V30.1756C57.6262 31.5069 57.2814 32.6369 56.5918 33.5654C55.9091 34.5008 54.9464 35.2142 53.7038 35.7058C52.4612 36.1974 51.0104 36.4432 49.3513 36.4432ZM49.5561 25.9972C50.075 25.9972 50.5188 25.8538 50.8875 25.567C51.263 25.2735 51.5497 24.857 51.7477 24.3176C51.9526 23.7714 52.055 23.116 52.055 22.3513C52.055 21.573 51.9526 20.9073 51.7477 20.3543C51.5497 19.7944 51.263 19.3677 50.8875 19.0741C50.5188 18.7737 50.075 18.6235 49.5561 18.6235C49.0372 18.6235 48.5935 18.7737 48.2248 19.0741C47.8629 19.3677 47.583 19.7944 47.385 20.3543C47.1938 20.9073 47.0982 21.573 47.0982 22.3513C47.0982 23.1296 47.1938 23.7919 47.385 24.3381C47.583 24.8775 47.8629 25.2905 48.2248 25.5773C48.5935 25.8572 49.0372 25.9972 49.5561 25.9972Z" fill="#303030"/>
<path d="M29.4344 21.3681V30.2165H23.7812V14.4861H29.1476V17.4765H29.3115C29.6529 16.4797 30.2537 15.6979 31.1139 15.1313C31.981 14.5646 32.9915 14.2812 34.1453 14.2812C35.2582 14.2812 36.2243 14.5373 37.0436 15.0493C37.8697 15.5546 38.5081 16.251 38.9587 17.1385C39.4161 18.0261 39.6414 19.04 39.6346 20.1802V30.2165H33.9815V21.3681C33.9883 20.5898 33.7903 19.9788 33.3875 19.535C32.9915 19.0912 32.4385 18.8693 31.7284 18.8693C31.2641 18.8693 30.8579 18.9717 30.5097 19.1765C30.1683 19.3745 29.9055 19.6613 29.7211 20.0368C29.5368 20.4055 29.4412 20.8493 29.4344 21.3681Z" fill="#303030"/>
<path d="M15.8984 30.2171V14.4867H21.5516V30.2171H15.8984ZM18.725 12.8481C17.9603 12.8481 17.3049 12.5955 16.7587 12.0902C16.2125 11.585 15.9394 10.9774 15.9394 10.2673C15.9394 9.55725 16.2125 8.9496 16.7587 8.44437C17.3049 7.93914 17.9603 7.68652 18.725 7.68652C19.4965 7.68652 20.1519 7.93914 20.6913 8.44437C21.2375 8.9496 21.5106 9.55725 21.5106 10.2673C21.5106 10.9774 21.2375 11.585 20.6913 12.0902C20.1519 12.5955 19.4965 12.8481 18.725 12.8481Z" fill="#303030"/>
<path d="M0 30.2171V9.24316H5.6941V25.6291H14.1738V30.2171H0Z" fill="#303030"/>
<path d="M72.4397 5.92541C72.9606 2.6529 76.0357 0.422246 79.3082 0.943112L100.253 4.27674L113.688 6.41511L117.477 7.01824L125.588 18.1991L124.82 23.022L123.46 31.565C122.939 34.8375 119.864 37.0682 116.592 36.5473L74.7025 29.8801C71.43 29.3592 69.1993 26.2841 69.7202 23.0115L72.4397 5.92541Z" fill="#3F97FF"/>
<path d="M105.198 30.5921C104.733 30.5181 104.296 30.4109 103.887 30.2705C103.477 30.135 103.123 29.9808 102.824 29.8079L104.163 27.0708C104.477 27.2412 104.768 27.3653 105.037 27.4432C105.31 27.5218 105.551 27.54 105.758 27.4978C105.971 27.4563 106.137 27.3398 106.258 27.1483L106.379 26.9568L104.289 14.5527L108.517 15.2256L109.094 23.3251L109.212 23.3438L112.304 15.8285L116.561 16.5061L110.507 28.0655C110.203 28.6542 109.815 29.1645 109.345 29.5965C108.879 30.034 108.308 30.347 107.63 30.5352C106.953 30.7234 106.142 30.7424 105.198 30.5921Z" fill="white"/>
<path d="M96.9218 25.1501C95.6984 24.9554 94.6898 24.5465 93.8959 23.9235C93.1028 23.2955 92.5431 22.509 92.2169 21.564C91.8914 20.6141 91.8206 19.5618 92.0044 18.407C92.1882 17.2522 92.5819 16.2762 93.1854 15.4792C93.7897 14.6773 94.5658 14.1035 95.514 13.7577C96.4628 13.407 97.549 13.329 98.7723 13.5237C99.9956 13.7184 101.004 14.1297 101.797 14.7577C102.591 15.3808 103.151 16.1672 103.476 17.1171C103.802 18.0621 103.873 19.112 103.69 20.2668C103.506 21.4217 103.112 22.4 102.507 23.2019C101.904 23.9989 101.128 24.5728 100.179 24.9235C99.2308 25.2693 98.1451 25.3448 96.9218 25.1501ZM97.4278 22.1601C97.7703 22.2146 98.0846 22.1468 98.3708 21.9565C98.657 21.7662 98.9024 21.4691 99.1072 21.0652C99.312 20.6613 99.4611 20.1658 99.5546 19.5786C99.6488 18.9865 99.6609 18.4691 99.5909 18.0265C99.5216 17.579 99.3805 17.2204 99.1676 16.9507C98.9546 16.681 98.6769 16.5188 98.3343 16.4643C97.9722 16.4067 97.6432 16.4722 97.3473 16.6609C97.0513 16.8496 96.8009 17.1459 96.5962 17.5499C96.3922 17.9489 96.2431 18.4444 96.1488 19.0365C96.0554 19.6237 96.0433 20.1411 96.1125 20.5886C96.1818 21.0361 96.3278 21.3955 96.5505 21.6668C96.7732 21.938 97.0657 22.1025 97.4278 22.1601Z" fill="white"/>
<path d="M88.5852 8.2005L92.6075 8.8407L90.9673 19.146C90.8066 20.1238 90.4224 20.9457 89.8147 21.6116C89.2127 22.2734 88.4504 22.7441 87.5279 23.0238C86.611 23.2993 85.5972 23.3486 84.4864 23.1718C83.5224 23.0184 82.6681 22.7118 81.9235 22.2522C81.1796 21.7876 80.6276 21.1578 80.2675 20.363C79.9081 19.5632 79.8227 18.5863 80.0114 17.4323L84.0924 18.0818C84.0471 18.461 84.0601 18.7891 84.1314 19.0664C84.2076 19.3444 84.3379 19.5659 84.5224 19.7307C84.7125 19.8914 84.9569 19.9955 85.2553 20.043C85.5587 20.0913 85.8237 20.0658 86.0502 19.9664C86.2817 19.8677 86.4719 19.6973 86.6208 19.4551C86.7705 19.208 86.8786 18.8916 86.945 18.5058L88.5852 8.2005Z" fill="white"/>
<path d="M117.477 7.01855L125.587 18.1994L119.892 17.2929C117.71 16.9457 116.223 14.8956 116.57 12.7139L117.477 7.01855Z" fill="#2876D1"/>
</svg>
