<svg width="18" height="18" viewBox="0 0 18 18" fill="none" xmlns="http://www.w3.org/2000/svg">
<path d="M9 13.7322C8.6475 13.7322 8.30999 13.5522 8.07749 13.2447L7.53749 12.5247H7.425C5.91 12.5247 4.5 12.1721 4.5 9.59965V7.62717C4.5 5.89467 5.3925 4.86715 7.005 4.72465C7.125 4.70965 7.2675 4.70215 7.425 4.70215H10.575C12.4575 4.70215 13.5 5.73717 13.5 7.62717V9.59965C13.5 9.74965 13.4925 9.89966 13.4775 10.0347C13.3425 11.6247 12.315 12.5172 10.5825 12.5172H10.47L9.92999 13.2372C9.68999 13.5597 9.3525 13.7322 9 13.7322ZM7.425 5.84216C7.32 5.84216 7.2225 5.84215 7.125 5.85715C6.0675 5.94715 5.625 6.47966 5.625 7.64216V9.61466C5.625 11.1672 6.0525 11.4147 7.425 11.4147H7.62C7.905 11.4147 8.21249 11.5647 8.38499 11.7897L8.9775 12.5847L9.61501 11.7972C9.79501 11.5572 10.08 11.4147 10.38 11.4147H10.575C11.7375 11.4147 12.2625 10.9722 12.3525 9.93716C12.3675 9.81716 12.3675 9.71966 12.3675 9.61466V7.64216C12.3675 6.38216 11.8275 5.84216 10.5675 5.84216H7.425Z" fill="#3F97FF"/>
<path d="M9 17.0625C4.5525 17.0625 0.9375 13.4475 0.9375 9C0.9375 4.5525 4.5525 0.9375 9 0.9375C13.4475 0.9375 17.0625 4.5525 17.0625 9C17.0625 13.4475 13.4475 17.0625 9 17.0625ZM9 2.0625C5.175 2.0625 2.0625 5.175 2.0625 9C2.0625 12.825 5.175 15.9375 9 15.9375C12.825 15.9375 15.9375 12.825 15.9375 9C15.9375 5.175 12.825 2.0625 9 2.0625Z" fill="#3F97FF"/>
</svg>
