<svg width="25" height="24" viewBox="0 0 25 24" fill="none" xmlns="http://www.w3.org/2000/svg">
<path d="M10.49 22.78C9.88999 22.78 9.31999 22.48 8.92999 21.95L7.73001 20.35C7.73001 20.36 7.68 20.33 7.66 20.33H7.29001C3.87001 20.33 1.75 19.4 1.75 14.79V10.79C1.75 6.58001 4.32001 5.48001 6.48001 5.29001C6.72001 5.26001 7.00001 5.25 7.29001 5.25H13.69C17.31 5.25 19.23 7.17001 19.23 10.79V14.79C19.23 15.08 19.22 15.36 19.18 15.63C19 17.76 17.9 20.33 13.69 20.33H13.29L12.05 21.95C11.66 22.48 11.09 22.78 10.49 22.78ZM7.29001 6.75C7.06001 6.75 6.84 6.76 6.63 6.78C4.31 6.98 3.25 8.25001 3.25 10.79V14.79C3.25 18.22 4.31001 18.83 7.29001 18.83H7.69C8.14 18.83 8.64999 19.08 8.92999 19.44L10.13 21.05C10.35 21.35 10.63 21.35 10.85 21.05L12.05 19.45C12.34 19.06 12.8 18.83 13.29 18.83H13.69C16.23 18.83 17.5 17.76 17.69 15.48C17.72 15.24 17.73 15.02 17.73 14.79V10.79C17.73 8.00001 16.48 6.75 13.69 6.75H7.29001Z" />
<path d="M18.4396 16.29C18.2396 16.29 18.0396 16.21 17.8996 16.06C17.7396 15.9 17.6697 15.67 17.6997 15.45C17.7297 15.24 17.7396 15.02 17.7396 14.79V10.79C17.7396 8.00001 16.4897 6.75 13.6997 6.75H7.29963C7.06963 6.75 6.84966 6.76 6.63966 6.78C6.41966 6.81 6.18964 6.72999 6.02964 6.57999C5.86964 6.41999 5.77963 6.20001 5.79963 5.98001C5.97963 3.82001 7.08963 1.25 11.2996 1.25H17.6997C21.3197 1.25 23.2396 3.17001 23.2396 6.79001V10.79C23.2396 15 20.6697 16.1 18.5097 16.29C18.4797 16.29 18.4596 16.29 18.4396 16.29ZM7.41966 5.25H13.6896C17.3096 5.25 19.2297 7.17001 19.2297 10.79V14.66C20.9297 14.24 21.7297 12.99 21.7297 10.79V6.79001C21.7297 4.00001 20.4796 2.75 17.6896 2.75H11.2897C9.08965 2.75 7.84966 3.55 7.41966 5.25Z" />
<path d="M12.0327 14.9998V10.6362H13.0611V14.9998H12.0327ZM12.5497 10.0169C12.3868 10.0169 12.2467 9.96289 12.1293 9.85494C12.0118 9.74509 11.9531 9.61346 11.9531 9.46005C11.9531 9.30475 12.0118 9.17312 12.1293 9.06516C12.2467 8.95531 12.3868 8.90039 12.5497 8.90039C12.7145 8.90039 12.8546 8.95531 12.9702 9.06516C13.0876 9.17312 13.1463 9.30475 13.1463 9.46005C13.1463 9.61346 13.0876 9.74509 12.9702 9.85494C12.8546 9.96289 12.7145 10.0169 12.5497 10.0169Z" />
<path d="M9.1946 15.0876C8.91809 15.0876 8.66903 15.0384 8.44744 14.9399C8.22775 14.8395 8.0535 14.6918 7.92472 14.4967C7.79782 14.3016 7.73438 14.0611 7.73438 13.7751C7.73438 13.5289 7.77983 13.3253 7.87074 13.1643C7.96165 13.0033 8.0857 12.8746 8.2429 12.778C8.40009 12.6814 8.57718 12.6085 8.77415 12.5592C8.97301 12.5081 9.1785 12.4711 9.39063 12.4484C9.64631 12.4219 9.85369 12.3982 10.0128 12.3774C10.1719 12.3547 10.2874 12.3206 10.3594 12.2751C10.4332 12.2278 10.4702 12.1549 10.4702 12.0564V12.0393C10.4702 11.8253 10.4067 11.6596 10.2798 11.5422C10.1529 11.4247 9.97017 11.366 9.73153 11.366C9.47964 11.366 9.27983 11.421 9.1321 11.5308C8.98627 11.6407 8.88778 11.7704 8.83665 11.92L7.87642 11.7836C7.95218 11.5185 8.07718 11.2969 8.25142 11.1189C8.42566 10.9389 8.63873 10.8045 8.89062 10.7155C9.14252 10.6246 9.42093 10.5791 9.72585 10.5791C9.93608 10.5791 10.1454 10.6037 10.3537 10.653C10.562 10.7022 10.7524 10.7836 10.9247 10.8973C11.0971 11.009 11.2353 11.1615 11.3395 11.3547C11.4455 11.5479 11.4986 11.7893 11.4986 12.0791V14.9996H10.5099V14.4001H10.4759C10.4134 14.5213 10.3253 14.635 10.2116 14.741C10.0999 14.8452 9.95881 14.9295 9.78835 14.9939C9.61979 15.0564 9.42188 15.0876 9.1946 15.0876ZM9.46165 14.3319C9.66809 14.3319 9.84706 14.2912 9.99858 14.2098C10.1501 14.1264 10.2666 14.0166 10.348 13.8802C10.4313 13.7439 10.473 13.5952 10.473 13.4342V12.92C10.4408 12.9465 10.3859 12.9711 10.3082 12.9939C10.2325 13.0166 10.1473 13.0365 10.0526 13.0535C9.95786 13.0706 9.86411 13.0857 9.77131 13.099C9.6785 13.1122 9.59801 13.1236 9.52983 13.1331C9.37642 13.1539 9.23911 13.188 9.1179 13.2354C8.99669 13.2827 8.90104 13.349 8.83097 13.4342C8.76089 13.5175 8.72585 13.6255 8.72585 13.7581C8.72585 13.9475 8.79498 14.0905 8.93324 14.1871C9.0715 14.2836 9.24763 14.3319 9.46165 14.3319Z" />
</svg>
