<svg width="30" height="30" viewBox="0 0 30 30" fill="none" xmlns="http://www.w3.org/2000/svg">
<path d="M14.8859 20.0164C11.7934 20.0164 9.2793 17.5023 9.2793 14.4099V7.91808C9.2793 4.82562 11.7934 2.31152 14.8859 2.31152C17.9783 2.31152 20.4924 4.82562 20.4924 7.91808V14.4099C20.4924 17.5023 17.9783 20.0164 14.8859 20.0164ZM14.8859 4.08202C12.7731 4.08202 11.0498 5.80529 11.0498 7.91808V14.4099C11.0498 16.5227 12.7731 18.2459 14.8859 18.2459C16.9986 18.2459 18.7219 16.5227 18.7219 14.4099V7.91808C18.7219 5.80529 16.9986 4.08202 14.8859 4.08202Z" fill="white"/>
<path d="M14.8855 24.1474C9.42054 24.1474 4.9707 19.6975 4.9707 14.2326V12.2261C4.9707 11.7421 5.37201 11.3408 5.85595 11.3408C6.33988 11.3408 6.74119 11.7421 6.74119 12.2261V14.2326C6.74119 18.7179 10.4002 22.3769 14.8855 22.3769C19.3707 22.3769 23.0297 18.7179 23.0297 14.2326V12.2261C23.0297 11.7421 23.431 11.3408 23.915 11.3408C24.3989 11.3408 24.8002 11.7421 24.8002 12.2261V14.2326C24.8002 19.6975 20.3504 24.1474 14.8855 24.1474Z" fill="white"/>
<path d="M16.5274 9.31056C16.433 9.31056 16.3268 9.29876 16.2205 9.26335C15.3589 8.94466 14.4146 8.94466 13.553 9.26335C13.0927 9.4286 12.5851 9.19253 12.4199 8.7322C12.2546 8.27188 12.4907 7.76433 12.951 7.59909C14.2022 7.15056 15.5832 7.15056 16.8343 7.59909C17.2946 7.76433 17.5307 8.27188 17.3655 8.7322C17.2238 9.0863 16.8815 9.31056 16.5274 9.31056Z" fill="white"/>
<path d="M15.8305 11.8124C15.7479 11.8124 15.6771 11.8006 15.5945 11.777C15.1223 11.6471 14.6384 11.6471 14.1663 11.777C13.6941 11.9068 13.2102 11.6235 13.0804 11.1514C12.9505 10.6911 13.2338 10.2071 13.7059 10.0773C14.4732 9.86485 15.2994 9.86485 16.0666 10.0773C16.5387 10.2071 16.822 10.6911 16.6922 11.1632C16.5859 11.5527 16.22 11.8124 15.8305 11.8124Z" fill="white"/>
<path d="M14.8872 27.6884C14.4033 27.6884 14.002 27.2871 14.002 26.8032V23.2622C14.002 22.7783 14.4033 22.377 14.8872 22.377C15.3711 22.377 15.7724 22.7783 15.7724 23.2622V26.8032C15.7724 27.2871 15.3711 27.6884 14.8872 27.6884Z" fill="white"/>
</svg>
