<svg width="18" height="18" viewBox="0 0 18 18" fill="none" xmlns="http://www.w3.org/2000/svg">
<path d="M9.0149 15.3976C7.2674 15.3976 5.5199 15.1201 3.8624 14.5651C3.2324 14.3476 2.7524 13.9051 2.5424 13.3276C2.3249 12.7501 2.3999 12.1126 2.7449 11.5426L3.6074 10.1101C3.7874 9.81006 3.9524 9.21006 3.9524 8.85756V6.69006C3.9524 3.90006 6.2249 1.62756 9.0149 1.62756C11.8049 1.62756 14.0774 3.90006 14.0774 6.69006V8.85756C14.0774 9.20256 14.2424 9.81006 14.4224 10.1176L15.2774 11.5426C15.5999 12.0826 15.6599 12.7351 15.4424 13.3276C15.2249 13.9201 14.7524 14.3701 14.1599 14.5651C12.5099 15.1201 10.7624 15.3976 9.0149 15.3976ZM9.0149 2.75256C6.8474 2.75256 5.0774 4.51506 5.0774 6.69006V8.85756C5.0774 9.40506 4.8524 10.2151 4.5749 10.6876L3.7124 12.1201C3.5474 12.3976 3.5024 12.6901 3.5999 12.9376C3.6899 13.1926 3.9149 13.3876 4.2224 13.4926C7.3574 14.5426 10.6799 14.5426 13.8149 13.4926C14.0849 13.4026 14.2949 13.2001 14.3924 12.9301C14.4899 12.6601 14.4674 12.3676 14.3174 12.1201L13.4549 10.6876C13.1699 10.2001 12.9524 9.39756 12.9524 8.85006V6.69006C12.9524 4.51506 11.1899 2.75256 9.0149 2.75256Z" fill="#333333"/>
<path d="M10.4095 2.95501C10.357 2.95501 10.3045 2.94751 10.252 2.93251C10.0345 2.87251 9.82448 2.82751 9.62197 2.79751C8.98448 2.71501 8.36948 2.76001 7.79198 2.93251C7.58198 3.00001 7.35698 2.93251 7.21448 2.77501C7.07198 2.61751 7.02697 2.39251 7.10947 2.19001C7.41697 1.40251 8.16697 0.88501 9.02197 0.88501C9.87697 0.88501 10.627 1.39501 10.9345 2.19001C11.0095 2.39251 10.972 2.61751 10.8295 2.77501C10.717 2.89501 10.5595 2.95501 10.4095 2.95501Z" fill="#333333"/>
<path d="M9.01562 17.1074C8.27312 17.1074 7.55312 16.8074 7.02812 16.2824C6.50312 15.7574 6.20312 15.0374 6.20312 14.2949H7.32812C7.32812 14.7374 7.50812 15.1724 7.82312 15.4874C8.13812 15.8024 8.57313 15.9824 9.01562 15.9824C9.94563 15.9824 10.7031 15.2249 10.7031 14.2949H11.8281C11.8281 15.8474 10.5681 17.1074 9.01562 17.1074Z" fill="#333333"/>
</svg>
