<svg width="18" height="18" viewBox="0 0 18 18" fill="none" xmlns="http://www.w3.org/2000/svg">
<path d="M6.48 16.3125H3.7575C2.3625 16.3125 1.6875 15.6675 1.6875 14.3325V3.6675C1.6875 2.3325 2.3625 1.6875 3.7575 1.6875H6.48C7.875 1.6875 8.55 2.3325 8.55 3.6675V14.3325C8.55 15.6675 7.875 16.3125 6.48 16.3125ZM3.7575 2.8125C2.9475 2.8125 2.8125 3.015 2.8125 3.6675V14.3325C2.8125 14.985 2.94 15.1875 3.7575 15.1875H6.48C7.29 15.1875 7.425 14.985 7.425 14.3325V3.6675C7.425 3.015 7.2975 2.8125 6.48 2.8125H3.7575Z" fill="white"/>
<path d="M14.2456 16.3125H11.5231C10.1281 16.3125 9.45312 15.6675 9.45312 14.3325V3.6675C9.45312 2.3325 10.1281 1.6875 11.5231 1.6875H14.2456C15.6406 1.6875 16.3156 2.3325 16.3156 3.6675V14.3325C16.3156 15.6675 15.6406 16.3125 14.2456 16.3125ZM11.5231 2.8125C10.7131 2.8125 10.5781 3.015 10.5781 3.6675V14.3325C10.5781 14.985 10.7056 15.1875 11.5231 15.1875H14.2456C15.0556 15.1875 15.1906 14.985 15.1906 14.3325V3.6675C15.1906 3.015 15.0631 2.8125 14.2456 2.8125H11.5231Z" fill="white"/>
</svg>
