<svg width="70" height="70" viewBox="0 0 70 70" fill="none" xmlns="http://www.w3.org/2000/svg">
<g clip-path="url(#clip0_3984_8125)">
<path fill-rule="evenodd" clip-rule="evenodd" d="M53.3203 0C63.4375 0 70 6.5625 70 16.6797V53.3203C70 63.4375 63.4375 70 53.3203 70H16.6797C6.5625 70 0 63.4375 0 53.3203V16.6797C0 6.5625 6.5625 0 16.6797 0H53.3203Z" fill="url(#paint0_linear_3984_8125)"/>
<path d="M57.7695 36.2457C56.4593 36.2457 55.3377 35.9863 54.4048 35.4674C53.4719 34.9433 52.7565 34.2148 52.2586 33.2819C51.7607 32.3438 51.5117 31.2562 51.5117 30.0193C51.5117 28.7825 51.7607 27.6976 52.2586 26.7646C52.7565 25.8265 53.4719 25.098 54.4048 24.5791C55.3377 24.055 56.4593 23.793 57.7695 23.793C59.0798 23.793 60.2014 24.055 61.1343 24.5791C62.0672 25.098 62.7826 25.8265 63.2805 26.7646C63.7784 27.6976 64.0274 28.7825 64.0274 30.0193C64.0274 31.2562 63.7784 32.3438 63.2805 33.2819C62.7826 34.2148 62.0672 34.9433 61.1343 35.4674C60.2014 35.9863 59.0798 36.2457 57.7695 36.2457ZM57.801 33.0382C58.1679 33.0382 58.4849 32.915 58.7522 32.6687C59.0195 32.4224 59.2266 32.0712 59.3733 31.6152C59.5201 31.1593 59.5934 30.6168 59.5934 29.9879C59.5934 29.3537 59.5201 28.8113 59.3733 28.3605C59.2266 27.9046 59.0195 27.5534 58.7522 27.3071C58.4849 27.0608 58.1679 26.9376 57.801 26.9376C57.4131 26.9376 57.0803 27.0608 56.8026 27.3071C56.5248 27.5534 56.3125 27.9046 56.1658 28.3605C56.019 28.8113 55.9457 29.3537 55.9457 29.9879C55.9457 30.6168 56.019 31.1593 56.1658 31.6152C56.3125 32.0712 56.5248 32.4224 56.8026 32.6687C57.0803 32.915 57.4131 33.0382 57.801 33.0382Z" fill="black"/>
<path d="M43.8981 40.8054C42.6874 40.8054 41.6496 40.6325 40.7849 40.2866C39.9253 39.9459 39.2571 39.4742 38.7802 38.8715C38.3085 38.274 38.0438 37.5874 37.9861 36.8117H42.1685C42.2104 37.0686 42.3153 37.2756 42.483 37.4328C42.6507 37.59 42.8656 37.7027 43.1276 37.7709C43.3949 37.8442 43.6937 37.8809 44.0238 37.8809C44.5846 37.8809 45.0485 37.7447 45.4153 37.4721C45.7875 37.1996 45.9735 36.7069 45.9735 35.9941V33.9501H45.8477C45.6905 34.3589 45.4494 34.7075 45.1245 34.9957C44.7995 35.2787 44.4091 35.4962 43.9531 35.6482C43.4971 35.795 42.9966 35.8684 42.4515 35.8684C41.592 35.8684 40.8006 35.6692 40.0773 35.2709C39.3593 34.8726 38.7828 34.241 38.3478 33.3762C37.918 32.5115 37.7031 31.382 37.7031 29.9879C37.7031 28.5309 37.9285 27.3464 38.3792 26.4345C38.8352 25.5225 39.4222 24.8543 40.1402 24.4298C40.8635 24.0052 41.6234 23.793 42.4201 23.793C43.0176 23.793 43.5417 23.8978 43.9924 24.1074C44.4431 24.3118 44.8205 24.587 45.1245 24.9329C45.4284 25.2736 45.659 25.6483 45.8163 26.0571H45.9106V23.9502H50.2502V35.9941C50.2502 37.0161 49.9855 37.8835 49.4562 38.5963C48.9321 39.3143 48.1931 39.862 47.2392 40.2394C46.2854 40.6168 45.1716 40.8054 43.8981 40.8054ZM44.0553 32.7866C44.4536 32.7866 44.7943 32.6766 45.0773 32.4564C45.3655 32.2311 45.5857 31.9114 45.7377 31.4973C45.8949 31.078 45.9735 30.5749 45.9735 29.9879C45.9735 29.3904 45.8949 28.8794 45.7377 28.4549C45.5857 28.0251 45.3655 27.6976 45.0773 27.4722C44.7943 27.2416 44.4536 27.1263 44.0553 27.1263C43.657 27.1263 43.3163 27.2416 43.0333 27.4722C42.7555 27.6976 42.5406 28.0251 42.3886 28.4549C42.2419 28.8794 42.1685 29.3904 42.1685 29.9879C42.1685 30.5854 42.2419 31.0938 42.3886 31.513C42.5406 31.9271 42.7555 32.2442 43.0333 32.4643C43.3163 32.6792 43.657 32.7866 44.0553 32.7866Z" fill="black"/>
<path d="M28.6091 29.2332V36.0256H24.2695V23.9502H28.389V26.2458H28.5148C28.7768 25.4806 29.2381 24.8805 29.8984 24.4455C30.564 24.0105 31.3397 23.793 32.2255 23.793C33.0797 23.793 33.8214 23.9895 34.4503 24.3826C35.0844 24.7704 35.5745 25.305 35.9204 25.9863C36.2715 26.6677 36.4445 27.446 36.4393 28.3212V36.0256H32.0997V29.2332C32.1049 28.6357 31.9529 28.1666 31.6437 27.826C31.3397 27.4853 30.9152 27.315 30.3701 27.315C30.0137 27.315 29.7019 27.3936 29.4346 27.5508C29.1725 27.7028 28.9708 27.9229 28.8292 28.2112C28.6877 28.4942 28.6144 28.8349 28.6091 29.2332Z" fill="black"/>
<path d="M18.2188 36.0259V23.9506H22.5583V36.0259H18.2188ZM20.3885 22.6927C19.8015 22.6927 19.2984 22.4988 18.8791 22.1109C18.4598 21.7231 18.2502 21.2567 18.2502 20.7116C18.2502 20.1665 18.4598 19.7001 18.8791 19.3122C19.2984 18.9244 19.8015 18.7305 20.3885 18.7305C20.9808 18.7305 21.4839 18.9244 21.898 19.3122C22.3173 19.7001 22.5269 20.1665 22.5269 20.7116C22.5269 21.2567 22.3173 21.7231 21.898 22.1109C21.4839 22.4988 20.9808 22.6927 20.3885 22.6927Z" fill="black"/>
<path d="M6.01562 36.0263V19.9258H10.3867V32.5043H16.8961V36.0263H6.01562Z" fill="black"/>
<path d="M4.65884 37.9763C5.05868 35.4642 7.41929 33.7519 9.93142 34.1517L26.0094 36.7107L36.3227 38.3523L39.2316 38.8152L45.4575 47.3982L44.8683 51.1004L43.8245 57.6584C43.4246 60.1705 41.064 61.8829 38.5519 61.4831L6.39587 56.365C3.88375 55.9651 2.1714 53.6045 2.57124 51.0924L4.65884 37.9763Z" fill="#3F97FF"/>
<path d="M29.8072 56.9102C29.4503 56.8534 29.1149 56.7711 28.8008 56.6633C28.4861 56.5593 28.2142 56.4409 27.985 56.3082L29.0126 54.2071C29.2537 54.3379 29.4774 54.4332 29.6835 54.4929C29.8934 54.5533 30.078 54.5673 30.2372 54.5349C30.4002 54.503 30.5281 54.4136 30.6208 54.2666L30.7135 54.1196L29.1094 44.5977L32.3548 45.1142L32.798 51.3317L32.8881 51.346L35.2622 45.577L38.5302 46.0971L33.8826 54.9706C33.6489 55.4226 33.3516 55.8143 32.9907 56.1459C32.633 56.4818 32.1942 56.722 31.6744 56.8665C31.1545 57.011 30.5321 57.0255 29.8072 56.9102Z" fill="white"/>
<path d="M23.4551 52.7326C22.516 52.5831 21.7418 52.2692 21.1324 51.7909C20.5235 51.3089 20.0939 50.7052 19.8435 49.9797C19.5936 49.2506 19.5393 48.4427 19.6804 47.5562C19.8215 46.6698 20.1236 45.9206 20.5869 45.3088C21.0508 44.6932 21.6466 44.2527 22.3744 43.9872C23.1028 43.718 23.9366 43.6581 24.8757 43.8076C25.8147 43.9571 26.5887 44.2728 27.1975 44.7549C27.807 45.2332 28.2366 45.8369 28.4864 46.5661C28.7368 47.2915 28.7915 48.0975 28.6504 48.9839C28.5093 49.8704 28.2068 50.6215 27.743 51.237C27.2797 51.8489 26.6839 52.2894 25.9554 52.5586C25.2276 52.8241 24.3942 52.882 23.4551 52.7326ZM23.8436 50.4373C24.1065 50.4792 24.3478 50.4271 24.5675 50.281C24.7871 50.1349 24.9756 49.9069 25.1328 49.5968C25.29 49.2868 25.4044 48.9064 25.4762 48.4556C25.5485 48.0011 25.5578 47.604 25.504 47.2642C25.4509 46.9206 25.3426 46.6453 25.1791 46.4383C25.0156 46.2313 24.8024 46.1068 24.5395 46.065C24.2615 46.0207 24.0089 46.071 23.7817 46.2159C23.5546 46.3608 23.3624 46.5882 23.2052 46.8983C23.0486 47.2046 22.9341 47.585 22.8618 48.0395C22.79 48.4903 22.7807 48.8874 22.8339 49.2309C22.8871 49.5745 22.9991 49.8504 23.1701 50.0586C23.3411 50.2668 23.5656 50.3931 23.8436 50.4373Z" fill="white"/>
<path d="M17.0573 39.7216L20.1449 40.213L18.8858 48.1238C18.7625 48.8745 18.4676 49.5054 18.0011 50.0166C17.5389 50.5246 16.9538 50.8859 16.2456 51.1006C15.5418 51.3121 14.7635 51.35 13.9108 51.2142C13.1709 51.0965 12.5151 50.8611 11.9434 50.5083C11.3724 50.1516 10.9487 49.6682 10.6722 49.058C10.3963 48.4441 10.3308 47.6942 10.4756 46.8083L13.6084 47.3069C13.5736 47.598 13.5836 47.8499 13.6383 48.0627C13.6968 48.2762 13.7968 48.4462 13.9384 48.5727C14.0844 48.6961 14.272 48.776 14.5011 48.8124C14.734 48.8495 14.9374 48.8299 15.1113 48.7536C15.289 48.6779 15.435 48.5471 15.5493 48.3611C15.6642 48.1714 15.7472 47.9285 15.7982 47.6324L17.0573 39.7216Z" fill="white"/>
<path d="M39.2305 38.8164L45.4564 47.3993L41.0844 46.7035C39.4096 46.4369 38.268 44.8632 38.5346 43.1884L39.2305 38.8164Z" fill="#2876D1"/>
</g>
<defs>
<linearGradient id="paint0_linear_3984_8125" x1="5.74219" y1="5.46875" x2="66.1719" y2="65.625" gradientUnits="userSpaceOnUse">
<stop stop-color="#BCF4FF"/>
<stop offset="1" stop-color="#BBFFE8"/>
</linearGradient>
<clipPath id="clip0_3984_8125">
<rect width="70" height="70" fill="white"/>
</clipPath>
</defs>
</svg>
