<svg width="111" height="37" viewBox="0 0 111 37" fill="none" xmlns="http://www.w3.org/2000/svg">
<path fill-rule="evenodd" clip-rule="evenodd" d="M39.548 14.7344H33.2504C32.8194 14.7344 32.4529 15.0456 32.3857 15.4681L29.8386 31.5133C29.788 31.83 30.0348 32.1154 30.358 32.1154H33.3646C33.7955 32.1154 34.162 31.8042 34.2292 31.3808L34.9162 27.0532C34.9825 26.6294 35.3499 26.3186 35.78 26.3186H37.7736C41.922 26.3186 44.3161 24.324 44.9417 20.3715C45.2233 18.6424 44.9536 17.2837 44.1384 16.3319C43.2435 15.2873 41.6557 14.7344 39.548 14.7344ZM40.2746 20.5947C39.9303 22.8399 38.2036 22.8399 36.5341 22.8399H35.5838L36.2505 18.6466C36.2901 18.3934 36.5111 18.2067 36.7689 18.2067H37.2045C38.3417 18.2067 39.4146 18.2067 39.969 18.8507C40.2993 19.2351 40.4007 19.8059 40.2746 20.5947ZM58.3732 20.5227H55.3574C55.1004 20.5227 54.8784 20.7094 54.8388 20.963L54.7054 21.8009L54.4944 21.4973C53.8416 20.5557 52.3859 20.2411 50.9328 20.2411C47.5999 20.2411 44.7537 22.7489 44.1993 26.2669C43.9113 28.0215 44.3208 29.6994 45.3226 30.8697C46.2418 31.9456 47.5569 32.394 49.1212 32.394C51.8063 32.394 53.2957 30.6783 53.2957 30.6783L53.161 31.5112C53.1103 31.8296 53.3571 32.1149 53.6784 32.1149H56.395C56.8271 32.1149 57.1915 31.8037 57.2597 31.3803L58.8896 21.1248C58.9412 20.8093 58.6953 20.5227 58.3732 20.5227ZM54.1693 26.3546C53.8782 28.0664 52.5108 29.2155 50.767 29.2155C49.8913 29.2155 49.1911 28.9365 48.742 28.4077C48.2962 27.8826 48.1266 27.1349 48.2685 26.3025C48.5404 24.6051 49.9309 23.4187 51.6483 23.4187C52.5044 23.4187 53.2007 23.7011 53.6592 24.2346C54.1186 24.7736 54.301 25.5256 54.1693 26.3546ZM71.4041 20.5223H74.4348C74.8592 20.5223 75.1068 20.9952 74.8656 21.3411L64.7861 35.7968C64.6229 36.031 64.354 36.1703 64.0668 36.1703H61.0399C60.6138 36.1703 60.3649 35.6935 60.6117 35.3468L63.7502 30.9451L60.4122 21.212C60.2968 20.8737 60.5482 20.5223 60.9104 20.5223H63.8883C64.2752 20.5223 64.6165 20.7746 64.7282 21.1425L66.4996 27.021L70.6797 20.9037C70.8433 20.6649 71.1152 20.5223 71.4041 20.5223Z" fill="#253B80"/>
<path fill-rule="evenodd" clip-rule="evenodd" d="M104.055 31.3495L106.604 15.1712C106.643 14.9201 106.861 14.7352 107.114 14.7344H109.983C110.3 14.7344 110.543 15.0178 110.493 15.3314L107.98 31.2183C107.914 31.6375 107.553 31.9457 107.128 31.9457H104.566C104.249 31.9457 104.005 31.6631 104.055 31.3495ZM84.5404 14.7352H78.3303C77.9064 14.7352 77.545 15.0434 77.4786 15.4618L74.9675 31.3495C74.9175 31.6631 75.1607 31.9457 75.4779 31.9457H78.6643C78.9605 31.9457 79.2138 31.7302 79.26 31.4367L79.9726 26.9332C80.0381 26.5135 80.4003 26.2058 80.8242 26.2058H82.7888C86.8797 26.2058 89.2396 24.2307 89.8568 20.3171C90.1354 18.6049 89.8677 17.2595 89.0644 16.317C88.1826 15.2827 86.6184 14.7352 84.5404 14.7352ZM85.2567 20.538C84.9181 22.7613 83.2157 22.7613 81.5687 22.7613H80.6326L81.291 18.609C81.3301 18.3583 81.546 18.1735 81.8011 18.1735H82.2304C83.3509 18.1735 84.4097 18.1734 84.9559 18.8111C85.2819 19.1918 85.3811 19.7569 85.2567 20.538ZM103.099 20.4667H100.128C99.8721 20.4667 99.6553 20.6516 99.6171 20.9027L99.4856 21.7324L99.2768 21.4318C98.6331 20.4994 97.1988 20.1879 95.7661 20.1879C92.4802 20.1879 89.6749 22.6711 89.1283 26.1546C88.8451 27.892 89.2472 29.5535 90.235 30.7123C91.1429 31.7776 92.4377 32.2216 93.9801 32.2216C96.6274 32.2216 98.0954 30.5228 98.0954 30.5228L97.963 31.3474C97.913 31.6627 98.1563 31.9453 98.4752 31.9453H101.152C101.576 31.9453 101.938 31.6371 102.004 31.2179L103.612 21.0629C103.661 20.7506 103.418 20.4667 103.099 20.4667ZM98.9545 26.2414C98.6693 27.9364 97.3194 29.0743 95.5997 29.0743C94.738 29.0743 94.0465 28.798 93.6032 28.2744C93.1637 27.7545 92.9986 27.0141 93.1369 26.1899C93.4062 24.5091 94.7754 23.3344 96.4686 23.3344C97.3131 23.3344 97.9991 23.614 98.4516 24.1423C98.9062 24.676 99.086 25.4205 98.9545 26.2414Z" fill="#179BD7"/>
<path d="M36.1777 4.83392C36.1407 4.50588 35.9882 4.25176 35.7203 4.07157C35.4523 3.88907 35.115 3.79782 34.7084 3.79782C34.4173 3.79782 34.1655 3.84402 33.953 3.93643C33.7405 4.02653 33.5753 4.15127 33.4575 4.31067C33.342 4.46776 33.2842 4.6468 33.2842 4.84778C33.2842 5.01642 33.3235 5.16196 33.402 5.2844C33.4829 5.40684 33.588 5.50964 33.7174 5.59281C33.849 5.67366 33.99 5.74181 34.1401 5.79725C34.2903 5.85039 34.4347 5.89428 34.5733 5.92893L35.2663 6.10912C35.4927 6.16457 35.7249 6.23965 35.9628 6.33436C36.2008 6.42908 36.4214 6.55383 36.6247 6.70861C36.828 6.86339 36.992 7.05513 37.1167 7.28383C37.2438 7.51254 37.3073 7.78629 37.3073 8.10509C37.3073 8.50706 37.2034 8.86397 36.9955 9.17584C36.7899 9.48771 36.4907 9.73375 36.098 9.91394C35.7076 10.0941 35.2351 10.1842 34.6807 10.1842C34.1494 10.1842 33.6896 10.0999 33.3015 9.93126C32.9134 9.76262 32.6096 9.52352 32.3902 9.21396C32.1707 8.90209 32.0494 8.53247 32.0263 8.10509H33.1006C33.1213 8.36152 33.2045 8.57521 33.3501 8.74616C33.4979 8.9148 33.6862 9.0407 33.9149 9.12387C34.1459 9.20472 34.3989 9.24515 34.6738 9.24515C34.9764 9.24515 35.2455 9.19779 35.4812 9.10307C35.7191 9.00605 35.9062 8.87206 36.0425 8.70111C36.1788 8.52785 36.247 8.32571 36.247 8.0947C36.247 7.88447 36.1869 7.71237 36.0668 7.57838C35.949 7.44439 35.7884 7.3335 35.5851 7.24572C35.3841 7.15793 35.1566 7.08054 34.9025 7.01355L34.0639 6.78484C33.4956 6.63006 33.0451 6.40251 32.7124 6.10219C32.3821 5.80187 32.2169 5.40453 32.2169 4.91016C32.2169 4.50126 32.3278 4.14434 32.5496 3.8394C32.7714 3.53446 33.0717 3.29767 33.4505 3.12903C33.8294 2.95808 34.2568 2.87261 34.7327 2.87261C35.2132 2.87261 35.6371 2.95693 36.0044 3.12557C36.374 3.29421 36.6651 3.52638 36.8776 3.82208C37.0902 4.11547 37.2011 4.45275 37.2103 4.83392H36.1777ZM40.7977 10.1738C40.2733 10.1738 39.8216 10.0618 39.4428 9.8377C39.0662 9.61131 38.7751 9.29366 38.5695 8.88477C38.3662 8.47356 38.2646 7.99189 38.2646 7.43977C38.2646 6.89457 38.3662 6.41406 38.5695 5.99824C38.7751 5.58241 39.0616 5.25783 39.4289 5.02451C39.7985 4.79118 40.2305 4.67452 40.7249 4.67452C41.0252 4.67452 41.3163 4.72419 41.5981 4.82353C41.88 4.92286 42.1329 5.0788 42.357 5.29133C42.5811 5.50386 42.7578 5.77993 42.8872 6.11952C43.0166 6.4568 43.0813 6.86685 43.0813 7.34967V7.71699H38.8502V6.94078H42.0659C42.0659 6.66818 42.0105 6.42677 41.8996 6.21655C41.7887 6.00401 41.6328 5.83653 41.4318 5.71409C41.2331 5.59165 40.9998 5.53043 40.7318 5.53043C40.4408 5.53043 40.1866 5.60205 39.9695 5.74528C39.7546 5.88619 39.5883 6.07101 39.4705 6.29971C39.355 6.5261 39.2972 6.77214 39.2972 7.0378V7.64422C39.2972 7.99998 39.3596 8.30261 39.4844 8.5521C39.6114 8.8016 39.7881 8.99219 40.0145 9.12387C40.2409 9.25323 40.5054 9.31792 40.8081 9.31792C41.0044 9.31792 41.1835 9.2902 41.3452 9.23475C41.5069 9.177 41.6467 9.09152 41.7645 8.97833C41.8823 8.86513 41.9724 8.72537 42.0348 8.55903L43.0154 8.73576C42.9369 9.02453 42.796 9.27749 42.5927 9.49464C42.3917 9.70949 42.1387 9.87697 41.8338 9.9971C41.5311 10.1149 41.1858 10.1738 40.7977 10.1738ZM46.4728 10.1738C45.9577 10.1738 45.5141 10.0572 45.1422 9.82384C44.7726 9.58821 44.4884 9.26363 44.2898 8.85011C44.0911 8.4366 43.9917 7.96302 43.9917 7.42937C43.9917 6.8888 44.0934 6.41175 44.2967 5.99824C44.5 5.58241 44.7864 5.25783 45.1561 5.02451C45.5257 4.79118 45.9611 4.67452 46.4624 4.67452C46.8667 4.67452 47.2271 4.7496 47.5436 4.89976C47.8601 5.04761 48.1154 5.25552 48.3094 5.5235C48.5058 5.79148 48.6224 6.1045 48.6594 6.46258H47.651C47.5956 6.21308 47.4685 5.99824 47.2698 5.81804C47.0735 5.63785 46.8101 5.54776 46.4798 5.54776C46.191 5.54776 45.938 5.62399 45.7209 5.77646C45.506 5.92662 45.3386 6.14147 45.2184 6.42099C45.0983 6.69821 45.0382 7.02625 45.0382 7.40512C45.0382 7.79322 45.0972 8.12819 45.215 8.41003C45.3328 8.69187 45.4991 8.91018 45.714 9.06496C45.9311 9.21974 46.1864 9.29713 46.4798 9.29713C46.6761 9.29713 46.854 9.26132 47.0134 9.18971C47.1751 9.11578 47.3103 9.01067 47.4188 8.87437C47.5297 8.73807 47.6071 8.57405 47.651 8.38231H48.6594C48.6224 8.72652 48.5104 9.03377 48.3233 9.30406C48.1362 9.57434 47.8855 9.78688 47.5713 9.94166C47.2594 10.0964 46.8933 10.1738 46.4728 10.1738ZM53.1391 7.85906V4.74383H54.1786V10.0664H53.1599V9.14466H53.1044C52.982 9.42881 52.7856 9.6656 52.5153 9.85503C52.2473 10.0421 51.9135 10.1357 51.5139 10.1357C51.172 10.1357 50.8693 10.0606 50.606 9.91047C50.3449 9.758 50.1393 9.53276 49.9892 9.23475C49.8413 8.93674 49.7674 8.56828 49.7674 8.12935V4.74383H50.8035V8.0046C50.8035 8.36729 50.904 8.65606 51.105 8.8709C51.306 9.08575 51.567 9.19317 51.8881 9.19317C52.0822 9.19317 52.2751 9.14466 52.4668 9.04763C52.6609 8.9506 52.8214 8.80391 52.9485 8.60755C53.0778 8.41119 53.1414 8.16169 53.1391 7.85906ZM55.5708 10.0664V4.74383H56.5722V5.58934H56.6277C56.7247 5.30288 56.8957 5.07764 57.1405 4.91362C57.3877 4.74729 57.6672 4.66413 57.9791 4.66413C58.0438 4.66413 58.12 4.66644 58.2078 4.67106C58.2979 4.67568 58.3684 4.68145 58.4192 4.68838V5.67944C58.3776 5.66789 58.3037 5.65518 58.1974 5.64132C58.0912 5.62515 57.9849 5.61706 57.8786 5.61706C57.6337 5.61706 57.4154 5.66904 57.2237 5.773C57.0343 5.87464 56.8841 6.01672 56.7732 6.19922C56.6623 6.37941 56.6069 6.58501 56.6069 6.81603V10.0664H55.5708ZM61.4192 10.1738C60.8948 10.1738 60.4432 10.0618 60.0643 9.8377C59.6878 9.61131 59.3967 9.29366 59.1911 8.88477C58.9878 8.47356 58.8861 7.99189 58.8861 7.43977C58.8861 6.89457 58.9878 6.41406 59.1911 5.99824C59.3967 5.58241 59.6831 5.25783 60.0504 5.02451C60.4201 4.79118 60.8521 4.67452 61.3464 4.67452C61.6468 4.67452 61.9378 4.72419 62.2197 4.82353C62.5015 4.92286 62.7545 5.0788 62.9786 5.29133C63.2026 5.50386 63.3794 5.77993 63.5087 6.11952C63.6381 6.4568 63.7028 6.86685 63.7028 7.34967V7.71699H59.4718V6.94078H62.6875C62.6875 6.66818 62.632 6.42677 62.5212 6.21655C62.4103 6.00401 62.2543 5.83653 62.0533 5.71409C61.8547 5.59165 61.6213 5.53043 61.3534 5.53043C61.0623 5.53043 60.8082 5.60205 60.591 5.74528C60.3762 5.88619 60.2098 6.07101 60.092 6.29971C59.9765 6.5261 59.9188 6.77214 59.9188 7.0378V7.64422C59.9188 7.99998 59.9811 8.30261 60.1059 8.5521C60.2329 8.8016 60.4097 8.99219 60.6361 9.12387C60.8625 9.25323 61.127 9.31792 61.4296 9.31792C61.626 9.31792 61.805 9.2902 61.9667 9.23475C62.1284 9.177 62.2682 9.09152 62.386 8.97833C62.5038 8.86513 62.5939 8.72537 62.6563 8.55903L63.637 8.73576C63.5584 9.02453 63.4175 9.27749 63.2142 9.49464C63.0132 9.70949 62.7603 9.87697 62.4553 9.9971C62.1527 10.1149 61.8073 10.1738 61.4192 10.1738ZM66.8449 10.1704C66.4152 10.1704 66.0317 10.0606 65.6944 9.84117C65.3595 9.61939 65.0961 9.30406 64.9044 8.89516C64.7149 8.48396 64.6202 7.99074 64.6202 7.41551C64.6202 6.84029 64.7161 6.34822 64.9078 5.93933C65.1019 5.53043 65.3675 5.21741 65.7048 5.00025C66.0421 4.7831 66.4244 4.67452 66.8518 4.67452C67.1822 4.67452 67.4478 4.72997 67.6488 4.84085C67.8521 4.94943 68.0092 5.07649 68.1201 5.22203C68.2333 5.36757 68.3211 5.49578 68.3834 5.60667H68.4458V2.96963H69.4819V10.0664H68.4701V9.23822H68.3834C68.3211 9.35142 68.231 9.48078 68.1132 9.62632C67.9976 9.77186 67.8382 9.89892 67.635 10.0075C67.4317 10.1161 67.1683 10.1704 66.8449 10.1704ZM67.0736 9.28673C67.3716 9.28673 67.6234 9.20819 67.829 9.0511C68.0369 8.8917 68.194 8.67108 68.3003 8.38924C68.4089 8.1074 68.4631 7.77936 68.4631 7.40512C68.4631 7.03549 68.41 6.71207 68.3037 6.43485C68.1975 6.15764 68.0415 5.94164 67.8359 5.78686C67.6303 5.63208 67.3762 5.55469 67.0736 5.55469C66.7617 5.55469 66.5018 5.63554 66.2939 5.79725C66.086 5.95896 65.9289 6.17958 65.8226 6.45911C65.7187 6.73864 65.6667 7.05397 65.6667 7.40512C65.6667 7.76088 65.7198 8.08083 65.8261 8.36498C65.9324 8.64913 66.0895 8.87437 66.2974 9.0407C66.5076 9.20472 66.7663 9.28673 67.0736 9.28673ZM73.6263 10.0664V2.96963H74.6624V5.60667H74.7248C74.7849 5.49578 74.8715 5.36757 74.9847 5.22203C75.0979 5.07649 75.255 4.94943 75.456 4.84085C75.6569 4.72997 75.9226 4.67452 76.253 4.67452C76.6826 4.67452 77.0661 4.7831 77.4034 5.00025C77.7407 5.21741 78.0052 5.53043 78.1969 5.93933C78.391 6.34822 78.488 6.84029 78.488 7.41551C78.488 7.99074 78.3922 8.48396 78.2004 8.89516C78.0087 9.30406 77.7453 9.61939 77.4103 9.84117C77.0754 10.0606 76.693 10.1704 76.2633 10.1704C75.9399 10.1704 75.6754 10.1161 75.4698 10.0075C75.2665 9.89892 75.1071 9.77186 74.9916 9.62632C74.8761 9.48078 74.7872 9.35142 74.7248 9.23822H74.6382V10.0664H73.6263ZM74.6416 7.40512C74.6416 7.77936 74.6959 8.1074 74.8045 8.38924C74.9131 8.67108 75.0702 8.8917 75.2758 9.0511C75.4814 9.20819 75.7332 9.28673 76.0312 9.28673C76.3407 9.28673 76.5995 9.20472 76.8074 9.0407C77.0153 8.87437 77.1724 8.64913 77.2787 8.36498C77.3872 8.08083 77.4415 7.76088 77.4415 7.40512C77.4415 7.05397 77.3884 6.73864 77.2821 6.45911C77.1782 6.17958 77.0211 5.95896 76.8109 5.79725C76.6029 5.63554 76.343 5.55469 76.0312 5.55469C75.7309 5.55469 75.4767 5.63208 75.2688 5.78686C75.0632 5.94164 74.9073 6.15764 74.801 6.43485C74.6948 6.71207 74.6416 7.03549 74.6416 7.40512ZM80.1253 12.0624C79.9706 12.0624 79.8296 12.0497 79.7026 12.0243C79.5755 12.0012 79.4808 11.9757 79.4184 11.948L79.6679 11.099C79.8574 11.1499 80.026 11.1718 80.1739 11.1649C80.3217 11.158 80.4522 11.1025 80.5654 10.9986C80.6809 10.8946 80.7826 10.7248 80.8704 10.4892L80.9986 10.1357L79.0511 4.74383H80.16L81.508 8.87437H81.5634L82.9114 4.74383H84.0237L81.8302 10.7768C81.7286 11.054 81.5992 11.2885 81.4421 11.4802C81.285 11.6743 81.0979 11.8198 80.8808 11.9168C80.6636 12.0139 80.4118 12.0624 80.1253 12.0624Z" fill="#222D65"/>
<path d="M8.43308 32.7758L9.00401 29.1498L7.73237 29.1203H1.66016L5.88007 2.36285C5.89296 2.28206 5.93569 2.20675 5.9979 2.15327C6.06012 2.09979 6.13993 2.07031 6.22288 2.07031H16.4616C19.8608 2.07031 22.2064 2.77764 23.4312 4.17374C24.0053 4.82869 24.371 5.51308 24.5479 6.26625C24.7333 7.05657 24.7368 8.00076 24.5555 9.15236L24.5423 9.23641V9.97428L25.1167 10.2996C25.6002 10.5561 25.9842 10.8497 26.279 11.1859C26.7704 11.7459 27.0881 12.4576 27.2222 13.3014C27.3608 14.1692 27.3149 15.2018 27.0881 16.3708C26.826 17.7156 26.4024 18.8869 25.8306 19.8453C25.3043 20.7283 24.634 21.4606 23.8384 22.0284C23.0787 22.5676 22.1759 22.977 21.1554 23.2391C20.1662 23.4964 19.0388 23.6265 17.802 23.6265H17.0052C16.4355 23.6265 15.8819 23.8317 15.4476 24.1996C15.0121 24.5751 14.7237 25.0879 14.6354 25.6491L14.5754 25.9756L13.5667 32.3664L13.5209 32.6011C13.5089 32.6756 13.4882 32.7127 13.4577 32.7378C13.4304 32.7604 13.3911 32.7758 13.3527 32.7758H8.43308Z" fill="#253B80"/>
<path d="M25.6573 9.32227C25.6268 9.51764 25.5919 9.71739 25.5526 9.92261C24.2021 16.8551 19.5828 19.25 13.6828 19.25H10.6789C9.95747 19.25 9.34946 19.7739 9.23697 20.4856L7.69889 30.2399L7.26338 33.0047C7.19017 33.4719 7.55058 33.8933 8.0219 33.8933H13.3501C13.981 33.8933 14.5167 33.4349 14.616 32.8127L14.6685 32.5419L15.6718 26.1759L15.7362 25.8268C15.8342 25.2024 16.3712 24.744 17.0022 24.744H17.799C22.961 24.744 27.0021 22.6482 28.1832 16.5833C28.6766 14.0498 28.4211 11.9344 27.1155 10.4466C26.7206 9.99792 26.2304 9.6257 25.6573 9.32227Z" fill="#179BD7"/>
<path d="M24.2462 8.76004C24.04 8.69999 23.827 8.64541 23.6086 8.5963C23.3893 8.54829 23.1643 8.50571 22.9331 8.4686C22.123 8.33761 21.2357 8.27539 20.2849 8.27539H12.2598C12.0621 8.27539 11.8745 8.32013 11.7064 8.40092C11.3363 8.57883 11.0614 8.92924 10.9947 9.35821L9.2873 20.1712L9.23828 20.4867C9.35077 19.775 9.95878 19.251 10.6802 19.251H13.6841C19.5841 19.251 24.2038 16.8551 25.5539 9.92364C25.5942 9.71843 25.6281 9.51868 25.6586 9.3233C25.317 9.14209 24.9469 8.98709 24.5484 8.85499C24.4504 8.82225 24.3489 8.79061 24.2462 8.76004Z" fill="#222D65"/>
<path d="M10.9941 9.35705C11.0607 8.92805 11.336 8.57767 11.7058 8.40082C11.8752 8.32004 12.0618 8.27529 12.2592 8.27529H20.2845C21.2353 8.27529 22.1227 8.33751 22.9324 8.46851C23.164 8.50561 23.389 8.54819 23.6083 8.5962C23.8267 8.64535 24.0394 8.69993 24.2459 8.75994C24.3483 8.79051 24.4498 8.82216 24.5491 8.85383C24.9475 8.98589 25.3176 9.142 25.6592 9.32211C26.0611 6.76021 25.6561 5.0159 24.271 3.4364C22.7439 1.69756 19.9876 0.953125 16.4608 0.953125H6.22181C5.50132 0.953125 4.88702 1.47705 4.77548 2.18985L0.510943 29.2223C0.426733 29.7571 0.839299 30.2398 1.37849 30.2398H7.69988L9.28699 20.17L10.9941 9.35705Z" fill="#253B80"/>
</svg>
