<svg width="14" height="15" viewBox="0 0 14 15" fill="none" xmlns="http://www.w3.org/2000/svg">
<path d="M3.69389 15C3.06225 15 2.46259 14.8464 1.93489 14.5391C0.687607 13.8113 0 12.3315 0 10.3828V4.61726C0 2.66038 0.687607 1.18869 1.93489 0.460923C3.18218 -0.266839 4.78926 -0.129373 6.4683 0.849063L11.4015 3.72777C13.0725 4.7062 14 6.04852 14 7.50405C14 8.95957 13.0805 10.3019 11.4015 11.2803L6.4683 14.159C5.50086 14.717 4.5574 15 3.69389 15ZM3.69389 1.20486C3.26214 1.20486 2.87836 1.30189 2.53455 1.50405C1.67105 2.0054 1.19931 3.11321 1.19931 4.61726V10.3747C1.19931 11.8787 1.67105 12.9784 2.53455 13.4879C3.39806 13.9973 4.58138 13.8518 5.86865 13.0997L10.8018 10.221C12.0891 9.46901 12.8007 8.50674 12.8007 7.49596C12.8007 6.48518 12.0891 5.52292 10.8018 4.77089L5.86865 1.89219C5.08509 1.43936 4.34951 1.20486 3.69389 1.20486Z" fill="#3F97FF"/>
</svg>
