<svg width="259" height="66" viewBox="0 0 259 66" fill="none" xmlns="http://www.w3.org/2000/svg">
<g filter="url(#filter0_d_259_8308)">
<mask id="path-1-inside-1_259_8308" fill="white">
<path fill-rule="evenodd" clip-rule="evenodd" d="M32.9994 6C26.372 6 20.9994 11.3726 20.9994 18V23.7309C19.6041 25.7924 17.5852 28.5469 15.9287 29.8997C13.0879 32.2198 8.20703 34.954 8.20703 34.954C8.20703 34.954 16.2069 37.8656 19.5934 38.1813C20.0895 38.2275 20.5597 38.2663 20.9994 38.2989V44C20.9994 50.6274 26.372 56 32.9994 56H238.999C245.627 56 250.999 50.6274 250.999 44V18C250.999 11.3726 245.627 6 238.999 6H32.9994Z"/>
</mask>
<path fill-rule="evenodd" clip-rule="evenodd" d="M32.9994 6C26.372 6 20.9994 11.3726 20.9994 18V23.7309C19.6041 25.7924 17.5852 28.5469 15.9287 29.8997C13.0879 32.2198 8.20703 34.954 8.20703 34.954C8.20703 34.954 16.2069 37.8656 19.5934 38.1813C20.0895 38.2275 20.5597 38.2663 20.9994 38.2989V44C20.9994 50.6274 26.372 56 32.9994 56H238.999C245.627 56 250.999 50.6274 250.999 44V18C250.999 11.3726 245.627 6 238.999 6H32.9994Z" fill="white"/>
<path d="M20.9994 23.7309L21.4135 24.0111L21.4994 23.8842V23.7309H20.9994ZM15.9287 29.8997L15.6124 29.5125L15.9287 29.8997ZM8.20703 34.954L7.96267 34.5178L7.01112 35.0509L8.03603 35.4239L8.20703 34.954ZM19.5934 38.1813L19.547 38.6791H19.547L19.5934 38.1813ZM20.9994 38.2989H21.4994V37.8345L21.0363 37.8003L20.9994 38.2989ZM21.4994 18C21.4994 11.6487 26.6481 6.5 32.9994 6.5V5.5C26.0958 5.5 20.4994 11.0964 20.4994 18H21.4994ZM21.4994 23.7309V18H20.4994V23.7309H21.4994ZM16.245 30.287C17.9667 28.8809 20.0232 26.0652 21.4135 24.0111L20.5853 23.4506C19.185 25.5195 17.2038 28.2128 15.6124 29.5125L16.245 30.287ZM8.20703 34.954C8.4514 35.3902 8.45144 35.3902 8.4515 35.3902C8.45155 35.3902 8.45163 35.3901 8.45172 35.3901C8.4519 35.39 8.45215 35.3898 8.45248 35.3896C8.45314 35.3893 8.45409 35.3887 8.45534 35.388C8.45783 35.3866 8.46148 35.3846 8.46628 35.3819C8.47587 35.3765 8.49002 35.3685 8.50852 35.3581C8.54552 35.3372 8.59993 35.3063 8.67005 35.2663C8.81028 35.1863 9.01339 35.0697 9.26584 34.9225C9.77064 34.6283 10.4733 34.2118 11.2654 33.7222C12.8446 32.7463 14.7981 31.4687 16.245 30.287L15.6124 29.5125C14.2185 30.6509 12.3112 31.9004 10.7397 32.8716C9.95649 33.3556 9.26141 33.7676 8.76227 34.0586C8.51275 34.204 8.31235 34.3191 8.17456 34.3977C8.10567 34.437 8.05244 34.4672 8.01656 34.4874C7.99862 34.4976 7.98502 34.5052 7.97596 34.5103C7.97144 34.5129 7.96805 34.5148 7.96582 34.516C7.96471 34.5167 7.96389 34.5171 7.96336 34.5174C7.9631 34.5176 7.96291 34.5177 7.96279 34.5177C7.96273 34.5178 7.9627 34.5178 7.96267 34.5178C7.96266 34.5178 7.96267 34.5178 8.20703 34.954ZM19.6398 37.6834C18.0088 37.5314 15.2132 36.7427 12.7812 35.9726C11.5749 35.5906 10.4735 35.2183 9.67346 34.9414C9.27356 34.803 8.94923 34.6885 8.72508 34.6087C8.61302 34.5688 8.52601 34.5376 8.46714 34.5164C8.4377 34.5058 8.4153 34.4977 8.40032 34.4923C8.39283 34.4895 8.3872 34.4875 8.38347 34.4862C8.3816 34.4855 8.38021 34.485 8.37931 34.4846C8.37885 34.4845 8.37852 34.4844 8.37831 34.4843C8.3782 34.4842 8.37813 34.4842 8.37808 34.4842C8.37804 34.4842 8.37803 34.4842 8.20703 34.954C8.03603 35.4239 8.03608 35.4239 8.03617 35.4239C8.03623 35.4239 8.03635 35.424 8.03649 35.424C8.03676 35.4241 8.03716 35.4243 8.03767 35.4245C8.03871 35.4248 8.04022 35.4254 8.04222 35.4261C8.0462 35.4276 8.05209 35.4297 8.05984 35.4325C8.07534 35.4381 8.09828 35.4464 8.12826 35.4572C8.18823 35.4788 8.2764 35.5105 8.3897 35.5508C8.61627 35.6315 8.94339 35.7469 9.34639 35.8864C10.1522 36.1653 11.2624 36.5406 12.4793 36.926C14.894 37.6906 17.7915 38.5155 19.547 38.6791L19.6398 37.6834ZM21.0363 37.8003C20.5996 37.7679 20.1326 37.7294 19.6398 37.6834L19.547 38.6791C20.0464 38.7257 20.5198 38.7647 20.9625 38.7975L21.0363 37.8003ZM21.4994 44V38.2989H20.4994V44H21.4994ZM32.9994 55.5C26.6481 55.5 21.4994 50.3513 21.4994 44H20.4994C20.4994 50.9036 26.0958 56.5 32.9994 56.5V55.5ZM238.999 55.5H32.9994V56.5H238.999V55.5ZM250.499 44C250.499 50.3513 245.351 55.5 238.999 55.5V56.5C245.903 56.5 251.499 50.9036 251.499 44H250.499ZM250.499 18V44H251.499V18H250.499ZM238.999 6.5C245.351 6.5 250.499 11.6487 250.499 18H251.499C251.499 11.0964 245.903 5.5 238.999 5.5V6.5ZM32.9994 6.5H238.999V5.5H32.9994V6.5Z" fill="#CDD2D9" mask="url(#path-1-inside-1_259_8308)"/>
</g>
<defs>
<filter id="filter0_d_259_8308" x="0.207031" y="0" width="258.793" height="66" filterUnits="userSpaceOnUse" color-interpolation-filters="sRGB">
<feFlood flood-opacity="0" result="BackgroundImageFix"/>
<feColorMatrix in="SourceAlpha" type="matrix" values="0 0 0 0 0 0 0 0 0 0 0 0 0 0 0 0 0 0 127 0" result="hardAlpha"/>
<feOffset dy="2"/>
<feGaussianBlur stdDeviation="4"/>
<feComposite in2="hardAlpha" operator="out"/>
<feColorMatrix type="matrix" values="0 0 0 0 0 0 0 0 0 0 0 0 0 0 0 0 0 0 0.05 0"/>
<feBlend mode="normal" in2="BackgroundImageFix" result="effect1_dropShadow_259_8308"/>
<feBlend mode="normal" in="SourceGraphic" in2="effect1_dropShadow_259_8308" result="shape"/>
</filter>
</defs>
</svg>
