<svg width="36" height="36" viewBox="0 0 36 36" fill="none" xmlns="http://www.w3.org/2000/svg">
<path fill-rule="evenodd" clip-rule="evenodd" d="M34.75 18.4994C35.16 18.4994 35.5 18.1594 35.5 17.7494C35.5 17.3394 35.16 16.9994 34.75 16.9994L18.5 16.9994L18.5 0.749999C18.5 0.339999 18.16 -7.93799e-07 17.75 -7.75877e-07C17.34 -7.57955e-07 17 0.339999 17 0.749999L17 16.9994L0.749999 16.9994C0.339999 16.9994 -7.93827e-07 17.3394 -7.75905e-07 17.7494C-7.57983e-07 18.1594 0.339999 18.4994 0.749999 18.4994L17 18.4994L17 34.75C17 35.16 17.34 35.5 17.75 35.5C18.16 35.5 18.5 35.16 18.5 34.75L18.5 18.4994L34.75 18.4994Z" fill="white"/>
</svg>
