<svg width="18" height="18" viewBox="0 0 18 18" fill="none" xmlns="http://www.w3.org/2000/svg">
<path d="M4.05648 16.3129C3.21648 16.3129 2.68398 16.0279 2.34648 15.6904C1.68648 15.0304 1.22148 13.6279 2.70648 10.6504L3.35898 9.35285C3.44148 9.18035 3.44148 8.82035 3.35898 8.64785L2.70648 7.35035C1.21398 4.37285 1.68648 2.96285 2.34648 2.31035C2.99898 1.65035 4.40898 1.17785 7.37898 2.67035L13.799 5.88035C15.3965 6.67535 16.274 7.78535 16.274 9.00035C16.274 10.2154 15.3965 11.3254 13.8065 12.1204L7.38649 15.3304C5.93149 16.0579 4.85148 16.3129 4.05648 16.3129ZM4.05648 2.81285C3.65148 2.81285 3.33648 2.91035 3.14148 3.10535C2.59398 3.64535 2.81148 5.04785 3.71148 6.84035L4.36399 8.14535C4.60398 8.63285 4.60398 9.36785 4.36399 9.85535L3.71148 11.1529C2.81148 12.9529 2.59398 14.3479 3.14148 14.8879C3.68148 15.4354 5.08398 15.2179 6.88399 14.3179L13.304 11.1079C14.4815 10.5229 15.149 9.75035 15.149 8.99285C15.149 8.23535 14.474 7.46285 13.2965 6.87785L6.87648 3.67535C5.73649 3.10535 4.75398 2.81285 4.05648 2.81285Z" fill="white"/>
<path d="M8.13203 9.5625H4.08203C3.77453 9.5625 3.51953 9.3075 3.51953 9C3.51953 8.6925 3.77453 8.4375 4.08203 8.4375H8.13203C8.43953 8.4375 8.69453 8.6925 8.69453 9C8.69453 9.3075 8.43953 9.5625 8.13203 9.5625Z" fill="white"/>
</svg>
