<svg width="18" height="18" viewBox="0 0 18 18" fill="none" xmlns="http://www.w3.org/2000/svg">
<path d="M9.4125 15.4425C8.82 15.4425 8.1675 15.2325 7.515 14.82L5.325 13.4475C5.175 13.3575 5.0025 13.305 4.83 13.305H3.75C1.935 13.305 0.9375 12.3075 0.9375 10.4925V7.49246C0.9375 5.67746 1.935 4.67996 3.75 4.67996H4.8225C4.995 4.67996 5.1675 4.62746 5.3175 4.53746L7.5075 3.16496C8.6025 2.48246 9.6675 2.35496 10.5075 2.81996C11.3475 3.28496 11.805 4.25246 11.805 5.54996V12.4275C11.805 13.7175 11.34 14.6925 10.5075 15.1575C10.1775 15.3525 9.8025 15.4425 9.4125 15.4425ZM3.75 5.81246C2.565 5.81246 2.0625 6.31496 2.0625 7.49996V10.5C2.0625 11.685 2.565 12.1875 3.75 12.1875H4.8225C5.2125 12.1875 5.5875 12.2925 5.9175 12.5025L8.1075 13.875C8.8275 14.325 9.51 14.445 9.9675 14.19C10.425 13.935 10.6875 13.2975 10.6875 12.45V5.55746C10.6875 4.70246 10.425 4.06496 9.9675 3.81746C9.51 3.56246 8.8275 3.67496 8.1075 4.13246L5.91 5.49746C5.5875 5.70746 5.205 5.81246 4.8225 5.81246H3.75Z" fill="#3F97FF"/>
<path d="M13.5002 12.5627C13.3802 12.5627 13.2677 12.5252 13.1627 12.4502C12.9152 12.2627 12.8627 11.9102 13.0502 11.6627C14.2277 10.0952 14.2277 7.9052 13.0502 6.3377C12.8627 6.0902 12.9152 5.7377 13.1627 5.5502C13.4102 5.3627 13.7627 5.4152 13.9502 5.6627C15.4202 7.6277 15.4202 10.3727 13.9502 12.3377C13.8377 12.4877 13.6727 12.5627 13.5002 12.5627Z" fill="#3F97FF"/>
<path d="M14.8733 14.4377C14.7533 14.4377 14.6408 14.4002 14.5358 14.3252C14.2883 14.1377 14.2358 13.7852 14.4233 13.5377C16.4258 10.8677 16.4258 7.1327 14.4233 4.4627C14.2358 4.2152 14.2883 3.8627 14.5358 3.6752C14.7833 3.4877 15.1358 3.5402 15.3233 3.7877C17.6258 6.8552 17.6258 11.1452 15.3233 14.2127C15.2183 14.3627 15.0458 14.4377 14.8733 14.4377Z" fill="#3F97FF"/>
</svg>
