<svg width="69" height="41" viewBox="0 0 69 41" fill="none" xmlns="http://www.w3.org/2000/svg">
<path d="M1.2115 9V2.52381H3.5199C4.02375 2.52381 4.44116 2.61551 4.77214 2.79892C5.10311 2.98233 5.35082 3.2332 5.51525 3.55152C5.67969 3.86775 5.76191 4.22402 5.76191 4.62035C5.76191 5.01879 5.67863 5.37717 5.51209 5.6955C5.34766 6.01172 5.0989 6.26259 4.76581 6.4481C4.43483 6.63151 4.01848 6.72321 3.51674 6.72321H1.92932V5.89472H3.4282C3.74653 5.89472 4.00477 5.83991 4.20294 5.73028C4.4011 5.61855 4.54657 5.46677 4.63932 5.27493C4.73208 5.08309 4.77846 4.86489 4.77846 4.62035C4.77846 4.37581 4.73208 4.15867 4.63932 3.96894C4.54657 3.7792 4.40005 3.63058 4.19978 3.52307C4.00161 3.41555 3.7402 3.36179 3.41555 3.36179H2.18862V9H1.2115ZM8.81659 9.09803C8.36124 9.09803 7.96385 8.99368 7.62444 8.78497C7.28503 8.57626 7.02152 8.28429 6.83389 7.90904C6.64627 7.53379 6.55246 7.0953 6.55246 6.59356C6.55246 6.08972 6.64627 5.64912 6.83389 5.27176C7.02152 4.89441 7.28503 4.60138 7.62444 4.39267C7.96385 4.18397 8.36124 4.07961 8.81659 4.07961C9.27195 4.07961 9.66933 4.18397 10.0087 4.39267C10.3482 4.60138 10.6117 4.89441 10.7993 5.27176C10.9869 5.64912 11.0807 6.08972 11.0807 6.59356C11.0807 7.0953 10.9869 7.53379 10.7993 7.90904C10.6117 8.28429 10.3482 8.57626 10.0087 8.78497C9.66933 8.99368 9.27195 9.09803 8.81659 9.09803ZM8.81976 8.30432C9.11489 8.30432 9.35944 8.22631 9.55339 8.07031C9.74733 7.91431 9.89069 7.70666 9.98345 7.44736C10.0783 7.18806 10.1257 6.90241 10.1257 6.5904C10.1257 6.28051 10.0783 5.99591 9.98345 5.73661C9.89069 5.4752 9.74733 5.26544 9.55339 5.10733C9.35944 4.94922 9.11489 4.87016 8.81976 4.87016C8.52251 4.87016 8.27586 4.94922 8.0798 5.10733C7.88585 5.26544 7.74144 5.4752 7.64658 5.73661C7.55382 5.99591 7.50744 6.28051 7.50744 6.5904C7.50744 6.90241 7.55382 7.18806 7.64658 7.44736C7.74144 7.70666 7.88585 7.91431 8.0798 8.07031C8.27586 8.22631 8.52251 8.30432 8.81976 8.30432ZM13.0413 9L11.612 4.14286H12.5891L13.5409 7.70982H13.5884L14.5433 4.14286H15.5205L16.4691 7.69401H16.5166L17.4621 4.14286H18.4392L17.013 9H16.0485L15.0619 5.49312H14.9892L14.0026 9H13.0413ZM21.282 9.09803C20.8034 9.09803 20.3913 8.99578 20.0456 8.79129C19.7019 8.5847 19.4363 8.29483 19.2487 7.92169C19.0632 7.54644 18.9704 7.10689 18.9704 6.60305C18.9704 6.10553 19.0632 5.66704 19.2487 5.28757C19.4363 4.90811 19.6977 4.61192 20.0329 4.399C20.3702 4.18607 20.7644 4.07961 21.2156 4.07961C21.4896 4.07961 21.7553 4.12494 22.0125 4.21559C22.2697 4.30624 22.5005 4.44854 22.705 4.64248C22.9095 4.83643 23.0707 5.08836 23.1888 5.39825C23.3069 5.70604 23.3659 6.08023 23.3659 6.52083V6.85603H19.5048V6.14769H22.4394C22.4394 5.89893 22.3888 5.67863 22.2876 5.48679C22.1864 5.29284 22.0441 5.14 21.8607 5.02827C21.6794 4.91654 21.4665 4.86068 21.2219 4.86068C20.9563 4.86068 20.7244 4.92603 20.5262 5.05673C20.3302 5.18533 20.1784 5.35398 20.0709 5.56269C19.9655 5.76928 19.9128 5.9938 19.9128 6.23624V6.78962C19.9128 7.11427 19.9697 7.39044 20.0835 7.61812C20.1995 7.8458 20.3607 8.01972 20.5673 8.13988C20.7739 8.25794 21.0153 8.31696 21.2915 8.31696C21.4707 8.31696 21.6341 8.29167 21.7816 8.24107C21.9292 8.18837 22.0567 8.11037 22.1643 8.00707C22.2718 7.90377 22.354 7.77623 22.4109 7.62444L23.3058 7.78571C23.2341 8.04923 23.1055 8.28007 22.92 8.47824C22.7366 8.67429 22.5058 8.82713 22.2275 8.93676C21.9513 9.04427 21.6362 9.09803 21.282 9.09803ZM24.4149 9V4.14286H25.3288V4.91443H25.3794C25.468 4.65303 25.624 4.44748 25.8474 4.2978C26.073 4.14602 26.3281 4.07013 26.6127 4.07013C26.6717 4.07013 26.7413 4.07223 26.8214 4.07645C26.9036 4.08067 26.9679 4.08594 27.0143 4.09226V4.99665C26.9763 4.98611 26.9089 4.97452 26.8119 4.96187C26.7149 4.94711 26.6179 4.93973 26.521 4.93973C26.2975 4.93973 26.0983 4.98716 25.9233 5.08203C25.7505 5.17479 25.6134 5.30444 25.5122 5.47098C25.411 5.63542 25.3604 5.82304 25.3604 6.03385V9H24.4149ZM29.752 9.09803C29.2734 9.09803 28.8613 8.99578 28.5155 8.79129C28.1719 8.5847 27.9063 8.29483 27.7187 7.92169C27.5331 7.54644 27.4404 7.10689 27.4404 6.60305C27.4404 6.10553 27.5331 5.66704 27.7187 5.28757C27.9063 4.90811 28.1677 4.61192 28.5029 4.399C28.8402 4.18607 29.2344 4.07961 29.6855 4.07961C29.9596 4.07961 30.2252 4.12494 30.4824 4.21559C30.7396 4.30624 30.9705 4.44854 31.1749 4.64248C31.3794 4.83643 31.5407 5.08836 31.6588 5.39825C31.7768 5.70604 31.8358 6.08023 31.8358 6.52083V6.85603H27.9748V6.14769H30.9093C30.9093 5.89893 30.8587 5.67863 30.7575 5.48679C30.6563 5.29284 30.514 5.14 30.3306 5.02827C30.1493 4.91654 29.9364 4.86068 29.6919 4.86068C29.4262 4.86068 29.1944 4.92603 28.9962 5.05673C28.8001 5.18533 28.6483 5.35398 28.5408 5.56269C28.4354 5.76928 28.3827 5.9938 28.3827 6.23624V6.78962C28.3827 7.11427 28.4396 7.39044 28.5535 7.61812C28.6694 7.8458 28.8307 8.01972 29.0373 8.13988C29.2439 8.25794 29.4853 8.31696 29.7614 8.31696C29.9406 8.31696 30.104 8.29167 30.2516 8.24107C30.3992 8.18837 30.5267 8.11037 30.6342 8.00707C30.7417 7.90377 30.8239 7.77623 30.8809 7.62444L31.7758 7.78571C31.7041 8.04923 31.5755 8.28007 31.39 8.47824C31.2066 8.67429 30.9757 8.82713 30.6975 8.93676C30.4213 9.04427 30.1061 9.09803 29.752 9.09803ZM34.7032 9.09487C34.3111 9.09487 33.9611 8.99473 33.6533 8.79446C33.3476 8.59208 33.1073 8.30432 32.9323 7.93118C32.7595 7.55593 32.673 7.10584 32.673 6.58092C32.673 6.05599 32.7605 5.60696 32.9355 5.23382C33.1126 4.86068 33.355 4.57502 33.6628 4.37686C33.9706 4.1787 34.3195 4.07961 34.7095 4.07961C35.011 4.07961 35.2534 4.13021 35.4368 4.2314C35.6223 4.33048 35.7657 4.44643 35.8669 4.57924C35.9702 4.71205 36.0503 4.82905 36.1072 4.93025H36.1641V2.52381H37.1096V9H36.1862V8.24423H36.1072C36.0503 8.34753 35.9681 8.46559 35.8605 8.5984C35.7551 8.73121 35.6097 8.84716 35.4242 8.94624C35.2386 9.04532 34.9983 9.09487 34.7032 9.09487ZM34.9119 8.2885C35.1838 8.2885 35.4136 8.21683 35.6012 8.07347C35.791 7.92801 35.9343 7.72669 36.0313 7.46949C36.1304 7.2123 36.1799 6.91295 36.1799 6.57143C36.1799 6.23413 36.1314 5.93899 36.0345 5.68601C35.9375 5.43304 35.7952 5.23592 35.6076 5.09468C35.4199 4.95343 35.188 4.88281 34.9119 4.88281C34.6273 4.88281 34.3901 4.9566 34.2004 5.10417C34.0107 5.25174 33.8673 5.45306 33.7703 5.70815C33.6755 5.96323 33.628 6.25099 33.628 6.57143C33.628 6.89608 33.6765 7.18806 33.7735 7.44736C33.8705 7.70666 34.0138 7.9122 34.2035 8.06399C34.3954 8.21367 34.6315 8.2885 34.9119 8.2885ZM40.8916 9V2.52381H41.8371V4.93025H41.894C41.9488 4.82905 42.0279 4.71205 42.1312 4.57924C42.2345 4.44643 42.3778 4.33048 42.5612 4.2314C42.7447 4.13021 42.9871 4.07961 43.2886 4.07961C43.6807 4.07961 44.0306 4.1787 44.3384 4.37686C44.6462 4.57502 44.8876 4.86068 45.0625 5.23382C45.2396 5.60696 45.3282 6.05599 45.3282 6.58092C45.3282 7.10584 45.2407 7.55593 45.0657 7.93118C44.8907 8.30432 44.6504 8.59208 44.3447 8.79446C44.039 8.99473 43.6902 9.09487 43.298 9.09487C43.0029 9.09487 42.7615 9.04532 42.5739 8.94624C42.3884 8.84716 42.2429 8.73121 42.1375 8.5984C42.0321 8.46559 41.9509 8.34753 41.894 8.24423H41.815V9H40.8916ZM41.8181 6.57143C41.8181 6.91295 41.8677 7.2123 41.9668 7.46949C42.0658 7.72669 42.2092 7.92801 42.3968 8.07347C42.5844 8.21683 42.8142 8.2885 43.0862 8.2885C43.3687 8.2885 43.6048 8.21367 43.7945 8.06399C43.9842 7.9122 44.1276 7.70666 44.2246 7.44736C44.3236 7.18806 44.3732 6.89608 44.3732 6.57143C44.3732 6.25099 44.3247 5.96323 44.2277 5.70815C44.1329 5.45306 43.9895 5.25174 43.7977 5.10417C43.6079 4.9566 43.3708 4.88281 43.0862 4.88281C42.8121 4.88281 42.5802 4.95343 42.3905 5.09468C42.2029 5.23592 42.0606 5.43304 41.9636 5.68601C41.8666 5.93899 41.8181 6.23413 41.8181 6.57143ZM46.8223 10.8214C46.6811 10.8214 46.5525 10.8098 46.4365 10.7866C46.3206 10.7656 46.2341 10.7424 46.1772 10.7171L46.4049 9.94234C46.5778 9.98872 46.7317 10.0087 46.8666 10.0024C47.0015 9.99609 47.1206 9.9455 47.2239 9.85063C47.3293 9.75577 47.4221 9.60082 47.5022 9.38579L47.6192 9.06324L45.842 4.14286H46.8539L48.084 7.9122H48.1346L49.3647 4.14286H50.3798L48.3781 9.64825C48.2854 9.90123 48.1673 10.1152 48.024 10.2902C47.8806 10.4673 47.7098 10.6001 47.5117 10.6886C47.3135 10.7772 47.0837 10.8214 46.8223 10.8214Z" fill="#222D65"/>
<path fill-rule="evenodd" clip-rule="evenodd" d="M37.3139 15.8329L32.5726 16.8504V13.0065L37.3139 12.0078V15.8329ZM18.0478 14.1937L13.4389 15.1735L13.42 30.2667C13.42 33.0555 15.5167 35.1094 18.3123 35.1094C19.8612 35.1094 20.9945 34.8267 21.6179 34.4875V30.6624C21.0134 30.9074 18.0289 31.7742 18.0289 28.9854V22.2962H21.6179V18.2826H18.0289L18.0478 14.1937ZM68.4995 26.5919C68.4995 21.7681 66.1572 17.9619 61.6805 17.9619C57.1849 17.9619 54.4649 21.7681 54.4649 26.5542C54.4649 32.226 57.676 35.0901 62.285 35.0901C64.5328 35.0901 66.2328 34.5813 67.5173 33.8653V30.0967C66.2328 30.7374 64.7595 31.1331 62.8894 31.1331C61.0572 31.1331 59.4327 30.4924 59.2249 28.2689H68.4617C68.4617 28.1651 68.4685 27.9292 68.4763 27.6573V27.6572V27.6568C68.487 27.2876 68.4995 26.8523 68.4995 26.5919ZM59.1679 24.8022C59.1679 22.6729 60.4712 21.7873 61.6612 21.7873C62.8135 21.7873 64.0413 22.6729 64.0413 24.8022H59.1679ZM6.88454 22.0512C5.88341 22.0512 5.27896 22.3338 5.27896 23.0687C5.27896 23.871 6.31923 24.224 7.60981 24.6619C9.71375 25.3757 12.4829 26.3153 12.4946 29.7956C12.4946 33.1685 9.79347 35.1093 5.86452 35.1093C4.24006 35.1093 2.46447 34.789 0.707781 34.0353V29.5507C2.29447 30.4174 4.29672 31.0581 5.86452 31.0581C6.92232 31.0581 7.67789 30.7755 7.67789 29.9087C7.67789 29.0199 6.55021 28.6137 5.1888 28.1232C3.11545 27.3763 0.5 26.4341 0.5 23.2948C0.5 19.9596 3.05004 17.9622 6.88454 17.9622C8.45234 17.9622 10.0013 18.2072 11.5691 18.829V23.2571C10.1335 22.4846 8.32012 22.0512 6.88454 22.0512ZM27.4928 19.6763L27.1906 18.2819H23.1105V34.7695H27.8328V23.5956C28.9473 22.1447 30.8362 22.4085 31.4218 22.6158V18.2819C30.8173 18.0558 28.6073 17.6413 27.4928 19.6763ZM32.5726 18.2824H37.3139V34.77H32.5726V18.2824ZM43.4734 19.4316C44.1345 18.8286 45.3245 17.9619 47.1757 17.9619C50.4813 17.9619 53.598 20.939 53.6169 26.4035C53.6169 32.3767 50.5379 35.0901 47.1568 35.0901C45.4945 35.0901 44.4934 34.3929 43.8134 33.903L43.7945 39.2356L39.0722 40.2343V18.2633H43.2278L43.4734 19.4316ZM43.8139 30.0595C44.2672 30.5494 44.9283 30.9451 46.0428 30.9451C47.7806 30.9451 48.9517 29.0608 48.9517 26.5359C48.9517 24.0674 47.7617 22.1454 46.0428 22.1454C44.9661 22.1454 44.2861 22.5223 43.795 23.0688L43.8139 30.0595Z" fill="#6461FC"/>
</svg>
