<svg width="14" height="14" viewBox="0 0 14 14" fill="none" xmlns="http://www.w3.org/2000/svg">
<path d="M7.00065 13.2708C3.94398 13.2708 1.45898 10.7858 1.45898 7.72917C1.45898 4.6725 3.94398 2.1875 7.00065 2.1875C10.0573 2.1875 12.5423 4.6725 12.5423 7.72917C12.5423 10.7858 10.0573 13.2708 7.00065 13.2708ZM7.00065 3.0625C4.42815 3.0625 2.33398 5.15667 2.33398 7.72917C2.33398 10.3017 4.42815 12.3958 7.00065 12.3958C9.57315 12.3958 11.6673 10.3017 11.6673 7.72917C11.6673 5.15667 9.57315 3.0625 7.00065 3.0625Z" fill="#303030"/>
<path d="M7 8.02079C6.76083 8.02079 6.5625 7.82246 6.5625 7.58329V4.66663C6.5625 4.42746 6.76083 4.22913 7 4.22913C7.23917 4.22913 7.4375 4.42746 7.4375 4.66663V7.58329C7.4375 7.82246 7.23917 8.02079 7 8.02079Z" fill="#303030"/>
<path d="M8.75 1.60413H5.25C5.01083 1.60413 4.8125 1.40579 4.8125 1.16663C4.8125 0.927459 5.01083 0.729126 5.25 0.729126H8.75C8.98917 0.729126 9.1875 0.927459 9.1875 1.16663C9.1875 1.40579 8.98917 1.60413 8.75 1.60413Z" fill="#303030"/>
</svg>
