<svg width="12" height="12" viewBox="0 0 12 12" fill="none" xmlns="http://www.w3.org/2000/svg">
<path fill-rule="evenodd" clip-rule="evenodd" d="M10.3796 11.4403C10.6695 11.7302 11.1503 11.7302 11.4402 11.4403C11.7301 11.1504 11.7301 10.6695 11.4402 10.3796L7.02082 5.96021L11.4402 1.54079C11.7301 1.25087 11.7301 0.770041 11.4402 0.480128C11.1503 0.190214 10.6695 0.190214 10.3796 0.480128L5.96015 4.89954L1.54074 0.480128C1.25082 0.190214 0.769991 0.190214 0.480077 0.480128C0.190164 0.770041 0.190164 1.25087 0.480077 1.54079L4.89949 5.96021L0.480077 10.3796C0.190164 10.6695 0.190164 11.1504 0.480077 11.4403C0.769991 11.7302 1.25082 11.7302 1.54074 11.4403L5.96015 7.02087L10.3796 11.4403Z" fill="#303030"/>
</svg>