<svg width="16" height="16" viewBox="0 0 16 16" fill="none" xmlns="http://www.w3.org/2000/svg">
<g clip-path="url(#clip0_647_5367)">
<path d="M8 16C12.4183 16 16 12.4183 16 8C16 3.58172 12.4183 0 8 0C3.58172 0 0 3.58172 0 8C0 12.4183 3.58172 16 8 16Z" fill="#F0F0F0"/>
<path d="M1.6555 3.12988C1.02709 3.94748 0.55325 4.88982 0.277344 5.91354H4.43916L1.6555 3.12988Z" fill="#0052B4"/>
<path d="M15.7262 5.91351C15.4503 4.88982 14.9764 3.94748 14.348 3.12988L11.5645 5.91351H15.7262Z" fill="#0052B4"/>
<path d="M0.277344 10.0869C0.553281 11.1106 1.02712 12.0529 1.6555 12.8705L4.43906 10.0869H0.277344Z" fill="#0052B4"/>
<path d="M12.8715 1.65358C12.0539 1.02517 11.1116 0.551328 10.0879 0.275391V4.43717L12.8715 1.65358Z" fill="#0052B4"/>
<path d="M3.13086 14.3461C3.94845 14.9745 4.8908 15.4483 5.91448 15.7242V11.5625L3.13086 14.3461Z" fill="#0052B4"/>
<path d="M5.91445 0.275391C4.89077 0.551328 3.94842 1.02517 3.13086 1.65355L5.91445 4.43714V0.275391Z" fill="#0052B4"/>
<path d="M10.0879 15.7242C11.1116 15.4483 12.0539 14.9745 12.8715 14.3461L10.0879 11.5625V15.7242Z" fill="#0052B4"/>
<path d="M11.5645 10.0869L14.348 12.8705C14.9764 12.053 15.4503 11.1106 15.7262 10.0869H11.5645Z" fill="#0052B4"/>
<path d="M15.9323 6.95653H9.04353H9.0435V0.0677188C8.70191 0.02325 8.35366 0 8 0C7.64628 0 7.29809 0.02325 6.95653 0.0677188V6.95647V6.9565H0.0677188C0.02325 7.29809 0 7.64634 0 8C0 8.35372 0.02325 8.70191 0.0677188 9.04347H6.95647H6.9565V15.9323C7.29809 15.9768 7.64628 16 8 16C8.35366 16 8.70191 15.9768 9.04347 15.9323V9.04353V9.0435H15.9323C15.9768 8.70191 16 8.35372 16 8C16 7.64634 15.9768 7.29809 15.9323 6.95653Z" fill="#D80027"/>
<path d="M10.0859 10.0869L13.6558 13.6568C13.82 13.4927 13.9766 13.3211 14.1261 13.1432L11.0698 10.0869H10.0859V10.0869Z" fill="#D80027"/>
<path d="M5.91366 10.0869H5.91359L2.34375 13.6568C2.50788 13.8209 2.67947 13.9776 2.85734 14.127L5.91366 11.0706V10.0869Z" fill="#D80027"/>
<path d="M5.91317 5.91274V5.91268L2.3433 2.34277C2.17911 2.5069 2.02248 2.67849 1.87305 2.85637L4.92939 5.91271H5.91317V5.91274Z" fill="#D80027"/>
<path d="M10.0859 5.9132L13.6558 2.34327C13.4917 2.17908 13.3201 2.02245 13.1423 1.87305L10.0859 4.92939V5.9132Z" fill="#D80027"/>
</g>
<defs>
<clipPath id="clip0_647_5367">
<rect width="16" height="16" fill="white"/>
</clipPath>
</defs>
</svg>
