<svg width="22" height="22" viewBox="0 0 22 22" fill="none" xmlns="http://www.w3.org/2000/svg">
<path d="M11.5029 18.8742C10.7787 18.8742 9.9812 18.6176 9.1837 18.1134L6.50703 16.4359C6.3237 16.3259 6.11286 16.2617 5.90203 16.2617H4.58203C2.3637 16.2617 1.14453 15.0426 1.14453 12.8242V9.15756C1.14453 6.93922 2.3637 5.72006 4.58203 5.72006H5.89286C6.1037 5.72006 6.31453 5.65589 6.49786 5.54589L9.17453 3.86839C10.5129 3.03422 11.8145 2.87839 12.8412 3.44672C13.8679 4.01506 14.427 5.19756 14.427 6.78339V15.1892C14.427 16.7659 13.8587 17.9576 12.8412 18.5259C12.4379 18.7642 11.9795 18.8742 11.5029 18.8742ZM4.58203 7.10422C3.1337 7.10422 2.51953 7.71839 2.51953 9.16672V12.8334C2.51953 14.2817 3.1337 14.8959 4.58203 14.8959H5.89286C6.36953 14.8959 6.82786 15.0242 7.2312 15.2809L9.90786 16.9584C10.7879 17.5084 11.622 17.6551 12.1812 17.3434C12.7404 17.0317 13.0612 16.2526 13.0612 15.2167V6.79256C13.0612 5.74756 12.7404 4.96839 12.1812 4.66589C11.622 4.35422 10.7879 4.49172 9.90786 5.05089L7.22203 6.71922C6.82786 6.97589 6.36036 7.10422 5.89286 7.10422H4.58203Z" fill="white"/>
<path d="M16.5003 15.3541C16.3536 15.3541 16.2161 15.3083 16.0877 15.2166C15.7852 14.9874 15.7211 14.5566 15.9503 14.2541C17.3894 12.3383 17.3894 9.66159 15.9503 7.74576C15.7211 7.44326 15.7852 7.01242 16.0877 6.78326C16.3902 6.55409 16.8211 6.61826 17.0503 6.92076C18.8469 9.32242 18.8469 12.6774 17.0503 15.0791C16.9128 15.2624 16.7111 15.3541 16.5003 15.3541Z" fill="white"/>
<path d="M18.176 17.6454C18.0294 17.6454 17.8919 17.5996 17.7635 17.5079C17.461 17.2788 17.3969 16.8479 17.626 16.5454C20.0735 13.2821 20.0735 8.7171 17.626 5.45377C17.3969 5.15127 17.461 4.72043 17.7635 4.49127C18.066 4.2621 18.4969 4.32627 18.726 4.62877C21.5402 8.37793 21.5402 13.6213 18.726 17.3704C18.5977 17.5538 18.3869 17.6454 18.176 17.6454Z" fill="white"/>
</svg>
