<svg width="54" height="35" viewBox="0 0 54 35" fill="none" xmlns="http://www.w3.org/2000/svg">
<path fill-rule="evenodd" clip-rule="evenodd" d="M51.372 0.0112189L38.2602 0.0078125C38.2586 0.0078125 38.2568 0.0078125 38.2568 0.0078125C38.2466 0.0078125 38.2367 0.00963077 38.2268 0.00963077C36.4255 0.0652584 34.1821 1.5216 33.7735 3.31738L27.5728 30.975C27.1642 32.7876 28.2758 34.2625 30.064 34.2896H43.8385C45.5995 34.2018 47.3106 32.7622 47.7123 30.9868L53.9132 3.32896C54.3283 1.49798 53.1899 0.0112189 51.372 0.0112189" fill="#01798A"/>
<path fill-rule="evenodd" clip-rule="evenodd" d="M27.5725 30.9745L33.7732 3.31688C34.1818 1.5211 36.4253 0.0647584 38.2265 0.0091309L33.0133 0.00572452L23.6206 0.00390625C21.8143 0.0411438 19.5417 1.5077 19.1332 3.31688L12.9307 30.9745C12.5206 32.7871 13.6338 34.262 15.4209 34.2891H30.0637C28.2755 34.262 27.1639 32.7871 27.5725 30.9745" fill="#024381"/>
<path fill-rule="evenodd" clip-rule="evenodd" d="M12.9306 30.9738L19.1331 3.31616C19.5416 1.50697 21.8142 0.0404167 23.6205 0.00317915L11.5879 0C9.77155 0 7.44274 1.48336 7.02764 3.31616L0.825086 30.9738C0.787341 31.1426 0.7664 31.308 0.753906 31.4699V31.983C0.875326 33.3042 1.87634 34.2664 3.31525 34.2884H15.4208C13.6337 34.2612 12.5205 32.7864 12.9306 30.9738" fill="#DD0228"/>
<path fill-rule="evenodd" clip-rule="evenodd" d="M23.8738 20.156H24.1015C24.3108 20.156 24.4516 20.0852 24.5175 19.945L25.1093 19.0524H26.6938L26.3634 19.6395H28.2633L28.0223 20.5391H25.7616C25.5012 20.934 25.1807 21.1196 24.7953 21.0976H23.6177L23.8738 20.156ZM23.6136 21.4453H27.7761L27.5108 22.4225H25.8368L25.5814 23.3658H27.2103L26.945 24.3429H25.316L24.9376 25.7368C24.8439 25.9697 24.9671 26.0745 25.3052 26.0507H26.6328L26.3868 26.9588H23.838C23.3548 26.9588 23.1891 26.6802 23.3406 26.1217L23.8245 24.3429H22.7832L23.0477 23.3658H24.0891L24.3443 22.4225H23.349L23.6136 21.4453ZM30.2574 19.0456L30.1919 19.6177C30.1919 19.6177 30.977 19.0234 31.6902 19.0234H34.3253L33.3176 22.7007C33.234 23.1211 32.8756 23.3301 32.2427 23.3301H29.256L28.5564 25.9123C28.516 26.0507 28.573 26.1216 28.7237 26.1216H29.3114L29.0954 26.9231H27.6013C27.0279 26.9231 26.7893 26.7493 26.8839 26.4001L28.8609 19.0456H30.2574ZM32.4889 20.0851H30.1369L29.8556 21.0773C29.8556 21.0773 30.2473 20.7923 30.9018 20.7821C31.5546 20.7718 32.2997 20.7821 32.2997 20.7821L32.4889 20.0851ZM31.6368 22.387C31.8107 22.4107 31.908 22.3414 31.9197 22.1777L32.0636 21.6546H29.708L29.5105 22.387H31.6368ZM30.0479 23.575H31.4057L31.3805 24.1672H31.742C31.9247 24.1672 32.0152 24.1083 32.0152 23.9919L32.1222 23.6087H33.2507L33.1 24.1672C32.9725 24.6331 32.6346 24.8761 32.0855 24.8999H31.3622L31.3589 25.9123C31.3456 26.0744 31.4911 26.1571 31.7906 26.1571H32.4704L32.251 26.9587H30.6205C30.1635 26.9806 29.9394 26.7611 29.9441 26.2955L30.0479 23.575Z" fill="white"/>
<path fill-rule="evenodd" clip-rule="evenodd" d="M13.5961 14.1477C13.4119 15.0573 12.985 15.756 12.3228 16.2521C11.6666 16.7398 10.8203 16.9845 9.78411 16.9845C8.80897 16.9845 8.09407 16.7347 7.63786 16.2335C7.32146 15.8774 7.16406 15.4251 7.16406 14.8783C7.16406 14.6522 7.19091 14.4092 7.2445 14.1477L8.34853 8.78125H10.016L8.92695 14.0869C8.89343 14.2338 8.88005 14.3705 8.88181 14.4937C8.88005 14.7654 8.947 14.9881 9.08259 15.1619C9.28013 15.4201 9.60074 15.5483 10.0469 15.5483C10.56 15.5483 10.9827 15.4218 11.3108 15.1669C11.639 14.9138 11.8533 14.5544 11.9495 14.0869L13.0419 8.78125H14.7009L13.5961 14.1477" fill="white"/>
<path fill-rule="evenodd" clip-rule="evenodd" d="M20.5985 12.0359H21.9044L20.8814 16.8253H19.5781L20.5985 12.0359ZM21.0096 10.291H22.3271L22.081 11.4535H20.7635L21.0096 10.291Z" fill="white"/>
<path fill-rule="evenodd" clip-rule="evenodd" d="M23.0606 16.4599C22.719 16.1308 22.5466 15.687 22.5449 15.1234C22.5449 15.0271 22.5507 14.9175 22.5634 14.7976C22.576 14.6761 22.5919 14.5579 22.6144 14.4483C22.7693 13.6704 23.0991 13.0527 23.6072 12.597C24.1144 12.1397 24.7264 11.9102 25.4429 11.9102C26.0297 11.9102 26.495 12.0756 26.8358 12.4063C27.1764 12.7388 27.3471 13.1876 27.3471 13.7582C27.3471 13.8559 27.3397 13.969 27.3271 14.0905C27.312 14.2137 27.2937 14.3318 27.2725 14.4483C27.1212 15.2144 26.7923 15.8254 26.2842 16.2727C25.776 16.7232 25.1658 16.9475 24.4543 16.9475C23.8651 16.9475 23.4013 16.7856 23.0606 16.4599ZM25.5492 15.5115C25.7794 15.26 25.9443 14.8786 26.0447 14.3707C26.0598 14.2914 26.0731 14.2087 26.0814 14.126C26.0898 14.045 26.0932 13.969 26.0932 13.8998C26.0932 13.6045 26.0186 13.375 25.8688 13.213C25.7199 13.0493 25.5082 12.9684 25.2345 12.9684C24.8728 12.9684 24.5782 13.0965 24.3473 13.353C24.1144 13.6096 23.9495 13.9978 23.8457 14.5141C23.8315 14.5934 23.8198 14.6728 23.809 14.7504C23.8006 14.8297 23.7982 14.904 23.7997 14.9714C23.7997 15.2651 23.8743 15.4913 24.0241 15.6515C24.173 15.8119 24.3838 15.8912 24.6611 15.8912C25.0244 15.8912 25.319 15.7646 25.5492 15.5115Z" fill="white"/>
<path fill-rule="evenodd" clip-rule="evenodd" d="M35.8187 20.198L36.1336 19.0808H37.7256L37.6569 19.4908C37.6569 19.4908 38.4705 19.0808 39.0564 19.0808C39.6424 19.0808 41.025 19.0808 41.025 19.0808L40.7121 20.198H40.4024L38.9174 25.4666H39.2271L38.9325 26.513H38.6228L38.4939 26.9669H36.9521L37.0807 26.513H34.0391L34.3355 25.4666H34.6402L36.1266 20.198H35.8187ZM37.5364 20.198L37.1312 21.624C37.1312 21.624 37.8245 21.3558 38.422 21.2798C38.554 20.7819 38.7266 20.198 38.7266 20.198L37.5364 20.198ZM36.9436 22.2923L36.537 23.7858C36.537 23.7858 37.3053 23.4044 37.8326 23.3723C37.9849 22.7951 38.1374 22.2923 38.1374 22.2923L36.9436 22.2923ZM37.2416 25.4666L37.5463 24.3832H36.3579L36.0516 25.4666H37.2416ZM41.0921 19.0117H42.5888L42.6523 19.5684C42.6424 19.7102 42.726 19.7779 42.9035 19.7779H43.1679L42.9003 20.7211H41.8002C41.3802 20.743 41.1642 20.5812 41.1441 20.2317L41.0921 19.0117ZM40.6535 21.0351H45.5017L45.2172 22.0477H43.6736L43.4089 22.9892H44.9509L44.6647 24.0001H42.9472L42.5586 24.5926H43.3992L43.5934 25.7789C43.6166 25.897 43.7204 25.9544 43.8979 25.9544H44.159L43.8846 26.9313H42.9605C42.4816 26.9551 42.2341 26.7931 42.2138 26.4438L41.991 25.3604L41.2261 26.513C41.0452 26.8387 40.7673 26.9906 40.3925 26.9669H38.9811L39.2557 25.9897H39.696C39.8769 25.9897 40.0274 25.9087 40.163 25.7451L41.3601 24.0001H39.8165L40.1026 22.9892H41.7768L42.0431 22.0477H40.3672L40.6535 21.0351Z" fill="white"/>
<path fill-rule="evenodd" clip-rule="evenodd" d="M15.1317 12.0356H16.3094L16.1747 12.7275L16.3437 12.53C16.7255 12.1183 17.1892 11.9141 17.7366 11.9141C18.2321 11.9141 18.5895 12.0593 18.8139 12.3511C19.0348 12.6431 19.0951 13.0465 18.9906 13.5646L18.3418 16.8283H17.1314L17.7173 13.87C17.7777 13.5646 17.761 13.3367 17.6679 13.1898C17.5759 13.0431 17.4 12.9706 17.1465 12.9706C16.8351 12.9706 16.5731 13.0683 16.3596 13.2625C16.1453 13.4582 16.0039 13.73 15.9344 14.0759L15.3945 16.8283H14.1816L15.1317 12.0356" fill="white"/>
<path fill-rule="evenodd" clip-rule="evenodd" d="M28.6374 12.0356H29.816L29.6823 12.7275L29.8494 12.53C30.2314 12.1183 30.6968 11.9141 31.2425 11.9141C31.7381 11.9141 32.0962 12.0593 32.3187 12.3511C32.5383 12.6431 32.6019 13.0465 32.4946 13.5646L31.8484 16.8283H30.6364L31.2225 13.87C31.2826 13.5646 31.2659 13.3367 31.1738 13.1898C31.0783 13.0431 30.9058 12.9706 30.6533 12.9706C30.3418 12.9706 30.0807 13.0683 29.8647 13.2625C29.6503 13.4582 29.5081 13.73 29.4412 14.0759L28.8989 16.8283H27.6875L28.6374 12.0356" fill="white"/>
<path fill-rule="evenodd" clip-rule="evenodd" d="M34.4633 9.0625H37.8852C38.5432 9.0625 39.052 9.21281 39.4018 9.50798C39.75 9.80679 39.9244 10.2355 39.9244 10.794V10.8108C39.9244 10.9171 39.9174 11.037 39.9075 11.1669C39.8906 11.2951 39.8687 11.425 39.8406 11.5601C39.6899 12.2993 39.3399 12.8934 38.7993 13.3439C38.2567 13.7928 37.614 14.019 36.8741 14.019H35.0391L34.4717 16.8254H32.8828L34.4633 9.0625ZM35.3186 12.669H36.8405C37.2372 12.669 37.5519 12.576 37.7814 12.3921C38.0091 12.2065 38.1598 11.923 38.2434 11.5383C38.2566 11.4672 38.265 11.4032 38.2751 11.3442C38.2803 11.2885 38.2868 11.2327 38.2868 11.1789C38.2868 10.9037 38.19 10.7046 37.9956 10.5797C37.8014 10.453 37.4969 10.3924 37.0748 10.3924H35.7823L35.3186 12.669Z" fill="white"/>
<path fill-rule="evenodd" clip-rule="evenodd" d="M47.0353 17.7528C46.533 18.8294 46.0544 19.4571 45.7733 19.749C45.4917 20.0377 44.9345 20.7094 43.5918 20.6587L43.7073 19.8369C44.8372 19.4859 45.4483 17.9045 45.7965 17.2042L45.3814 12.047L46.2553 12.0352H46.9885L47.0673 15.2703L48.4415 12.0352H49.8328L47.0353 17.7528" fill="white"/>
<path fill-rule="evenodd" clip-rule="evenodd" d="M43.1449 12.4259L42.5922 12.809C42.0146 12.3534 41.4873 12.0715 40.4697 12.5474C39.0833 13.1954 37.9249 18.1654 41.7419 16.5284L41.9595 16.7883L43.4611 16.8271L44.4473 12.3111L43.1449 12.4259ZM42.291 14.8948C42.0498 15.6121 41.511 16.0862 41.0891 15.9513C40.6672 15.8196 40.5165 15.1276 40.7609 14.4088C41.0019 13.6898 41.5443 13.2173 41.9628 13.3523C42.3847 13.484 42.537 14.1759 42.291 14.8948Z" fill="white"/>
</svg>
